ISO-10303-21;
HEADER;
/* Generated by software containing ST-Developer
 * from STEP Tools, Inc. (www.steptools.com) 
 */

FILE_DESCRIPTION(
/* description */ (''),
/* implementation_level */ '2;1');

FILE_NAME(
/* name */ 'PETG_block.step',
/* time_stamp */ '2026-08-04T14:50:43+02:00',
/* author */ (''),
/* organization */ (''),
/* preprocessor_version */ 'ST-DEVELOPER v20.1',
/* originating_system */ 'Autodesk Translation Framework v15.8.0.0',
/* authorisation */ '');

FILE_SCHEMA (('AUTOMOTIVE_DESIGN { 1 0 10303 214 3 1 1 }'));
ENDSEC;

DATA;
#10=MECHANICAL_DESIGN_GEOMETRIC_PRESENTATION_REPRESENTATION('',(#13),#1544);
#11=SHAPE_REPRESENTATION_RELATIONSHIP('SRR','None',#1551,#12);
#12=ADVANCED_BREP_SHAPE_REPRESENTATION('',(#14),#1543);
#13=STYLED_ITEM('',(#1561),#14);
#14=MANIFOLD_SOLID_BREP('Body1',#807);
#15=CONICAL_SURFACE('',#848,1.85,0.785398163397448);
#16=CONICAL_SURFACE('',#857,1.85,0.785398163397448);
#17=CONICAL_SURFACE('',#862,5.8,0.785398163397444);
#18=CONICAL_SURFACE('',#864,5.8,0.785398163397448);
#19=ELLIPSE('',#826,23.1822198309376,6.);
#20=ELLIPSE('',#830,23.1822198309377,6.);
#21=ELLIPSE('',#837,23.1822198309377,6.);
#22=ELLIPSE('',#841,23.1822198309376,6.);
#23=FACE_BOUND('',#117,.T.);
#24=FACE_BOUND('',#118,.T.);
#25=FACE_BOUND('',#134,.T.);
#26=FACE_BOUND('',#135,.T.);
#27=FACE_BOUND('',#156,.T.);
#28=FACE_BOUND('',#164,.T.);
#29=CIRCLE('',#823,6.);
#30=CIRCLE('',#824,6.);
#31=CIRCLE('',#827,6.);
#32=CIRCLE('',#828,6.);
#33=CIRCLE('',#829,6.);
#34=CIRCLE('',#838,6.);
#35=CIRCLE('',#839,6.);
#36=CIRCLE('',#840,6.);
#37=CIRCLE('',#849,1.65);
#38=CIRCLE('',#850,2.05);
#39=CIRCLE('',#852,5.6);
#40=CIRCLE('',#853,5.6);
#41=CIRCLE('',#854,2.05);
#42=CIRCLE('',#856,1.65);
#43=CIRCLE('',#858,1.65);
#44=CIRCLE('',#860,1.65);
#45=PLANE('',#822);
#46=PLANE('',#833);
#47=PLANE('',#835);
#48=PLANE('',#845);
#49=PLANE('',#847);
#50=PLANE('',#851);
#51=PLANE('',#861);
#52=PLANE('',#863);
#53=PLANE('',#865);
#54=PLANE('',#868);
#55=PLANE('',#869);
#56=PLANE('',#870);
#57=PLANE('',#871);
#58=PLANE('',#872);
#59=PLANE('',#873);
#60=PLANE('',#874);
#61=PLANE('',#875);
#62=PLANE('',#876);
#63=PLANE('',#877);
#64=PLANE('',#878);
#65=PLANE('',#879);
#66=PLANE('',#880);
#67=PLANE('',#881);
#68=PLANE('',#882);
#69=PLANE('',#883);
#70=PLANE('',#884);
#71=FACE_OUTER_BOUND('',#115,.T.);
#72=FACE_OUTER_BOUND('',#116,.T.);
#73=FACE_OUTER_BOUND('',#119,.T.);
#74=FACE_OUTER_BOUND('',#120,.T.);
#75=FACE_OUTER_BOUND('',#121,.T.);
#76=FACE_OUTER_BOUND('',#122,.T.);
#77=FACE_OUTER_BOUND('',#123,.T.);
#78=FACE_OUTER_BOUND('',#124,.T.);
#79=FACE_OUTER_BOUND('',#125,.T.);
#80=FACE_OUTER_BOUND('',#126,.T.);
#81=FACE_OUTER_BOUND('',#127,.T.);
#82=FACE_OUTER_BOUND('',#128,.T.);
#83=FACE_OUTER_BOUND('',#129,.T.);
#84=FACE_OUTER_BOUND('',#130,.T.);
#85=FACE_OUTER_BOUND('',#131,.T.);
#86=FACE_OUTER_BOUND('',#132,.T.);
#87=FACE_OUTER_BOUND('',#133,.T.);
#88=FACE_OUTER_BOUND('',#136,.T.);
#89=FACE_OUTER_BOUND('',#137,.T.);
#90=FACE_OUTER_BOUND('',#138,.T.);
#91=FACE_OUTER_BOUND('',#139,.T.);
#92=FACE_OUTER_BOUND('',#140,.T.);
#93=FACE_OUTER_BOUND('',#141,.T.);
#94=FACE_OUTER_BOUND('',#142,.T.);
#95=FACE_OUTER_BOUND('',#143,.T.);
#96=FACE_OUTER_BOUND('',#144,.T.);
#97=FACE_OUTER_BOUND('',#145,.T.);
#98=FACE_OUTER_BOUND('',#146,.T.);
#99=FACE_OUTER_BOUND('',#147,.T.);
#100=FACE_OUTER_BOUND('',#148,.T.);
#101=FACE_OUTER_BOUND('',#149,.T.);
#102=FACE_OUTER_BOUND('',#150,.T.);
#103=FACE_OUTER_BOUND('',#151,.T.);
#104=FACE_OUTER_BOUND('',#152,.T.);
#105=FACE_OUTER_BOUND('',#153,.T.);
#106=FACE_OUTER_BOUND('',#154,.T.);
#107=FACE_OUTER_BOUND('',#155,.T.);
#108=FACE_OUTER_BOUND('',#157,.T.);
#109=FACE_OUTER_BOUND('',#158,.T.);
#110=FACE_OUTER_BOUND('',#159,.T.);
#111=FACE_OUTER_BOUND('',#160,.T.);
#112=FACE_OUTER_BOUND('',#161,.T.);
#113=FACE_OUTER_BOUND('',#162,.T.);
#114=FACE_OUTER_BOUND('',#163,.T.);
#115=EDGE_LOOP('',(#521,#522,#523,#524));
#116=EDGE_LOOP('',(#525,#526,#527,#528));
#117=EDGE_LOOP('',(#529,#530,#531,#532,#533,#534));
#118=EDGE_LOOP('',(#535,#536,#537,#538,#539,#540));
#119=EDGE_LOOP('',(#541,#542,#543,#544,#545,#546,#547,#548,#549,#550,#551,
#552,#553,#554,#555,#556,#557,#558,#559,#560));
#120=EDGE_LOOP('',(#561,#562,#563,#564));
#121=EDGE_LOOP('',(#565,#566,#567,#568));
#122=EDGE_LOOP('',(#569,#570,#571,#572));
#123=EDGE_LOOP('',(#573,#574,#575,#576));
#124=EDGE_LOOP('',(#577,#578,#579,#580));
#125=EDGE_LOOP('',(#581,#582,#583,#584,#585,#586,#587,#588,#589,#590,#591,
#592,#593,#594,#595,#596,#597,#598,#599,#600));
#126=EDGE_LOOP('',(#601,#602,#603,#604));
#127=EDGE_LOOP('',(#605,#606,#607,#608));
#128=EDGE_LOOP('',(#609,#610,#611,#612));
#129=EDGE_LOOP('',(#613,#614,#615,#616));
#130=EDGE_LOOP('',(#617,#618,#619,#620));
#131=EDGE_LOOP('',(#621,#622,#623,#624));
#132=EDGE_LOOP('',(#625,#626,#627,#628));
#133=EDGE_LOOP('',(#629,#630,#631,#632));
#134=EDGE_LOOP('',(#633));
#135=EDGE_LOOP('',(#634));
#136=EDGE_LOOP('',(#635,#636,#637,#638));
#137=EDGE_LOOP('',(#639,#640,#641,#642));
#138=EDGE_LOOP('',(#643,#644,#645,#646));
#139=EDGE_LOOP('',(#647,#648,#649,#650));
#140=EDGE_LOOP('',(#651,#652,#653,#654));
#141=EDGE_LOOP('',(#655,#656,#657,#658));
#142=EDGE_LOOP('',(#659,#660,#661,#662));
#143=EDGE_LOOP('',(#663,#664,#665,#666));
#144=EDGE_LOOP('',(#667,#668,#669,#670));
#145=EDGE_LOOP('',(#671,#672,#673,#674));
#146=EDGE_LOOP('',(#675,#676,#677,#678));
#147=EDGE_LOOP('',(#679,#680,#681,#682));
#148=EDGE_LOOP('',(#683,#684,#685,#686));
#149=EDGE_LOOP('',(#687,#688,#689,#690));
#150=EDGE_LOOP('',(#691,#692,#693,#694));
#151=EDGE_LOOP('',(#695,#696,#697,#698));
#152=EDGE_LOOP('',(#699,#700,#701,#702));
#153=EDGE_LOOP('',(#703,#704,#705,#706));
#154=EDGE_LOOP('',(#707,#708,#709,#710));
#155=EDGE_LOOP('',(#711,#712,#713,#714,#715,#716));
#156=EDGE_LOOP('',(#717));
#157=EDGE_LOOP('',(#718,#719,#720,#721));
#158=EDGE_LOOP('',(#722,#723,#724,#725));
#159=EDGE_LOOP('',(#726,#727,#728,#729));
#160=EDGE_LOOP('',(#730,#731,#732,#733));
#161=EDGE_LOOP('',(#734,#735,#736,#737));
#162=EDGE_LOOP('',(#738,#739,#740,#741));
#163=EDGE_LOOP('',(#742,#743,#744,#745,#746,#747));
#164=EDGE_LOOP('',(#748));
#165=LINE('',#1106,#239);
#166=LINE('',#1120,#240);
#167=LINE('',#1125,#241);
#168=LINE('',#1129,#242);
#169=LINE('',#1131,#243);
#170=LINE('',#1133,#244);
#171=LINE('',#1135,#245);
#172=LINE('',#1137,#246);
#173=LINE('',#1138,#247);
#174=LINE('',#1141,#248);
#175=LINE('',#1143,#249);
#176=LINE('',#1145,#250);
#177=LINE('',#1147,#251);
#178=LINE('',#1149,#252);
#179=LINE('',#1150,#253);
#180=LINE('',#1153,#254);
#181=LINE('',#1214,#255);
#182=LINE('',#1218,#256);
#183=LINE('',#1275,#257);
#184=LINE('',#1295,#258);
#185=LINE('',#1296,#259);
#186=LINE('',#1314,#260);
#187=LINE('',#1316,#261);
#188=LINE('',#1326,#262);
#189=LINE('',#1327,#263);
#190=LINE('',#1330,#264);
#191=LINE('',#1331,#265);
#192=LINE('',#1394,#266);
#193=LINE('',#1398,#267);
#194=LINE('',#1433,#268);
#195=LINE('',#1435,#269);
#196=LINE('',#1437,#270);
#197=LINE('',#1439,#271);
#198=LINE('',#1441,#272);
#199=LINE('',#1446,#273);
#200=LINE('',#1451,#274);
#201=LINE('',#1455,#275);
#202=LINE('',#1461,#276);
#203=LINE('',#1466,#277);
#204=LINE('',#1469,#278);
#205=LINE('',#1472,#279);
#206=LINE('',#1473,#280);
#207=LINE('',#1474,#281);
#208=LINE('',#1476,#282);
#209=LINE('',#1478,#283);
#210=LINE('',#1479,#284);
#211=LINE('',#1482,#285);
#212=LINE('',#1484,#286);
#213=LINE('',#1486,#287);
#214=LINE('',#1488,#288);
#215=LINE('',#1493,#289);
#216=LINE('',#1495,#290);
#217=LINE('',#1496,#291);
#218=LINE('',#1499,#292);
#219=LINE('',#1500,#293);
#220=LINE('',#1503,#294);
#221=LINE('',#1504,#295);
#222=LINE('',#1507,#296);
#223=LINE('',#1508,#297);
#224=LINE('',#1511,#298);
#225=LINE('',#1512,#299);
#226=LINE('',#1514,#300);
#227=LINE('',#1518,#301);
#228=LINE('',#1520,#302);
#229=LINE('',#1521,#303);
#230=LINE('',#1524,#304);
#231=LINE('',#1525,#305);
#232=LINE('',#1528,#306);
#233=LINE('',#1529,#307);
#234=LINE('',#1532,#308);
#235=LINE('',#1533,#309);
#236=LINE('',#1536,#310);
#237=LINE('',#1537,#311);
#238=LINE('',#1539,#312);
#239=VECTOR('',#889,10.);
#240=VECTOR('',#890,10.);
#241=VECTOR('',#895,10.);
#242=VECTOR('',#898,10.);
#243=VECTOR('',#899,10.);
#244=VECTOR('',#900,10.);
#245=VECTOR('',#901,10.);
#246=VECTOR('',#902,10.);
#247=VECTOR('',#903,10.);
#248=VECTOR('',#904,10.);
#249=VECTOR('',#905,10.);
#250=VECTOR('',#906,10.);
#251=VECTOR('',#907,10.);
#252=VECTOR('',#908,10.);
#253=VECTOR('',#909,10.);
#254=VECTOR('',#912,10.);
#255=VECTOR('',#917,10.);
#256=VECTOR('',#920,10.);
#257=VECTOR('',#925,10.);
#258=VECTOR('',#928,10.);
#259=VECTOR('',#929,10.);
#260=VECTOR('',#932,10.);
#261=VECTOR('',#935,10.);
#262=VECTOR('',#938,10.);
#263=VECTOR('',#939,10.);
#264=VECTOR('',#942,10.);
#265=VECTOR('',#943,10.);
#266=VECTOR('',#950,10.);
#267=VECTOR('',#953,10.);
#268=VECTOR('',#962,10.);
#269=VECTOR('',#965,10.);
#270=VECTOR('',#968,10.);
#271=VECTOR('',#971,10.);
#272=VECTOR('',#974,10.);
#273=VECTOR('',#979,1.85);
#274=VECTOR('',#984,10.);
#275=VECTOR('',#987,10.);
#276=VECTOR('',#994,1.65);
#277=VECTOR('',#1001,1.85);
#278=VECTOR('',#1004,1.65);
#279=VECTOR('',#1009,10.);
#280=VECTOR('',#1010,10.);
#281=VECTOR('',#1011,10.);
#282=VECTOR('',#1014,10.);
#283=VECTOR('',#1017,10.);
#284=VECTOR('',#1018,10.);
#285=VECTOR('',#1023,10.);
#286=VECTOR('',#1026,10.);
#287=VECTOR('',#1029,10.);
#288=VECTOR('',#1032,10.);
#289=VECTOR('',#1039,10.);
#290=VECTOR('',#1040,10.);
#291=VECTOR('',#1041,10.);
#292=VECTOR('',#1044,10.);
#293=VECTOR('',#1045,10.);
#294=VECTOR('',#1048,10.);
#295=VECTOR('',#1049,10.);
#296=VECTOR('',#1052,10.);
#297=VECTOR('',#1053,10.);
#298=VECTOR('',#1056,10.);
#299=VECTOR('',#1057,10.);
#300=VECTOR('',#1060,10.);
#301=VECTOR('',#1065,10.);
#302=VECTOR('',#1066,10.);
#303=VECTOR('',#1067,10.);
#304=VECTOR('',#1070,10.);
#305=VECTOR('',#1071,10.);
#306=VECTOR('',#1074,10.);
#307=VECTOR('',#1075,10.);
#308=VECTOR('',#1078,10.);
#309=VECTOR('',#1079,10.);
#310=VECTOR('',#1082,10.);
#311=VECTOR('',#1083,10.);
#312=VECTOR('',#1086,10.);
#313=B_SPLINE_CURVE_WITH_KNOTS('',3,(#1093,#1094,#1095,#1096,#1097,#1098,
#1099,#1100,#1101,#1102,#1103,#1104),.UNSPECIFIED.,.F.,.F.,(4,2,2,2,2,4),
(0.259591693105638,0.283609410906908,0.307627128708178,0.328315966162653,
0.338660384889891,0.349004803617128),.UNSPECIFIED.);
#314=B_SPLINE_CURVE_WITH_KNOTS('',3,(#1108,#1109,#1110,#1111,#1112,#1113,
#1114,#1115,#1116,#1117,#1118,#1119),.UNSPECIFIED.,.F.,.F.,(4,2,2,2,2,4),
(0.349004803617129,0.359349222344366,0.369693641071604,0.390382478526079,
0.414400196327349,0.438417914128619),.UNSPECIFIED.);
#315=B_SPLINE_CURVE_WITH_KNOTS('',3,(#1155,#1156,#1157,#1158,#1159,#1160),
 .UNSPECIFIED.,.F.,.F.,(4,2,4),(0.26011181669067,0.267005081150302,0.282047896579881),
 .UNSPECIFIED.);
#316=B_SPLINE_CURVE_WITH_KNOTS('',3,(#1162,#1163,#1164,#1165,#1166,#1167,
#1168,#1169,#1170,#1171,#1172,#1173,#1174,#1175,#1176,#1177,#1178),
 .UNSPECIFIED.,.F.,.F.,(4,2,2,2,2,2,3,4),(0.46704337170154,0.510719115042583,
0.552986230260418,0.595253345478253,0.637520460696088,0.679787575913922,
0.6975231467195,0.706705221749329),.UNSPECIFIED.);
#317=B_SPLINE_CURVE_WITH_KNOTS('',3,(#1180,#1181,#1182,#1183,#1184,#1185,
#1186,#1187,#1188,#1189,#1190,#1191,#1192),.UNSPECIFIED.,.F.,.F.,(4,2,3,
2,2,4),(0.275100899609421,0.277997100829579,0.285524195729048,0.293883188241066,
0.302242180753085,0.311089438047596),.UNSPECIFIED.);
#318=B_SPLINE_CURVE_WITH_KNOTS('',3,(#1196,#1197,#1198,#1199,#1200,#1201,
#1202,#1203,#1204,#1205,#1206,#1207,#1208,#1209,#1210),.UNSPECIFIED.,.F.,
 .F.,(4,3,2,2,2,2,4),(-0.0409217238822972,0.,0.0493749650825618,0.0987499301651235,
0.151020897732296,0.254582158300425,0.370382539667081),.UNSPECIFIED.);
#319=B_SPLINE_CURVE_WITH_KNOTS('',3,(#1222,#1223,#1224,#1225,#1226,#1227,
#1228,#1229,#1230,#1231,#1232,#1233,#1234,#1235),.UNSPECIFIED.,.F.,.F.,
(4,2,2,2,2,2,4),(0.692187809512893,0.807988190879551,0.911549451447681,
0.963820419014852,1.01319538409741,1.06257034917998,1.10349207269371),
 .UNSPECIFIED.);
#320=B_SPLINE_CURVE_WITH_KNOTS('',3,(#1239,#1240,#1241,#1242,#1243,#1244,
#1245,#1246,#1247,#1248,#1249,#1250),.UNSPECIFIED.,.F.,.F.,(4,2,2,2,2,4),
(0.117342874560414,0.127664015176388,0.135191110075857,0.142718204975325,
0.150245299874794,0.153141501094953),.UNSPECIFIED.);
#321=B_SPLINE_CURVE_WITH_KNOTS('',3,(#1252,#1253,#1254,#1255,#1256,#1257,
#1258,#1259,#1260,#1261,#1262,#1263,#1264,#1265,#1266),.UNSPECIFIED.,.F.,
 .F.,(4,2,2,2,2,3,4),(1.02439726443447,1.03175417880732,1.091282273427,
1.15081036804668,1.21033846266636,1.25075509536635,1.25995864896127),
 .UNSPECIFIED.);
#322=B_SPLINE_CURVE_WITH_KNOTS('',3,(#1268,#1269,#1270,#1271,#1272,#1273),
 .UNSPECIFIED.,.F.,.F.,(4,2,4),(0.140980069519939,0.156022884949518,0.162916150852883),
 .UNSPECIFIED.);
#323=B_SPLINE_CURVE_WITH_KNOTS('',3,(#1276,#1277,#1278,#1279,#1280,#1281,
#1282,#1283,#1284,#1285),.UNSPECIFIED.,.F.,.F.,(4,2,2,2,4),(0.259579096430366,
0.285394110501365,0.311209124572365,0.33005614204555,0.348903159518735),
 .UNSPECIFIED.);
#324=B_SPLINE_CURVE_WITH_KNOTS('',3,(#1289,#1290,#1291,#1292,#1293,#1294),
 .UNSPECIFIED.,.F.,.F.,(4,2,4),(0.282047896579881,0.29709071200946,0.303983977912825),
 .UNSPECIFIED.);
#325=B_SPLINE_CURVE_WITH_KNOTS('',3,(#1299,#1300,#1301,#1302,#1303,#1304,
#1305,#1306,#1307,#1308,#1309,#1310,#1311,#1312,#1313),.UNSPECIFIED.,.F.,
 .F.,(4,2,2,2,2,3,4),(1.02439726452757,1.03175417880733,1.09128227342701,
1.15081036804669,1.21033846266637,1.25075509536693,1.25995864896128),
 .UNSPECIFIED.);
#326=B_SPLINE_CURVE_WITH_KNOTS('',3,(#1320,#1321,#1322,#1323,#1324,#1325),
 .UNSPECIFIED.,.F.,.F.,(4,2,4),(0.119043988186994,0.12593725409036,0.140980069519939),
 .UNSPECIFIED.);
#327=B_SPLINE_CURVE_WITH_KNOTS('',3,(#1333,#1334,#1335,#1336,#1337,#1338,
#1339,#1340,#1341,#1342),.UNSPECIFIED.,.F.,.F.,(4,2,2,2,4),(0.348903159518735,
0.36775017699192,0.386597194465105,0.412412208536105,0.438227222607104),
 .UNSPECIFIED.);
#328=B_SPLINE_CURVE_WITH_KNOTS('',3,(#1344,#1345,#1346,#1347,#1348,#1349,
#1350,#1351,#1352,#1353,#1354,#1355,#1356,#1357,#1358,#1359),
 .UNSPECIFIED.,.F.,.F.,(4,3,2,3,2,2,4),(2.19247245517877,2.20167600877369,
2.24209264147368,2.30162073609336,2.36114883071304,2.42067692533272,2.42803383970562),
 .UNSPECIFIED.);
#329=B_SPLINE_CURVE_WITH_KNOTS('',3,(#1361,#1362,#1363,#1364,#1365,#1366,
#1367,#1368,#1369,#1370,#1371,#1372),.UNSPECIFIED.,.F.,.F.,(4,2,2,2,2,4),
(0.132294908855699,0.135191110075857,0.142718204975326,0.150245299874794,
0.157772394774263,0.168093535390237),.UNSPECIFIED.);
#330=B_SPLINE_CURVE_WITH_KNOTS('',3,(#1376,#1377,#1378,#1379,#1380,#1381,
#1382,#1383,#1384,#1385,#1386,#1387,#1388,#1389,#1390),.UNSPECIFIED.,.F.,
 .F.,(4,3,2,2,2,2,4),(-0.0409217238822967,0.,0.0493749650825621,0.0987499301651243,
0.151020897732295,0.254582158300425,0.370382539667082),.UNSPECIFIED.);
#331=B_SPLINE_CURVE_WITH_KNOTS('',3,(#1402,#1403,#1404,#1405,#1406,#1407,
#1408,#1409,#1410,#1411,#1412,#1413,#1414,#1415),.UNSPECIFIED.,.F.,.F.,
(4,2,2,2,2,2,4),(0.692187809512899,0.807988190879555,0.911549451447684,
0.963820419014857,1.01319538409742,1.06257034917998,1.10349207269372),
 .UNSPECIFIED.);
#332=B_SPLINE_CURVE_WITH_KNOTS('',3,(#1418,#1419,#1420,#1421,#1422,#1423,
#1424,#1425,#1426,#1427,#1428,#1429,#1430),.UNSPECIFIED.,.F.,.F.,(4,2,2,
3,2,4),(0.259958953410498,0.26880621070501,0.277165203217029,0.285524195729048,
0.293051290628516,0.295947491848674),.UNSPECIFIED.);
#333=VERTEX_POINT('',#1091);
#334=VERTEX_POINT('',#1092);
#335=VERTEX_POINT('',#1105);
#336=VERTEX_POINT('',#1107);
#337=VERTEX_POINT('',#1122);
#338=VERTEX_POINT('',#1124);
#339=VERTEX_POINT('',#1127);
#340=VERTEX_POINT('',#1128);
#341=VERTEX_POINT('',#1130);
#342=VERTEX_POINT('',#1132);
#343=VERTEX_POINT('',#1134);
#344=VERTEX_POINT('',#1136);
#345=VERTEX_POINT('',#1139);
#346=VERTEX_POINT('',#1140);
#347=VERTEX_POINT('',#1142);
#348=VERTEX_POINT('',#1144);
#349=VERTEX_POINT('',#1146);
#350=VERTEX_POINT('',#1148);
#351=VERTEX_POINT('',#1152);
#352=VERTEX_POINT('',#1154);
#353=VERTEX_POINT('',#1161);
#354=VERTEX_POINT('',#1179);
#355=VERTEX_POINT('',#1193);
#356=VERTEX_POINT('',#1195);
#357=VERTEX_POINT('',#1211);
#358=VERTEX_POINT('',#1213);
#359=VERTEX_POINT('',#1215);
#360=VERTEX_POINT('',#1217);
#361=VERTEX_POINT('',#1219);
#362=VERTEX_POINT('',#1221);
#363=VERTEX_POINT('',#1236);
#364=VERTEX_POINT('',#1238);
#365=VERTEX_POINT('',#1251);
#366=VERTEX_POINT('',#1267);
#367=VERTEX_POINT('',#1274);
#368=VERTEX_POINT('',#1287);
#369=VERTEX_POINT('',#1288);
#370=VERTEX_POINT('',#1298);
#371=VERTEX_POINT('',#1318);
#372=VERTEX_POINT('',#1319);
#373=VERTEX_POINT('',#1329);
#374=VERTEX_POINT('',#1343);
#375=VERTEX_POINT('',#1360);
#376=VERTEX_POINT('',#1373);
#377=VERTEX_POINT('',#1375);
#378=VERTEX_POINT('',#1391);
#379=VERTEX_POINT('',#1393);
#380=VERTEX_POINT('',#1395);
#381=VERTEX_POINT('',#1397);
#382=VERTEX_POINT('',#1399);
#383=VERTEX_POINT('',#1401);
#384=VERTEX_POINT('',#1416);
#385=VERTEX_POINT('',#1443);
#386=VERTEX_POINT('',#1445);
#387=VERTEX_POINT('',#1449);
#388=VERTEX_POINT('',#1450);
#389=VERTEX_POINT('',#1452);
#390=VERTEX_POINT('',#1454);
#391=VERTEX_POINT('',#1457);
#392=VERTEX_POINT('',#1460);
#393=VERTEX_POINT('',#1464);
#394=VERTEX_POINT('',#1468);
#395=VERTEX_POINT('',#1492);
#396=VERTEX_POINT('',#1494);
#397=VERTEX_POINT('',#1498);
#398=VERTEX_POINT('',#1502);
#399=VERTEX_POINT('',#1506);
#400=VERTEX_POINT('',#1510);
#401=VERTEX_POINT('',#1517);
#402=VERTEX_POINT('',#1519);
#403=VERTEX_POINT('',#1523);
#404=VERTEX_POINT('',#1527);
#405=VERTEX_POINT('',#1531);
#406=VERTEX_POINT('',#1535);
#407=EDGE_CURVE('',#333,#334,#313,.T.);
#408=EDGE_CURVE('',#334,#335,#165,.T.);
#409=EDGE_CURVE('',#335,#336,#314,.T.);
#410=EDGE_CURVE('',#336,#333,#166,.T.);
#411=EDGE_CURVE('',#337,#336,#29,.T.);
#412=EDGE_CURVE('',#338,#337,#167,.T.);
#413=EDGE_CURVE('',#333,#338,#30,.T.);
#414=EDGE_CURVE('',#339,#340,#168,.T.);
#415=EDGE_CURVE('',#340,#341,#169,.T.);
#416=EDGE_CURVE('',#341,#342,#170,.T.);
#417=EDGE_CURVE('',#342,#343,#171,.T.);
#418=EDGE_CURVE('',#343,#344,#172,.T.);
#419=EDGE_CURVE('',#344,#339,#173,.T.);
#420=EDGE_CURVE('',#345,#346,#174,.T.);
#421=EDGE_CURVE('',#346,#347,#175,.T.);
#422=EDGE_CURVE('',#347,#348,#176,.T.);
#423=EDGE_CURVE('',#348,#349,#177,.T.);
#424=EDGE_CURVE('',#349,#350,#178,.T.);
#425=EDGE_CURVE('',#350,#345,#179,.T.);
#426=EDGE_CURVE('',#335,#351,#180,.T.);
#427=EDGE_CURVE('',#352,#351,#315,.T.);
#428=EDGE_CURVE('',#352,#353,#316,.F.);
#429=EDGE_CURVE('',#354,#353,#317,.T.);
#430=EDGE_CURVE('',#354,#355,#19,.T.);
#431=EDGE_CURVE('',#355,#356,#318,.T.);
#432=EDGE_CURVE('',#356,#357,#31,.T.);
#433=EDGE_CURVE('',#357,#358,#181,.T.);
#434=EDGE_CURVE('',#359,#358,#32,.T.);
#435=EDGE_CURVE('',#359,#360,#182,.T.);
#436=EDGE_CURVE('',#360,#361,#33,.T.);
#437=EDGE_CURVE('',#361,#362,#319,.T.);
#438=EDGE_CURVE('',#362,#363,#20,.T.);
#439=EDGE_CURVE('',#364,#363,#320,.T.);
#440=EDGE_CURVE('',#364,#365,#321,.T.);
#441=EDGE_CURVE('',#366,#365,#322,.T.);
#442=EDGE_CURVE('',#366,#367,#183,.T.);
#443=EDGE_CURVE('',#337,#367,#323,.T.);
#444=EDGE_CURVE('',#368,#369,#324,.T.);
#445=EDGE_CURVE('',#369,#352,#184,.T.);
#446=EDGE_CURVE('',#351,#368,#185,.T.);
#447=EDGE_CURVE('',#370,#369,#325,.T.);
#448=EDGE_CURVE('',#353,#370,#186,.T.);
#449=EDGE_CURVE('',#368,#334,#187,.T.);
#450=EDGE_CURVE('',#371,#372,#326,.T.);
#451=EDGE_CURVE('',#372,#366,#188,.T.);
#452=EDGE_CURVE('',#365,#371,#189,.T.);
#453=EDGE_CURVE('',#373,#372,#190,.T.);
#454=EDGE_CURVE('',#367,#373,#191,.T.);
#455=EDGE_CURVE('',#373,#338,#327,.T.);
#456=EDGE_CURVE('',#371,#374,#328,.T.);
#457=EDGE_CURVE('',#375,#374,#329,.T.);
#458=EDGE_CURVE('',#375,#376,#21,.T.);
#459=EDGE_CURVE('',#376,#377,#330,.T.);
#460=EDGE_CURVE('',#377,#378,#34,.T.);
#461=EDGE_CURVE('',#378,#379,#192,.T.);
#462=EDGE_CURVE('',#380,#379,#35,.T.);
#463=EDGE_CURVE('',#380,#381,#193,.T.);
#464=EDGE_CURVE('',#381,#382,#36,.T.);
#465=EDGE_CURVE('',#382,#383,#331,.T.);
#466=EDGE_CURVE('',#383,#384,#22,.T.);
#467=EDGE_CURVE('',#370,#384,#332,.T.);
#468=EDGE_CURVE('',#374,#364,#194,.T.);
#469=EDGE_CURVE('',#384,#354,#195,.T.);
#470=EDGE_CURVE('',#355,#383,#196,.T.);
#471=EDGE_CURVE('',#363,#375,#197,.T.);
#472=EDGE_CURVE('',#376,#362,#198,.T.);
#473=EDGE_CURVE('',#385,#385,#37,.T.);
#474=EDGE_CURVE('',#385,#386,#199,.T.);
#475=EDGE_CURVE('',#386,#386,#38,.T.);
#476=EDGE_CURVE('',#387,#388,#200,.T.);
#477=EDGE_CURVE('',#389,#387,#39,.T.);
#478=EDGE_CURVE('',#390,#389,#201,.T.);
#479=EDGE_CURVE('',#388,#390,#40,.T.);
#480=EDGE_CURVE('',#391,#391,#41,.T.);
#481=EDGE_CURVE('',#385,#392,#202,.T.);
#482=EDGE_CURVE('',#392,#392,#42,.T.);
#483=EDGE_CURVE('',#393,#393,#43,.T.);
#484=EDGE_CURVE('',#393,#391,#203,.T.);
#485=EDGE_CURVE('',#393,#394,#204,.T.);
#486=EDGE_CURVE('',#394,#394,#44,.T.);
#487=EDGE_CURVE('',#388,#379,#205,.T.);
#488=EDGE_CURVE('',#379,#359,#206,.T.);
#489=EDGE_CURVE('',#359,#387,#207,.T.);
#490=EDGE_CURVE('',#390,#380,#208,.T.);
#491=EDGE_CURVE('',#389,#358,#209,.T.);
#492=EDGE_CURVE('',#358,#380,#210,.T.);
#493=EDGE_CURVE('',#360,#378,#211,.T.);
#494=EDGE_CURVE('',#361,#377,#212,.T.);
#495=EDGE_CURVE('',#382,#356,#213,.T.);
#496=EDGE_CURVE('',#381,#357,#214,.T.);
#497=EDGE_CURVE('',#345,#395,#215,.T.);
#498=EDGE_CURVE('',#395,#396,#216,.T.);
#499=EDGE_CURVE('',#346,#396,#217,.T.);
#500=EDGE_CURVE('',#350,#397,#218,.T.);
#501=EDGE_CURVE('',#397,#395,#219,.T.);
#502=EDGE_CURVE('',#349,#398,#220,.T.);
#503=EDGE_CURVE('',#398,#397,#221,.T.);
#504=EDGE_CURVE('',#348,#399,#222,.T.);
#505=EDGE_CURVE('',#399,#398,#223,.T.);
#506=EDGE_CURVE('',#347,#400,#224,.T.);
#507=EDGE_CURVE('',#400,#399,#225,.T.);
#508=EDGE_CURVE('',#396,#400,#226,.T.);
#509=EDGE_CURVE('',#339,#401,#227,.T.);
#510=EDGE_CURVE('',#401,#402,#228,.T.);
#511=EDGE_CURVE('',#340,#402,#229,.T.);
#512=EDGE_CURVE('',#344,#403,#230,.T.);
#513=EDGE_CURVE('',#403,#401,#231,.T.);
#514=EDGE_CURVE('',#343,#404,#232,.T.);
#515=EDGE_CURVE('',#404,#403,#233,.T.);
#516=EDGE_CURVE('',#342,#405,#234,.T.);
#517=EDGE_CURVE('',#405,#404,#235,.T.);
#518=EDGE_CURVE('',#341,#406,#236,.T.);
#519=EDGE_CURVE('',#406,#405,#237,.T.);
#520=EDGE_CURVE('',#402,#406,#238,.T.);
#521=ORIENTED_EDGE('',*,*,#407,.T.);
#522=ORIENTED_EDGE('',*,*,#408,.T.);
#523=ORIENTED_EDGE('',*,*,#409,.T.);
#524=ORIENTED_EDGE('',*,*,#410,.T.);
#525=ORIENTED_EDGE('',*,*,#410,.F.);
#526=ORIENTED_EDGE('',*,*,#411,.F.);
#527=ORIENTED_EDGE('',*,*,#412,.F.);
#528=ORIENTED_EDGE('',*,*,#413,.F.);
#529=ORIENTED_EDGE('',*,*,#414,.T.);
#530=ORIENTED_EDGE('',*,*,#415,.T.);
#531=ORIENTED_EDGE('',*,*,#416,.T.);
#532=ORIENTED_EDGE('',*,*,#417,.T.);
#533=ORIENTED_EDGE('',*,*,#418,.T.);
#534=ORIENTED_EDGE('',*,*,#419,.T.);
#535=ORIENTED_EDGE('',*,*,#420,.T.);
#536=ORIENTED_EDGE('',*,*,#421,.T.);
#537=ORIENTED_EDGE('',*,*,#422,.T.);
#538=ORIENTED_EDGE('',*,*,#423,.T.);
#539=ORIENTED_EDGE('',*,*,#424,.T.);
#540=ORIENTED_EDGE('',*,*,#425,.T.);
#541=ORIENTED_EDGE('',*,*,#409,.F.);
#542=ORIENTED_EDGE('',*,*,#426,.T.);
#543=ORIENTED_EDGE('',*,*,#427,.F.);
#544=ORIENTED_EDGE('',*,*,#428,.T.);
#545=ORIENTED_EDGE('',*,*,#429,.F.);
#546=ORIENTED_EDGE('',*,*,#430,.T.);
#547=ORIENTED_EDGE('',*,*,#431,.T.);
#548=ORIENTED_EDGE('',*,*,#432,.T.);
#549=ORIENTED_EDGE('',*,*,#433,.T.);
#550=ORIENTED_EDGE('',*,*,#434,.F.);
#551=ORIENTED_EDGE('',*,*,#435,.T.);
#552=ORIENTED_EDGE('',*,*,#436,.T.);
#553=ORIENTED_EDGE('',*,*,#437,.T.);
#554=ORIENTED_EDGE('',*,*,#438,.T.);
#555=ORIENTED_EDGE('',*,*,#439,.F.);
#556=ORIENTED_EDGE('',*,*,#440,.T.);
#557=ORIENTED_EDGE('',*,*,#441,.F.);
#558=ORIENTED_EDGE('',*,*,#442,.T.);
#559=ORIENTED_EDGE('',*,*,#443,.F.);
#560=ORIENTED_EDGE('',*,*,#411,.T.);
#561=ORIENTED_EDGE('',*,*,#444,.T.);
#562=ORIENTED_EDGE('',*,*,#445,.T.);
#563=ORIENTED_EDGE('',*,*,#427,.T.);
#564=ORIENTED_EDGE('',*,*,#446,.T.);
#565=ORIENTED_EDGE('',*,*,#445,.F.);
#566=ORIENTED_EDGE('',*,*,#447,.F.);
#567=ORIENTED_EDGE('',*,*,#448,.F.);
#568=ORIENTED_EDGE('',*,*,#428,.F.);
#569=ORIENTED_EDGE('',*,*,#408,.F.);
#570=ORIENTED_EDGE('',*,*,#449,.F.);
#571=ORIENTED_EDGE('',*,*,#446,.F.);
#572=ORIENTED_EDGE('',*,*,#426,.F.);
#573=ORIENTED_EDGE('',*,*,#450,.T.);
#574=ORIENTED_EDGE('',*,*,#451,.T.);
#575=ORIENTED_EDGE('',*,*,#441,.T.);
#576=ORIENTED_EDGE('',*,*,#452,.T.);
#577=ORIENTED_EDGE('',*,*,#451,.F.);
#578=ORIENTED_EDGE('',*,*,#453,.F.);
#579=ORIENTED_EDGE('',*,*,#454,.F.);
#580=ORIENTED_EDGE('',*,*,#442,.F.);
#581=ORIENTED_EDGE('',*,*,#407,.F.);
#582=ORIENTED_EDGE('',*,*,#413,.T.);
#583=ORIENTED_EDGE('',*,*,#455,.F.);
#584=ORIENTED_EDGE('',*,*,#453,.T.);
#585=ORIENTED_EDGE('',*,*,#450,.F.);
#586=ORIENTED_EDGE('',*,*,#456,.T.);
#587=ORIENTED_EDGE('',*,*,#457,.F.);
#588=ORIENTED_EDGE('',*,*,#458,.T.);
#589=ORIENTED_EDGE('',*,*,#459,.T.);
#590=ORIENTED_EDGE('',*,*,#460,.T.);
#591=ORIENTED_EDGE('',*,*,#461,.T.);
#592=ORIENTED_EDGE('',*,*,#462,.F.);
#593=ORIENTED_EDGE('',*,*,#463,.T.);
#594=ORIENTED_EDGE('',*,*,#464,.T.);
#595=ORIENTED_EDGE('',*,*,#465,.T.);
#596=ORIENTED_EDGE('',*,*,#466,.T.);
#597=ORIENTED_EDGE('',*,*,#467,.F.);
#598=ORIENTED_EDGE('',*,*,#447,.T.);
#599=ORIENTED_EDGE('',*,*,#444,.F.);
#600=ORIENTED_EDGE('',*,*,#449,.T.);
#601=ORIENTED_EDGE('',*,*,#443,.T.);
#602=ORIENTED_EDGE('',*,*,#454,.T.);
#603=ORIENTED_EDGE('',*,*,#455,.T.);
#604=ORIENTED_EDGE('',*,*,#412,.T.);
#605=ORIENTED_EDGE('',*,*,#452,.F.);
#606=ORIENTED_EDGE('',*,*,#440,.F.);
#607=ORIENTED_EDGE('',*,*,#468,.F.);
#608=ORIENTED_EDGE('',*,*,#456,.F.);
#609=ORIENTED_EDGE('',*,*,#467,.T.);
#610=ORIENTED_EDGE('',*,*,#469,.T.);
#611=ORIENTED_EDGE('',*,*,#429,.T.);
#612=ORIENTED_EDGE('',*,*,#448,.T.);
#613=ORIENTED_EDGE('',*,*,#469,.F.);
#614=ORIENTED_EDGE('',*,*,#466,.F.);
#615=ORIENTED_EDGE('',*,*,#470,.F.);
#616=ORIENTED_EDGE('',*,*,#430,.F.);
#617=ORIENTED_EDGE('',*,*,#457,.T.);
#618=ORIENTED_EDGE('',*,*,#468,.T.);
#619=ORIENTED_EDGE('',*,*,#439,.T.);
#620=ORIENTED_EDGE('',*,*,#471,.T.);
#621=ORIENTED_EDGE('',*,*,#471,.F.);
#622=ORIENTED_EDGE('',*,*,#438,.F.);
#623=ORIENTED_EDGE('',*,*,#472,.F.);
#624=ORIENTED_EDGE('',*,*,#458,.F.);
#625=ORIENTED_EDGE('',*,*,#473,.T.);
#626=ORIENTED_EDGE('',*,*,#474,.T.);
#627=ORIENTED_EDGE('',*,*,#475,.T.);
#628=ORIENTED_EDGE('',*,*,#474,.F.);
#629=ORIENTED_EDGE('',*,*,#476,.F.);
#630=ORIENTED_EDGE('',*,*,#477,.F.);
#631=ORIENTED_EDGE('',*,*,#478,.F.);
#632=ORIENTED_EDGE('',*,*,#479,.F.);
#633=ORIENTED_EDGE('',*,*,#480,.F.);
#634=ORIENTED_EDGE('',*,*,#475,.F.);
#635=ORIENTED_EDGE('',*,*,#473,.F.);
#636=ORIENTED_EDGE('',*,*,#481,.T.);
#637=ORIENTED_EDGE('',*,*,#482,.T.);
#638=ORIENTED_EDGE('',*,*,#481,.F.);
#639=ORIENTED_EDGE('',*,*,#483,.T.);
#640=ORIENTED_EDGE('',*,*,#484,.T.);
#641=ORIENTED_EDGE('',*,*,#480,.T.);
#642=ORIENTED_EDGE('',*,*,#484,.F.);
#643=ORIENTED_EDGE('',*,*,#483,.F.);
#644=ORIENTED_EDGE('',*,*,#485,.T.);
#645=ORIENTED_EDGE('',*,*,#486,.T.);
#646=ORIENTED_EDGE('',*,*,#485,.F.);
#647=ORIENTED_EDGE('',*,*,#487,.T.);
#648=ORIENTED_EDGE('',*,*,#488,.T.);
#649=ORIENTED_EDGE('',*,*,#489,.T.);
#650=ORIENTED_EDGE('',*,*,#476,.T.);
#651=ORIENTED_EDGE('',*,*,#490,.T.);
#652=ORIENTED_EDGE('',*,*,#462,.T.);
#653=ORIENTED_EDGE('',*,*,#487,.F.);
#654=ORIENTED_EDGE('',*,*,#479,.T.);
#655=ORIENTED_EDGE('',*,*,#491,.T.);
#656=ORIENTED_EDGE('',*,*,#492,.T.);
#657=ORIENTED_EDGE('',*,*,#490,.F.);
#658=ORIENTED_EDGE('',*,*,#478,.T.);
#659=ORIENTED_EDGE('',*,*,#489,.F.);
#660=ORIENTED_EDGE('',*,*,#434,.T.);
#661=ORIENTED_EDGE('',*,*,#491,.F.);
#662=ORIENTED_EDGE('',*,*,#477,.T.);
#663=ORIENTED_EDGE('',*,*,#488,.F.);
#664=ORIENTED_EDGE('',*,*,#461,.F.);
#665=ORIENTED_EDGE('',*,*,#493,.F.);
#666=ORIENTED_EDGE('',*,*,#435,.F.);
#667=ORIENTED_EDGE('',*,*,#459,.F.);
#668=ORIENTED_EDGE('',*,*,#472,.T.);
#669=ORIENTED_EDGE('',*,*,#437,.F.);
#670=ORIENTED_EDGE('',*,*,#494,.T.);
#671=ORIENTED_EDGE('',*,*,#465,.F.);
#672=ORIENTED_EDGE('',*,*,#495,.T.);
#673=ORIENTED_EDGE('',*,*,#431,.F.);
#674=ORIENTED_EDGE('',*,*,#470,.T.);
#675=ORIENTED_EDGE('',*,*,#464,.F.);
#676=ORIENTED_EDGE('',*,*,#496,.T.);
#677=ORIENTED_EDGE('',*,*,#432,.F.);
#678=ORIENTED_EDGE('',*,*,#495,.F.);
#679=ORIENTED_EDGE('',*,*,#492,.F.);
#680=ORIENTED_EDGE('',*,*,#433,.F.);
#681=ORIENTED_EDGE('',*,*,#496,.F.);
#682=ORIENTED_EDGE('',*,*,#463,.F.);
#683=ORIENTED_EDGE('',*,*,#460,.F.);
#684=ORIENTED_EDGE('',*,*,#494,.F.);
#685=ORIENTED_EDGE('',*,*,#436,.F.);
#686=ORIENTED_EDGE('',*,*,#493,.T.);
#687=ORIENTED_EDGE('',*,*,#420,.F.);
#688=ORIENTED_EDGE('',*,*,#497,.T.);
#689=ORIENTED_EDGE('',*,*,#498,.T.);
#690=ORIENTED_EDGE('',*,*,#499,.F.);
#691=ORIENTED_EDGE('',*,*,#425,.F.);
#692=ORIENTED_EDGE('',*,*,#500,.T.);
#693=ORIENTED_EDGE('',*,*,#501,.T.);
#694=ORIENTED_EDGE('',*,*,#497,.F.);
#695=ORIENTED_EDGE('',*,*,#424,.F.);
#696=ORIENTED_EDGE('',*,*,#502,.T.);
#697=ORIENTED_EDGE('',*,*,#503,.T.);
#698=ORIENTED_EDGE('',*,*,#500,.F.);
#699=ORIENTED_EDGE('',*,*,#423,.F.);
#700=ORIENTED_EDGE('',*,*,#504,.T.);
#701=ORIENTED_EDGE('',*,*,#505,.T.);
#702=ORIENTED_EDGE('',*,*,#502,.F.);
#703=ORIENTED_EDGE('',*,*,#422,.F.);
#704=ORIENTED_EDGE('',*,*,#506,.T.);
#705=ORIENTED_EDGE('',*,*,#507,.T.);
#706=ORIENTED_EDGE('',*,*,#504,.F.);
#707=ORIENTED_EDGE('',*,*,#421,.F.);
#708=ORIENTED_EDGE('',*,*,#499,.T.);
#709=ORIENTED_EDGE('',*,*,#508,.T.);
#710=ORIENTED_EDGE('',*,*,#506,.F.);
#711=ORIENTED_EDGE('',*,*,#508,.F.);
#712=ORIENTED_EDGE('',*,*,#498,.F.);
#713=ORIENTED_EDGE('',*,*,#501,.F.);
#714=ORIENTED_EDGE('',*,*,#503,.F.);
#715=ORIENTED_EDGE('',*,*,#505,.F.);
#716=ORIENTED_EDGE('',*,*,#507,.F.);
#717=ORIENTED_EDGE('',*,*,#486,.F.);
#718=ORIENTED_EDGE('',*,*,#414,.F.);
#719=ORIENTED_EDGE('',*,*,#509,.T.);
#720=ORIENTED_EDGE('',*,*,#510,.T.);
#721=ORIENTED_EDGE('',*,*,#511,.F.);
#722=ORIENTED_EDGE('',*,*,#419,.F.);
#723=ORIENTED_EDGE('',*,*,#512,.T.);
#724=ORIENTED_EDGE('',*,*,#513,.T.);
#725=ORIENTED_EDGE('',*,*,#509,.F.);
#726=ORIENTED_EDGE('',*,*,#418,.F.);
#727=ORIENTED_EDGE('',*,*,#514,.T.);
#728=ORIENTED_EDGE('',*,*,#515,.T.);
#729=ORIENTED_EDGE('',*,*,#512,.F.);
#730=ORIENTED_EDGE('',*,*,#417,.F.);
#731=ORIENTED_EDGE('',*,*,#516,.T.);
#732=ORIENTED_EDGE('',*,*,#517,.T.);
#733=ORIENTED_EDGE('',*,*,#514,.F.);
#734=ORIENTED_EDGE('',*,*,#416,.F.);
#735=ORIENTED_EDGE('',*,*,#518,.T.);
#736=ORIENTED_EDGE('',*,*,#519,.T.);
#737=ORIENTED_EDGE('',*,*,#516,.F.);
#738=ORIENTED_EDGE('',*,*,#415,.F.);
#739=ORIENTED_EDGE('',*,*,#511,.T.);
#740=ORIENTED_EDGE('',*,*,#520,.T.);
#741=ORIENTED_EDGE('',*,*,#518,.F.);
#742=ORIENTED_EDGE('',*,*,#520,.F.);
#743=ORIENTED_EDGE('',*,*,#510,.F.);
#744=ORIENTED_EDGE('',*,*,#513,.F.);
#745=ORIENTED_EDGE('',*,*,#515,.F.);
#746=ORIENTED_EDGE('',*,*,#517,.F.);
#747=ORIENTED_EDGE('',*,*,#519,.F.);
#748=ORIENTED_EDGE('',*,*,#482,.F.);
#749=CYLINDRICAL_SURFACE('',#821,0.5);
#750=CYLINDRICAL_SURFACE('',#825,6.);
#751=CYLINDRICAL_SURFACE('',#831,0.4);
#752=CYLINDRICAL_SURFACE('',#832,2.025);
#753=CYLINDRICAL_SURFACE('',#834,0.4);
#754=CYLINDRICAL_SURFACE('',#836,6.);
#755=CYLINDRICAL_SURFACE('',#842,0.5);
#756=CYLINDRICAL_SURFACE('',#843,2.025);
#757=CYLINDRICAL_SURFACE('',#844,0.4);
#758=CYLINDRICAL_SURFACE('',#846,0.4);
#759=CYLINDRICAL_SURFACE('',#855,1.65);
#760=CYLINDRICAL_SURFACE('',#859,1.65);
#761=CYLINDRICAL_SURFACE('',#866,1.6);
#762=CYLINDRICAL_SURFACE('',#867,1.6);
#763=ADVANCED_FACE('',(#71),#749,.T.);
#764=ADVANCED_FACE('',(#72,#23,#24),#45,.T.);
#765=ADVANCED_FACE('',(#73),#750,.T.);
#766=ADVANCED_FACE('',(#74),#751,.T.);
#767=ADVANCED_FACE('',(#75),#752,.F.);
#768=ADVANCED_FACE('',(#76),#46,.F.);
#769=ADVANCED_FACE('',(#77),#753,.T.);
#770=ADVANCED_FACE('',(#78),#47,.F.);
#771=ADVANCED_FACE('',(#79),#754,.T.);
#772=ADVANCED_FACE('',(#80),#755,.T.);
#773=ADVANCED_FACE('',(#81),#756,.F.);
#774=ADVANCED_FACE('',(#82),#757,.T.);
#775=ADVANCED_FACE('',(#83),#48,.T.);
#776=ADVANCED_FACE('',(#84),#758,.T.);
#777=ADVANCED_FACE('',(#85),#49,.T.);
#778=ADVANCED_FACE('',(#86),#15,.F.);
#779=ADVANCED_FACE('',(#87,#25,#26),#50,.T.);
#780=ADVANCED_FACE('',(#88),#759,.F.);
#781=ADVANCED_FACE('',(#89),#16,.F.);
#782=ADVANCED_FACE('',(#90),#760,.F.);
#783=ADVANCED_FACE('',(#91),#51,.T.);
#784=ADVANCED_FACE('',(#92),#17,.T.);
#785=ADVANCED_FACE('',(#93),#52,.T.);
#786=ADVANCED_FACE('',(#94),#18,.T.);
#787=ADVANCED_FACE('',(#95),#53,.T.);
#788=ADVANCED_FACE('',(#96),#761,.F.);
#789=ADVANCED_FACE('',(#97),#762,.F.);
#790=ADVANCED_FACE('',(#98),#54,.T.);
#791=ADVANCED_FACE('',(#99),#55,.T.);
#792=ADVANCED_FACE('',(#100),#56,.T.);
#793=ADVANCED_FACE('',(#101),#57,.F.);
#794=ADVANCED_FACE('',(#102),#58,.F.);
#795=ADVANCED_FACE('',(#103),#59,.F.);
#796=ADVANCED_FACE('',(#104),#60,.F.);
#797=ADVANCED_FACE('',(#105),#61,.F.);
#798=ADVANCED_FACE('',(#106),#62,.F.);
#799=ADVANCED_FACE('',(#107,#27),#63,.T.);
#800=ADVANCED_FACE('',(#108),#64,.F.);
#801=ADVANCED_FACE('',(#109),#65,.F.);
#802=ADVANCED_FACE('',(#110),#66,.F.);
#803=ADVANCED_FACE('',(#111),#67,.F.);
#804=ADVANCED_FACE('',(#112),#68,.F.);
#805=ADVANCED_FACE('',(#113),#69,.F.);
#806=ADVANCED_FACE('',(#114,#28),#70,.T.);
#807=CLOSED_SHELL('',(#763,#764,#765,#766,#767,#768,#769,#770,#771,#772,
#773,#774,#775,#776,#777,#778,#779,#780,#781,#782,#783,#784,#785,#786,#787,
#788,#789,#790,#791,#792,#793,#794,#795,#796,#797,#798,#799,#800,#801,#802,
#803,#804,#805,#806));
#808=DERIVED_UNIT_ELEMENT(#810,1.);
#809=DERIVED_UNIT_ELEMENT(#1546,-3.);
#810=(
MASS_UNIT()
NAMED_UNIT(*)
SI_UNIT(.KILO.,.GRAM.)
);
#811=DERIVED_UNIT((#808,#809));
#812=MEASURE_REPRESENTATION_ITEM('density measure',
POSITIVE_RATIO_MEASURE(7850.),#811);
#813=PROPERTY_DEFINITION_REPRESENTATION(#818,#815);
#814=PROPERTY_DEFINITION_REPRESENTATION(#819,#816);
#815=REPRESENTATION('material name',(#817),#1543);
#816=REPRESENTATION('density',(#812),#1543);
#817=DESCRIPTIVE_REPRESENTATION_ITEM('Steel','Steel');
#818=PROPERTY_DEFINITION('material property','material name',#1553);
#819=PROPERTY_DEFINITION('material property','density of part',#1553);
#820=AXIS2_PLACEMENT_3D('',#1089,#885,#886);
#821=AXIS2_PLACEMENT_3D('',#1090,#887,#888);
#822=AXIS2_PLACEMENT_3D('',#1121,#891,#892);
#823=AXIS2_PLACEMENT_3D('',#1123,#893,#894);
#824=AXIS2_PLACEMENT_3D('',#1126,#896,#897);
#825=AXIS2_PLACEMENT_3D('',#1151,#910,#911);
#826=AXIS2_PLACEMENT_3D('',#1194,#913,#914);
#827=AXIS2_PLACEMENT_3D('',#1212,#915,#916);
#828=AXIS2_PLACEMENT_3D('',#1216,#918,#919);
#829=AXIS2_PLACEMENT_3D('',#1220,#921,#922);
#830=AXIS2_PLACEMENT_3D('',#1237,#923,#924);
#831=AXIS2_PLACEMENT_3D('',#1286,#926,#927);
#832=AXIS2_PLACEMENT_3D('',#1297,#930,#931);
#833=AXIS2_PLACEMENT_3D('',#1315,#933,#934);
#834=AXIS2_PLACEMENT_3D('',#1317,#936,#937);
#835=AXIS2_PLACEMENT_3D('',#1328,#940,#941);
#836=AXIS2_PLACEMENT_3D('',#1332,#944,#945);
#837=AXIS2_PLACEMENT_3D('',#1374,#946,#947);
#838=AXIS2_PLACEMENT_3D('',#1392,#948,#949);
#839=AXIS2_PLACEMENT_3D('',#1396,#951,#952);
#840=AXIS2_PLACEMENT_3D('',#1400,#954,#955);
#841=AXIS2_PLACEMENT_3D('',#1417,#956,#957);
#842=AXIS2_PLACEMENT_3D('',#1431,#958,#959);
#843=AXIS2_PLACEMENT_3D('',#1432,#960,#961);
#844=AXIS2_PLACEMENT_3D('',#1434,#963,#964);
#845=AXIS2_PLACEMENT_3D('',#1436,#966,#967);
#846=AXIS2_PLACEMENT_3D('',#1438,#969,#970);
#847=AXIS2_PLACEMENT_3D('',#1440,#972,#973);
#848=AXIS2_PLACEMENT_3D('',#1442,#975,#976);
#849=AXIS2_PLACEMENT_3D('',#1444,#977,#978);
#850=AXIS2_PLACEMENT_3D('',#1447,#980,#981);
#851=AXIS2_PLACEMENT_3D('',#1448,#982,#983);
#852=AXIS2_PLACEMENT_3D('',#1453,#985,#986);
#853=AXIS2_PLACEMENT_3D('',#1456,#988,#989);
#854=AXIS2_PLACEMENT_3D('',#1458,#990,#991);
#855=AXIS2_PLACEMENT_3D('',#1459,#992,#993);
#856=AXIS2_PLACEMENT_3D('',#1462,#995,#996);
#857=AXIS2_PLACEMENT_3D('',#1463,#997,#998);
#858=AXIS2_PLACEMENT_3D('',#1465,#999,#1000);
#859=AXIS2_PLACEMENT_3D('',#1467,#1002,#1003);
#860=AXIS2_PLACEMENT_3D('',#1470,#1005,#1006);
#861=AXIS2_PLACEMENT_3D('',#1471,#1007,#1008);
#862=AXIS2_PLACEMENT_3D('',#1475,#1012,#1013);
#863=AXIS2_PLACEMENT_3D('',#1477,#1015,#1016);
#864=AXIS2_PLACEMENT_3D('',#1480,#1019,#1020);
#865=AXIS2_PLACEMENT_3D('',#1481,#1021,#1022);
#866=AXIS2_PLACEMENT_3D('',#1483,#1024,#1025);
#867=AXIS2_PLACEMENT_3D('',#1485,#1027,#1028);
#868=AXIS2_PLACEMENT_3D('',#1487,#1030,#1031);
#869=AXIS2_PLACEMENT_3D('',#1489,#1033,#1034);
#870=AXIS2_PLACEMENT_3D('',#1490,#1035,#1036);
#871=AXIS2_PLACEMENT_3D('',#1491,#1037,#1038);
#872=AXIS2_PLACEMENT_3D('',#1497,#1042,#1043);
#873=AXIS2_PLACEMENT_3D('',#1501,#1046,#1047);
#874=AXIS2_PLACEMENT_3D('',#1505,#1050,#1051);
#875=AXIS2_PLACEMENT_3D('',#1509,#1054,#1055);
#876=AXIS2_PLACEMENT_3D('',#1513,#1058,#1059);
#877=AXIS2_PLACEMENT_3D('',#1515,#1061,#1062);
#878=AXIS2_PLACEMENT_3D('',#1516,#1063,#1064);
#879=AXIS2_PLACEMENT_3D('',#1522,#1068,#1069);
#880=AXIS2_PLACEMENT_3D('',#1526,#1072,#1073);
#881=AXIS2_PLACEMENT_3D('',#1530,#1076,#1077);
#882=AXIS2_PLACEMENT_3D('',#1534,#1080,#1081);
#883=AXIS2_PLACEMENT_3D('',#1538,#1084,#1085);
#884=AXIS2_PLACEMENT_3D('',#1540,#1087,#1088);
#885=DIRECTION('axis',(0.,0.,1.));
#886=DIRECTION('refdir',(1.,0.,0.));
#887=DIRECTION('center_axis',(0.,1.,0.));
#888=DIRECTION('ref_axis',(0.707106781186553,0.,-0.707106781186543));
#889=DIRECTION('',(0.,-1.,0.));
#890=DIRECTION('',(0.,1.,0.));
#891=DIRECTION('center_axis',(-1.07237451242203E-16,0.,-1.));
#892=DIRECTION('ref_axis',(-1.,0.,1.07237451242203E-16));
#893=DIRECTION('center_axis',(1.07237451242203E-16,0.,1.));
#894=DIRECTION('ref_axis',(-0.707106781186547,-0.707106781186548,1.39452223873684E-31));
#895=DIRECTION('',(0.,-1.,0.));
#896=DIRECTION('center_axis',(1.07237451242203E-16,0.,1.));
#897=DIRECTION('ref_axis',(-0.707106781186547,0.707106781186548,1.39452223873684E-31));
#898=DIRECTION('',(0.866025403784439,0.5,-9.28703570128428E-17));
#899=DIRECTION('',(0.,1.,0.));
#900=DIRECTION('',(-0.866025403784439,0.5,9.28703570128428E-17));
#901=DIRECTION('',(-0.866025403784438,-0.500000000000001,9.28703570128427E-17));
#902=DIRECTION('',(0.,-1.,0.));
#903=DIRECTION('',(0.866025403784438,-0.500000000000001,-9.28703570128427E-17));
#904=DIRECTION('',(0.,1.,0.));
#905=DIRECTION('',(-0.866025403784439,0.5,9.28703570128428E-17));
#906=DIRECTION('',(-0.866025403784438,-0.5,9.28703570128428E-17));
#907=DIRECTION('',(-1.34944749921654E-15,-1.,1.44711310401146E-31));
#908=DIRECTION('',(0.866025403784439,-0.5,-9.28703570128428E-17));
#909=DIRECTION('',(0.866025403784439,0.5,-9.28703570128428E-17));
#910=DIRECTION('center_axis',(-1.97215226305253E-31,0.,-1.));
#911=DIRECTION('ref_axis',(0.707106781186547,-0.707106781186548,-1.39452223873684E-31));
#912=DIRECTION('',(1.97215226305253E-31,0.,1.));
#913=DIRECTION('center_axis',(-0.965925826289068,0.,-0.258819045102521));
#914=DIRECTION('ref_axis',(0.258819045102521,-2.39455719236929E-17,-0.965925826289068));
#915=DIRECTION('center_axis',(1.97215226305253E-31,0.,1.));
#916=DIRECTION('ref_axis',(0.707106781186547,-0.707106781186548,-1.39452223873684E-31));
#917=DIRECTION('',(1.97215226305253E-31,0.,1.));
#918=DIRECTION('center_axis',(1.97215226305253E-31,0.,1.));
#919=DIRECTION('ref_axis',(0.707106781186547,-0.707106781186548,-1.39452223873684E-31));
#920=DIRECTION('',(-1.97215226305253E-31,0.,-1.));
#921=DIRECTION('center_axis',(1.97215226305253E-31,0.,1.));
#922=DIRECTION('ref_axis',(-0.707106781186547,-0.707106781186548,1.39452223873684E-31));
#923=DIRECTION('center_axis',(0.965925826289068,0.,-0.25881904510252));
#924=DIRECTION('ref_axis',(-0.25881904510252,-2.39455719236929E-17,-0.965925826289068));
#925=DIRECTION('',(-1.97215226305253E-31,0.,-1.));
#926=DIRECTION('center_axis',(0.,1.,0.));
#927=DIRECTION('ref_axis',(0.963449069024228,0.,0.267891566489781));
#928=DIRECTION('',(0.,-1.,0.));
#929=DIRECTION('',(0.,1.,0.));
#930=DIRECTION('center_axis',(0.,1.,0.));
#931=DIRECTION('ref_axis',(-0.999294685057755,0.,0.0375517298579177));
#932=DIRECTION('',(0.,1.,0.));
#933=DIRECTION('center_axis',(-1.,0.,1.97215226305253E-31));
#934=DIRECTION('ref_axis',(1.97215226305253E-31,0.,1.));
#935=DIRECTION('',(-1.97215226305253E-31,0.,-1.));
#936=DIRECTION('center_axis',(0.,1.,0.));
#937=DIRECTION('ref_axis',(-0.963449069024229,0.,0.267891566489775));
#938=DIRECTION('',(0.,-1.,0.));
#939=DIRECTION('',(0.,1.,0.));
#940=DIRECTION('center_axis',(1.,0.,-1.97215226305253E-31));
#941=DIRECTION('ref_axis',(-1.97215226305253E-31,0.,-1.));
#942=DIRECTION('',(1.97215226305253E-31,0.,1.));
#943=DIRECTION('',(0.,1.,0.));
#944=DIRECTION('center_axis',(-1.97215226305253E-31,0.,-1.));
#945=DIRECTION('ref_axis',(0.707106781186547,0.707106781186547,-1.39452223873684E-31));
#946=DIRECTION('center_axis',(0.965925826289068,0.,-0.25881904510252));
#947=DIRECTION('ref_axis',(-0.25881904510252,-2.39455719236929E-17,-0.965925826289068));
#948=DIRECTION('center_axis',(1.97215226305253E-31,0.,1.));
#949=DIRECTION('ref_axis',(-0.707106781186547,0.707106781186548,1.39452223873684E-31));
#950=DIRECTION('',(1.97215226305253E-31,0.,1.));
#951=DIRECTION('center_axis',(1.97215226305253E-31,0.,1.));
#952=DIRECTION('ref_axis',(0.707106781186548,0.707106781186548,-1.39452223873684E-31));
#953=DIRECTION('',(-1.97215226305253E-31,0.,-1.));
#954=DIRECTION('center_axis',(1.97215226305253E-31,0.,1.));
#955=DIRECTION('ref_axis',(0.707106781186547,0.707106781186547,-1.39452223873684E-31));
#956=DIRECTION('center_axis',(-0.965925826289068,0.,-0.258819045102521));
#957=DIRECTION('ref_axis',(0.258819045102521,0.,-0.965925826289068));
#958=DIRECTION('center_axis',(0.,-1.,0.));
#959=DIRECTION('ref_axis',(-0.707106781186546,0.,-0.707106781186549));
#960=DIRECTION('center_axis',(0.,1.,0.));
#961=DIRECTION('ref_axis',(1.,0.,-1.97215226305253E-31));
#962=DIRECTION('',(0.,-1.,0.));
#963=DIRECTION('center_axis',(0.,1.,0.));
#964=DIRECTION('ref_axis',(0.984223711885951,0.,-0.176928474139805));
#965=DIRECTION('',(0.,-1.,0.));
#966=DIRECTION('center_axis',(0.965925826289068,0.,0.258819045102521));
#967=DIRECTION('ref_axis',(0.258819045102521,0.,-0.965925826289068));
#968=DIRECTION('',(0.,1.,0.));
#969=DIRECTION('center_axis',(0.,1.,0.));
#970=DIRECTION('ref_axis',(-0.984223711885952,0.,-0.176928474139804));
#971=DIRECTION('',(0.,1.,0.));
#972=DIRECTION('center_axis',(-0.965925826289068,0.,0.25881904510252));
#973=DIRECTION('ref_axis',(0.25881904510252,0.,0.965925826289068));
#974=DIRECTION('',(0.,-1.,0.));
#975=DIRECTION('center_axis',(1.97215226305253E-31,0.,1.));
#976=DIRECTION('ref_axis',(-1.,0.,1.97215226305253E-31));
#977=DIRECTION('center_axis',(-1.97215226305253E-31,0.,-1.));
#978=DIRECTION('ref_axis',(-1.,0.,1.97215226305253E-31));
#979=DIRECTION('',(0.707106781186547,-8.65956056235493E-17,0.707106781186547));
#980=DIRECTION('center_axis',(1.97215226305253E-31,0.,1.));
#981=DIRECTION('ref_axis',(-1.,0.,1.97215226305253E-31));
#982=DIRECTION('center_axis',(1.97215226305253E-31,0.,1.));
#983=DIRECTION('ref_axis',(1.,0.,-1.97215226305253E-31));
#984=DIRECTION('',(0.,1.,0.));
#985=DIRECTION('center_axis',(-1.97215226305253E-31,0.,-1.));
#986=DIRECTION('ref_axis',(0.707106781186547,-0.707106781186548,-1.39452223873684E-31));
#987=DIRECTION('',(0.,-1.,0.));
#988=DIRECTION('center_axis',(-1.97215226305253E-31,0.,-1.));
#989=DIRECTION('ref_axis',(0.707106781186547,0.707106781186547,-1.39452223873684E-31));
#990=DIRECTION('center_axis',(1.97215226305253E-31,0.,1.));
#991=DIRECTION('ref_axis',(-1.,0.,1.97215226305253E-31));
#992=DIRECTION('center_axis',(-1.97215226305253E-31,0.,-1.));
#993=DIRECTION('ref_axis',(-1.,0.,1.97215226305253E-31));
#994=DIRECTION('',(-1.97215226305253E-31,0.,-1.));
#995=DIRECTION('center_axis',(-1.97215226305253E-31,0.,-1.));
#996=DIRECTION('ref_axis',(-1.,0.,1.97215226305253E-31));
#997=DIRECTION('center_axis',(1.97215226305253E-31,0.,1.));
#998=DIRECTION('ref_axis',(-1.,0.,1.97215226305253E-31));
#999=DIRECTION('center_axis',(-1.97215226305253E-31,0.,-1.));
#1000=DIRECTION('ref_axis',(-1.,0.,1.97215226305253E-31));
#1001=DIRECTION('',(0.707106781186547,-8.65956056235493E-17,0.707106781186547));
#1002=DIRECTION('center_axis',(-1.97215226305253E-31,0.,-1.));
#1003=DIRECTION('ref_axis',(-1.,0.,1.97215226305253E-31));
#1004=DIRECTION('',(-1.97215226305253E-31,0.,-1.));
#1005=DIRECTION('center_axis',(-1.97215226305253E-31,0.,-1.));
#1006=DIRECTION('ref_axis',(-1.,0.,1.97215226305253E-31));
#1007=DIRECTION('center_axis',(-0.707106781186548,0.,0.707106781186548));
#1008=DIRECTION('ref_axis',(0.707106781186548,0.,0.707106781186548));
#1009=DIRECTION('',(-0.707106781186548,0.,-0.707106781186548));
#1010=DIRECTION('',(0.,-1.,0.));
#1011=DIRECTION('',(0.707106781186548,0.,0.707106781186548));
#1012=DIRECTION('center_axis',(-1.97215226305253E-31,0.,-1.));
#1013=DIRECTION('ref_axis',(0.707106781186548,0.707106781186548,-1.39452223873684E-31));
#1014=DIRECTION('',(0.70710678118654,0.,-0.707106781186555));
#1015=DIRECTION('center_axis',(0.707106781186548,0.,0.707106781186548));
#1016=DIRECTION('ref_axis',(0.707106781186548,0.,-0.707106781186548));
#1017=DIRECTION('',(0.707106781186548,0.,-0.707106781186548));
#1018=DIRECTION('',(0.,1.,0.));
#1019=DIRECTION('center_axis',(-1.97215226305253E-31,0.,-1.));
#1020=DIRECTION('ref_axis',(0.707106781186547,-0.707106781186548,-1.39452223873684E-31));
#1021=DIRECTION('center_axis',(-1.,0.,1.97215226305253E-31));
#1022=DIRECTION('ref_axis',(0.,1.,0.));
#1023=DIRECTION('',(0.,1.,0.));
#1024=DIRECTION('center_axis',(0.,1.,0.));
#1025=DIRECTION('ref_axis',(0.793353340291234,0.,0.608761429008722));
#1026=DIRECTION('',(0.,1.,0.));
#1027=DIRECTION('center_axis',(0.,-1.,0.));
#1028=DIRECTION('ref_axis',(-0.793353340291232,0.,0.608761429008725));
#1029=DIRECTION('',(0.,-1.,0.));
#1030=DIRECTION('center_axis',(-1.97215226305253E-31,0.,-1.));
#1031=DIRECTION('ref_axis',(-1.,0.,1.97215226305253E-31));
#1032=DIRECTION('',(0.,-1.,0.));
#1033=DIRECTION('center_axis',(1.,0.,-1.97215226305253E-31));
#1034=DIRECTION('ref_axis',(0.,-1.,0.));
#1035=DIRECTION('center_axis',(-1.97215226305253E-31,0.,-1.));
#1036=DIRECTION('ref_axis',(-1.,0.,1.97215226305253E-31));
#1037=DIRECTION('center_axis',(1.,0.,-1.97215226305253E-31));
#1038=DIRECTION('ref_axis',(0.,1.,0.));
#1039=DIRECTION('',(1.97215226305253E-31,0.,1.));
#1040=DIRECTION('',(0.,1.,0.));
#1041=DIRECTION('',(1.97215226305253E-31,0.,1.));
#1042=DIRECTION('center_axis',(0.5,-0.866025403784439,-9.86076131526265E-32));
#1043=DIRECTION('ref_axis',(0.866025403784439,0.5,-1.70793395993446E-31));
#1044=DIRECTION('',(1.97215226305253E-31,0.,1.));
#1045=DIRECTION('',(0.866025403784439,0.5,-1.70793395993446E-31));
#1046=DIRECTION('center_axis',(-0.5,-0.866025403784439,9.86076131526265E-32));
#1047=DIRECTION('ref_axis',(0.866025403784439,-0.5,-1.70793395993446E-31));
#1048=DIRECTION('',(1.97215226305253E-31,0.,1.));
#1049=DIRECTION('',(0.866025403784439,-0.5,-1.70793395993446E-31));
#1050=DIRECTION('center_axis',(-1.,1.34944749921654E-15,1.97215226305253E-31));
#1051=DIRECTION('ref_axis',(-1.34944749921654E-15,-1.,2.66131593945047E-46));
#1052=DIRECTION('',(1.97215226305253E-31,0.,1.));
#1053=DIRECTION('',(-1.34944749921654E-15,-1.,2.66131593945047E-46));
#1054=DIRECTION('center_axis',(-0.5,0.866025403784439,9.86076131526266E-32));
#1055=DIRECTION('ref_axis',(-0.866025403784438,-0.5,1.70793395993446E-31));
#1056=DIRECTION('',(1.97215226305253E-31,0.,1.));
#1057=DIRECTION('',(-0.866025403784439,-0.5,1.70793395993446E-31));
#1058=DIRECTION('center_axis',(0.5,0.866025403784439,-9.86076131526264E-32));
#1059=DIRECTION('ref_axis',(-0.866025403784439,0.5,1.70793395993446E-31));
#1060=DIRECTION('',(-0.866025403784439,0.5,1.70793395993446E-31));
#1061=DIRECTION('center_axis',(-1.97215226305253E-31,0.,-1.));
#1062=DIRECTION('ref_axis',(1.,0.,-1.97215226305253E-31));
#1063=DIRECTION('center_axis',(0.5,-0.866025403784439,-9.86076131526264E-32));
#1064=DIRECTION('ref_axis',(0.866025403784439,0.5,-1.70793395993446E-31));
#1065=DIRECTION('',(1.97215226305253E-31,0.,1.));
#1066=DIRECTION('',(0.866025403784439,0.5,-1.70793395993446E-31));
#1067=DIRECTION('',(1.97215226305253E-31,0.,1.));
#1068=DIRECTION('center_axis',(-0.500000000000001,-0.866025403784438,9.86076131526267E-32));
#1069=DIRECTION('ref_axis',(0.866025403784438,-0.500000000000001,-1.70793395993446E-31));
#1070=DIRECTION('',(1.97215226305253E-31,0.,1.));
#1071=DIRECTION('',(0.866025403784438,-0.500000000000001,-1.70793395993446E-31));
#1072=DIRECTION('center_axis',(-1.,0.,1.97215226305253E-31));
#1073=DIRECTION('ref_axis',(0.,-1.,0.));
#1074=DIRECTION('',(1.97215226305253E-31,0.,1.));
#1075=DIRECTION('',(0.,-1.,0.));
#1076=DIRECTION('center_axis',(-0.500000000000001,0.866025403784438,9.86076131526267E-32));
#1077=DIRECTION('ref_axis',(-0.866025403784438,-0.500000000000001,1.70793395993446E-31));
#1078=DIRECTION('',(1.97215226305253E-31,0.,1.));
#1079=DIRECTION('',(-0.866025403784438,-0.500000000000001,1.70793395993446E-31));
#1080=DIRECTION('center_axis',(0.5,0.866025403784439,-9.86076131526265E-32));
#1081=DIRECTION('ref_axis',(-0.866025403784439,0.5,1.70793395993446E-31));
#1082=DIRECTION('',(1.97215226305253E-31,0.,1.));
#1083=DIRECTION('',(-0.866025403784439,0.5,1.70793395993446E-31));
#1084=DIRECTION('center_axis',(1.,0.,-1.97215226305253E-31));
#1085=DIRECTION('ref_axis',(0.,1.,0.));
#1086=DIRECTION('',(0.,1.,0.));
#1087=DIRECTION('center_axis',(-1.97215226305253E-31,0.,-1.));
#1088=DIRECTION('ref_axis',(1.,0.,-1.97215226305253E-31));
#1089=CARTESIAN_POINT('',(0.,0.,0.));
#1090=CARTESIAN_POINT('Origin',(45.436716529973,-34.649,0.644556245854027));
#1091=CARTESIAN_POINT('',(45.436716529973,-11.0246971045799,0.144556245854027));
#1092=CARTESIAN_POINT('',(45.936716529973,-11.4883374691861,0.644556245854028));
#1093=CARTESIAN_POINT('Ctrl Pts',(45.436716529973,-11.0246971045799,0.144556245854027));
#1094=CARTESIAN_POINT('Ctrl Pts',(45.4984194199563,-11.0757089301671,0.144556245854027));
#1095=CARTESIAN_POINT('Ctrl Pts',(45.5640160712034,-11.1322075321463,0.156526890833635));
#1096=CARTESIAN_POINT('Ctrl Pts',(45.6865736576215,-11.2424027126079,0.206436127452217));
#1097=CARTESIAN_POINT('Ctrl Pts',(45.7435792252045,-11.2960779711994,0.244312159898958));
#1098=CARTESIAN_POINT('Ctrl Pts',(45.8304892376126,-11.3803442842667,0.331222172307002));
#1099=CARTESIAN_POINT('Ctrl Pts',(45.8685531680226,-11.4184851903381,0.383883160191264));
#1100=CARTESIAN_POINT('Ctrl Pts',(45.9084285775303,-11.4591009871578,0.475452512579736));
#1101=CARTESIAN_POINT('Ctrl Pts',(45.9189541380145,-11.4699483717917,0.508057720322773));
#1102=CARTESIAN_POINT('Ctrl Pts',(45.9330970185665,-11.4845670352539,0.575369027557096));
#1103=CARTESIAN_POINT('Ctrl Pts',(45.936716529973,-11.4883374691861,0.610074850096569));
#1104=CARTESIAN_POINT('Ctrl Pts',(45.936716529973,-11.4883374691861,0.644556245854028));
#1105=CARTESIAN_POINT('',(45.936716529973,-37.8096625308139,0.644556245854028));
#1106=CARTESIAN_POINT('',(45.936716529973,-34.649,0.644556245854027));
#1107=CARTESIAN_POINT('',(45.436716529973,-38.2733028954201,0.144556245854027));
#1108=CARTESIAN_POINT('Ctrl Pts',(45.936716529973,-37.8096625308139,0.644556245854028));
#1109=CARTESIAN_POINT('Ctrl Pts',(45.936716529973,-37.8096625308139,0.610074850096569));
#1110=CARTESIAN_POINT('Ctrl Pts',(45.9330970185665,-37.8134329647461,0.575369027557095));
#1111=CARTESIAN_POINT('Ctrl Pts',(45.9189541380145,-37.8280516282083,0.50805772032277));
#1112=CARTESIAN_POINT('Ctrl Pts',(45.9084285775303,-37.8388990128422,0.475452512579732));
#1113=CARTESIAN_POINT('Ctrl Pts',(45.8685531680226,-37.8795148096619,0.38388316019126));
#1114=CARTESIAN_POINT('Ctrl Pts',(45.8304892376126,-37.9176557157333,0.331222172307002));
#1115=CARTESIAN_POINT('Ctrl Pts',(45.7435792252045,-38.0019220288006,0.244312159898958));
#1116=CARTESIAN_POINT('Ctrl Pts',(45.6865736576216,-38.0555972873921,0.206436127452217));
#1117=CARTESIAN_POINT('Ctrl Pts',(45.5640160712034,-38.1657924678537,0.156526890833634));
#1118=CARTESIAN_POINT('Ctrl Pts',(45.4984194199562,-38.2222910698329,0.144556245854027));
#1119=CARTESIAN_POINT('Ctrl Pts',(45.436716529973,-38.2733028954201,0.144556245854027));
#1120=CARTESIAN_POINT('',(45.436716529973,-34.649,0.144556245854027));
#1121=CARTESIAN_POINT('Origin',(46.8955816258835,-29.649,0.144556245854027));
#1122=CARTESIAN_POINT('',(37.7905873834285,-38.2733028954201,0.144556245854028));
#1123=CARTESIAN_POINT('Origin',(41.6136519567008,-33.649,0.144556245854027));
#1124=CARTESIAN_POINT('',(37.7905873834285,-11.0246971045799,0.144556245854028));
#1125=CARTESIAN_POINT('',(37.7905873834285,-34.649,0.144556245854028));
#1126=CARTESIAN_POINT('Origin',(41.6136519567008,-15.649,0.144556245854027));
#1127=CARTESIAN_POINT('',(41.6136519567008,-18.9456700370728,0.144556245854028));
#1128=CARTESIAN_POINT('',(44.4686519567008,-17.2973350185364,0.144556245854028));
#1129=CARTESIAN_POINT('',(41.2770366693988,-19.1400149638099,0.144556245854028));
#1130=CARTESIAN_POINT('',(44.4686519567008,-14.0006649814636,0.144556245854028));
#1131=CARTESIAN_POINT('',(44.4686519567008,-23.4731675092682,0.144556245854027));
#1132=CARTESIAN_POINT('',(41.6136519567008,-12.3523299629272,0.144556245854028));
#1133=CARTESIAN_POINT('',(48.7667144958898,-16.4821525454583,0.144556245854027));
#1134=CARTESIAN_POINT('',(38.7586519567008,-14.0006649814636,0.144556245854028));
#1135=CARTESIAN_POINT('',(39.8495366693987,-13.3708423989326,0.144556245854028));
#1136=CARTESIAN_POINT('',(38.7586519567008,-17.2973350185364,0.144556245854028));
#1137=CARTESIAN_POINT('',(38.7586519567008,-21.8248324907318,0.144556245854028));
#1138=CARTESIAN_POINT('',(44.4842144958898,-20.6029900917992,0.144556245854027));
#1139=CARTESIAN_POINT('',(44.4636519567008,-35.2944482671904,0.144556245854027));
#1140=CARTESIAN_POINT('',(44.4636519567008,-32.0035517328096,0.144556245854027));
#1141=CARTESIAN_POINT('',(44.4636519567008,-27.4717241335952,0.144556245854027));
#1142=CARTESIAN_POINT('',(41.6136519567008,-30.3581034656191,0.144556245854028));
#1143=CARTESIAN_POINT('',(46.5979009864287,-33.2357609846407,0.144556245854027));
#1144=CARTESIAN_POINT('',(38.7636519567008,-32.0035517328096,0.144556245854028));
#1145=CARTESIAN_POINT('',(42.0158501788598,-30.125894213788,0.144556245854028));
#1146=CARTESIAN_POINT('',(38.7636519567007,-35.2944482671904,0.144556245854028));
#1147=CARTESIAN_POINT('',(38.7636519567008,-25.8262758664048,0.144556245854028));
#1148=CARTESIAN_POINT('',(41.6136519567008,-36.9398965343809,0.144556245854028));
#1149=CARTESIAN_POINT('',(42.3229009864287,-37.3493816526168,0.144556245854028));
#1150=CARTESIAN_POINT('',(43.4408501788598,-35.8849631489545,0.144556245854028));
#1151=CARTESIAN_POINT('Origin',(41.6136519567008,-33.649,4.66955624585403));
#1152=CARTESIAN_POINT('',(45.936716529973,-37.8096625308139,0.792771826234024));
#1153=CARTESIAN_POINT('',(45.936716529973,-37.8096625308139,4.66955624585403));
#1154=CARTESIAN_POINT('',(45.8793038208052,-37.8685040159444,0.999251723948798));
#1155=CARTESIAN_POINT('Ctrl Pts',(45.8793038216504,-37.8685040190823,0.999251722546337));
#1156=CARTESIAN_POINT('Ctrl Pts',(45.8903551393728,-37.8573318353755,0.980915598421901));
#1157=CARTESIAN_POINT('Ctrl Pts',(45.9002951150265,-37.8471938873176,0.961054948382647));
#1158=CARTESIAN_POINT('Ctrl Pts',(45.9267259457412,-37.8200989577895,0.894333087827243));
#1159=CARTESIAN_POINT('Ctrl Pts',(45.936716529973,-37.8096625308139,0.84291454433262));
#1160=CARTESIAN_POINT('Ctrl Pts',(45.936716529973,-37.8096625308139,0.792771826234024));
#1161=CARTESIAN_POINT('',(45.9626457569223,-37.782552095945,3.21707640699977));
#1162=CARTESIAN_POINT('Ctrl Pts',(45.962645756788,-37.7825520955714,3.21707640681066));
#1163=CARTESIAN_POINT('Ctrl Pts',(45.8878106285308,-37.8612876482618,3.11170230337258));
#1164=CARTESIAN_POINT('Ctrl Pts',(45.8188016882552,-37.9295301275723,2.99269735079839));
#1165=CARTESIAN_POINT('Ctrl Pts',(45.7066675092543,-38.0368295496003,2.73926031416981));
#1166=CARTESIAN_POINT('Ctrl Pts',(45.6626319216453,-38.0770107318306,2.60509568334643));
#1167=CARTESIAN_POINT('Ctrl Pts',(45.6036267175123,-38.1302658589147,2.32818524667976));
#1168=CARTESIAN_POINT('Ctrl Pts',(45.5886519567007,-38.1433714799736,2.18544662991348));
#1169=CARTESIAN_POINT('Ctrl Pts',(45.5886519567007,-38.1433714799736,1.90366586179458));
#1170=CARTESIAN_POINT('Ctrl Pts',(45.6036267175123,-38.1302658589147,1.76092724502829));
#1171=CARTESIAN_POINT('Ctrl Pts',(45.6626319216453,-38.0770107318306,1.48401680836163));
#1172=CARTESIAN_POINT('Ctrl Pts',(45.7066675092543,-38.0368295496003,1.34985217753824));
#1173=CARTESIAN_POINT('Ctrl Pts',(45.7849561774218,-37.9619163614844,1.17291015826493));
#1174=CARTESIAN_POINT('Ctrl Pts',(45.8100448510035,-37.9375541215864,1.12221172346211));
#1175=CARTESIAN_POINT('Ctrl Pts',(45.8367165299744,-37.9111268880644,1.07340976398587));
#1176=CARTESIAN_POINT('Ctrl Pts',(45.8505250146387,-37.8974449579088,1.04814397139167));
#1177=CARTESIAN_POINT('Ctrl Pts',(45.8647342551404,-37.8832329299386,1.0234252527872));
#1178=CARTESIAN_POINT('Ctrl Pts',(45.8793038216504,-37.8685040190823,0.999251722546347));
#1179=CARTESIAN_POINT('',(46.0228914065863,-37.7182268889278,3.55221294658617));
#1180=CARTESIAN_POINT('Ctrl Pts',(46.0228914065863,-37.7182268889278,3.55221294658617));
#1181=CARTESIAN_POINT('Ctrl Pts',(46.0253836140755,-37.7155264399534,3.54291190161342));
#1182=CARTESIAN_POINT('Ctrl Pts',(46.0275526248741,-37.713171177412,3.53347299756677));
#1183=CARTESIAN_POINT('Ctrl Pts',(46.0341209835797,-37.7060315284649,3.49917394857568));
#1184=CARTESIAN_POINT('Ctrl Pts',(46.0365210760707,-37.7034085577213,3.47377564487672));
#1185=CARTESIAN_POINT('Ctrl Pts',(46.0365210760707,-37.7034085577213,3.44868532854516));
#1186=CARTESIAN_POINT('Ctrl Pts',(46.0365210760707,-37.7034085577213,3.42082202017176));
#1187=CARTESIAN_POINT('Ctrl Pts',(46.0335687668392,-37.706635940898,3.3928728030995));
#1188=CARTESIAN_POINT('Ctrl Pts',(46.0221274791378,-37.7190629291842,3.33880967562684));
#1189=CARTESIAN_POINT('Ctrl Pts',(46.0136361706468,-37.7282626843977,3.31269629285433));
#1190=CARTESIAN_POINT('Ctrl Pts',(45.9916633809674,-37.7518393323599,3.26249193240851));
#1191=CARTESIAN_POINT('Ctrl Pts',(45.9778915227296,-37.7665117167339,3.23854371693336));
#1192=CARTESIAN_POINT('Ctrl Pts',(45.9626457567899,-37.7825520955695,3.21707640681324));
#1193=CARTESIAN_POINT('',(45.827762008662,-37.9199807386547,4.28044577369));
#1194=CARTESIAN_POINT('Origin',(41.6136519567008,-33.649,20.0077185962961));
#1195=CARTESIAN_POINT('',(47.3732433307245,-35.3304003700104,6.29455624585403));
#1196=CARTESIAN_POINT('Ctrl Pts',(45.827762008662,-37.9199807386547,4.28044577368999));
#1197=CARTESIAN_POINT('Ctrl Pts',(45.7916199878304,-37.9556415066619,4.41532963172163));
#1198=CARTESIAN_POINT('Ctrl Pts',(45.7732433307245,-37.9730952349766,4.5581504995797));
#1199=CARTESIAN_POINT('Ctrl Pts',(45.7732433307245,-37.9730952349766,4.69455624585403));
#1200=CARTESIAN_POINT('Ctrl Pts',(45.7732433307245,-37.9730952349766,4.8591394627959));
#1201=CARTESIAN_POINT('Ctrl Pts',(45.8005554449229,-37.9472761071483,5.03280504636222));
#1202=CARTESIAN_POINT('Ctrl Pts',(45.903985308532,-37.8440421818173,5.34956727683198));
#1203=CARTESIAN_POINT('Ctrl Pts',(45.9795806303667,-37.7663611245312,5.4927474560103));
#1204=CARTESIAN_POINT('Ctrl Pts',(46.1431510719472,-37.5859180238908,5.72829753209121));
#1205=CARTESIAN_POINT('Ctrl Pts',(46.2552367046669,-37.454230562235,5.84581896922942));
#1206=CARTESIAN_POINT('Ctrl Pts',(46.5392362652889,-37.0889381353508,6.0818791226765));
#1207=CARTESIAN_POINT('Ctrl Pts',(46.759840730909,-36.752816623045,6.18165363726371));
#1208=CARTESIAN_POINT('Ctrl Pts',(47.0980342054163,-36.1122825308283,6.28166710847423));
#1209=CARTESIAN_POINT('Ctrl Pts',(47.2565658813681,-35.7300758089137,6.29455624585403));
#1210=CARTESIAN_POINT('Ctrl Pts',(47.3732433307245,-35.3304003700104,6.29455624585403));
#1211=CARTESIAN_POINT('',(47.6136519567008,-33.649,6.29455624585403));
#1212=CARTESIAN_POINT('Origin',(41.6136519567008,-33.649,6.29455624585403));
#1213=CARTESIAN_POINT('',(47.6136519567008,-33.649,6.89455624585403));
#1214=CARTESIAN_POINT('',(47.6136519567008,-33.649,4.66955624585403));
#1215=CARTESIAN_POINT('',(35.6136519567008,-33.649,6.89455624585403));
#1216=CARTESIAN_POINT('Origin',(41.6136519567008,-33.649,6.89455624585403));
#1217=CARTESIAN_POINT('',(35.6136519567008,-33.649,6.29455624585403));
#1218=CARTESIAN_POINT('',(35.6136519567008,-33.649,4.66955624585403));
#1219=CARTESIAN_POINT('',(35.854060582677,-35.3304003700104,6.29455624585403));
#1220=CARTESIAN_POINT('Origin',(41.6136519567008,-33.649,6.29455624585403));
#1221=CARTESIAN_POINT('',(37.3995419047395,-37.9199807386547,4.28044577369));
#1222=CARTESIAN_POINT('Ctrl Pts',(35.854060582677,-35.3304003700104,6.29455624585403));
#1223=CARTESIAN_POINT('Ctrl Pts',(35.9707380320334,-35.7300758089137,6.29455624585403));
#1224=CARTESIAN_POINT('Ctrl Pts',(36.1292697079853,-36.1122825308283,6.28166710847423));
#1225=CARTESIAN_POINT('Ctrl Pts',(36.4674631824926,-36.752816623045,6.18165363726371));
#1226=CARTESIAN_POINT('Ctrl Pts',(36.6880676481127,-37.0889381353508,6.0818791226765));
#1227=CARTESIAN_POINT('Ctrl Pts',(36.9720672087347,-37.454230562235,5.84581896922941));
#1228=CARTESIAN_POINT('Ctrl Pts',(37.0841528414543,-37.5859180238908,5.72829753209121));
#1229=CARTESIAN_POINT('Ctrl Pts',(37.2477232830348,-37.7663611245312,5.4927474560103));
#1230=CARTESIAN_POINT('Ctrl Pts',(37.3233186048695,-37.8440421818173,5.34956727683197));
#1231=CARTESIAN_POINT('Ctrl Pts',(37.4267484684787,-37.9472761071483,5.03280504636222));
#1232=CARTESIAN_POINT('Ctrl Pts',(37.454060582677,-37.9730952349766,4.8591394627959));
#1233=CARTESIAN_POINT('Ctrl Pts',(37.454060582677,-37.9730952349766,4.55815050080824));
#1234=CARTESIAN_POINT('Ctrl Pts',(37.4356839243258,-37.9556415054332,4.41532962707427));
#1235=CARTESIAN_POINT('Ctrl Pts',(37.3995419047395,-37.9199807386547,4.28044577369));
#1236=CARTESIAN_POINT('',(37.2044125068152,-37.7182268889278,3.55221294658615));
#1237=CARTESIAN_POINT('Origin',(41.6136519567008,-33.649,20.0077185962962));
#1238=CARTESIAN_POINT('',(37.264658156103,-37.7825520951534,3.2170764075294));
#1239=CARTESIAN_POINT('Ctrl Pts',(37.2646581561337,-37.7825520950665,3.21707640748624));
#1240=CARTESIAN_POINT('Ctrl Pts',(37.2469932785459,-37.7639665199123,3.24195002869804));
#1241=CARTESIAN_POINT('Ctrl Pts',(37.2310528777815,-37.7469449176557,3.27058797008516));
#1242=CARTESIAN_POINT('Ctrl Pts',(37.2097566716849,-37.7240313319183,3.32451995670808));
#1243=CARTESIAN_POINT('Ctrl Pts',(37.2026694988961,-37.7163432023455,3.34865917379347));
#1244=CARTESIAN_POINT('Ctrl Pts',(37.1931829298218,-37.7060315284648,3.39819670851462));
#1245=CARTESIAN_POINT('Ctrl Pts',(37.1907828373308,-37.7034085577213,3.42359501221358));
#1246=CARTESIAN_POINT('Ctrl Pts',(37.1907828373308,-37.7034085577213,3.4737756448767));
#1247=CARTESIAN_POINT('Ctrl Pts',(37.1931829298218,-37.7060315284648,3.49917394857566));
#1248=CARTESIAN_POINT('Ctrl Pts',(37.1997512885274,-37.7131711774119,3.53347299756675));
#1249=CARTESIAN_POINT('Ctrl Pts',(37.201920299326,-37.7155264399534,3.54291190161341));
#1250=CARTESIAN_POINT('Ctrl Pts',(37.2044125068152,-37.7182268889278,3.55221294658615));
#1251=CARTESIAN_POINT('',(37.3480000983172,-37.8685040275112,0.99925173344076));
#1252=CARTESIAN_POINT('Ctrl Pts',(37.2646581561339,-37.7825520950668,3.2170764074859));
#1253=CARTESIAN_POINT('Ctrl Pts',(37.2772684118536,-37.7958196002746,3.19932011548274));
#1254=CARTESIAN_POINT('Ctrl Pts',(37.2894919892292,-37.8085585177398,3.18149888872292));
#1255=CARTESIAN_POINT('Ctrl Pts',(37.3964835871489,-37.9191578043539,3.02016906618241));
#1256=CARTESIAN_POINT('Ctrl Pts',(37.4859236633367,-38.0043036558691,2.84246126890549));
#1257=CARTESIAN_POINT('Ctrl Pts',(37.6072683468844,-38.1161803223869,2.45388327293916));
#1258=CARTESIAN_POINT('Ctrl Pts',(37.6386519567008,-38.1433714799736,2.24298322791962));
#1259=CARTESIAN_POINT('Ctrl Pts',(37.6386519567008,-38.1433714799736,1.84612926378843));
#1260=CARTESIAN_POINT('Ctrl Pts',(37.6072683468844,-38.1161803223869,1.63522921876889));
#1261=CARTESIAN_POINT('Ctrl Pts',(37.5054024851736,-38.0222626268854,1.30902759836259));
#1262=CARTESIAN_POINT('Ctrl Pts',(37.4512377288406,-37.971221374174,1.1843834939236));
#1263=CARTESIAN_POINT('Ctrl Pts',(37.3905873834285,-37.9111268880657,1.07340976398842));
#1264=CARTESIAN_POINT('Ctrl Pts',(37.3767762698532,-37.8974423530931,1.04813916119802));
#1265=CARTESIAN_POINT('Ctrl Pts',(37.3625670066265,-37.8832302492551,1.02342085361204));
#1266=CARTESIAN_POINT('Ctrl Pts',(37.3480000986964,-37.8685040261035,0.999251734069915));
#1267=CARTESIAN_POINT('',(37.2905873834285,-37.8096625308138,0.792771826234055));
#1268=CARTESIAN_POINT('Ctrl Pts',(37.2905873834285,-37.8096625308138,0.792771826234055));
#1269=CARTESIAN_POINT('Ctrl Pts',(37.2905873834285,-37.8096625308138,0.842914544332651));
#1270=CARTESIAN_POINT('Ctrl Pts',(37.3005779676603,-37.8200989577894,0.89433308782727));
#1271=CARTESIAN_POINT('Ctrl Pts',(37.3270088001146,-37.8471938891009,0.961054952774002));
#1272=CARTESIAN_POINT('Ctrl Pts',(37.3369487781994,-37.8573318396286,0.980915606736974));
#1273=CARTESIAN_POINT('Ctrl Pts',(37.3480000986964,-37.8685040261035,0.999251734069914));
#1274=CARTESIAN_POINT('',(37.2905873834285,-37.8096625308138,0.644556245854028));
#1275=CARTESIAN_POINT('',(37.2905873834285,-37.8096625308138,4.66955624585403));
#1276=CARTESIAN_POINT('Ctrl Pts',(37.7905873834285,-38.2733028954201,0.144556245854028));
#1277=CARTESIAN_POINT('Ctrl Pts',(37.7242671365875,-38.2184737477793,0.144556245854028));
#1278=CARTESIAN_POINT('Ctrl Pts',(37.6540494332943,-38.1577937276054,0.15834989537711));
#1279=CARTESIAN_POINT('Ctrl Pts',(37.5241145809611,-38.0402819397119,0.215567353069981));
#1280=CARTESIAN_POINT('Ctrl Pts',(37.4643263099548,-37.9834648066905,0.258859608430664));
#1281=CARTESIAN_POINT('Ctrl Pts',(37.3814980009158,-37.9023828101258,0.352285952359194));
#1282=CARTESIAN_POINT('Ctrl Pts',(37.3486495051936,-37.869285883007,0.402700073813722));
#1283=CARTESIAN_POINT('Ctrl Pts',(37.3031259333144,-37.8227781729965,0.517336696036895));
#1284=CARTESIAN_POINT('Ctrl Pts',(37.2905873834285,-37.8096625308138,0.581732854276744));
#1285=CARTESIAN_POINT('Ctrl Pts',(37.2905873834285,-37.8096625308138,0.644556245854028));
#1286=CARTESIAN_POINT('Origin',(45.536716529973,-37.649,0.792771826234024));
#1287=CARTESIAN_POINT('',(45.936716529973,-11.4883374691861,0.792771826234024));
#1288=CARTESIAN_POINT('',(45.8793038150843,-11.4294959724888,0.999251733440731));
#1289=CARTESIAN_POINT('Ctrl Pts',(45.936716529973,-11.4883374691861,0.792771826234024));
#1290=CARTESIAN_POINT('Ctrl Pts',(45.936716529973,-11.4883374691861,0.84291454433262));
#1291=CARTESIAN_POINT('Ctrl Pts',(45.9267259457412,-11.4779010422105,0.89433308782724));
#1292=CARTESIAN_POINT('Ctrl Pts',(45.900295113287,-11.4508061108991,0.961054952773974));
#1293=CARTESIAN_POINT('Ctrl Pts',(45.8903551352021,-11.4406681603714,0.980915606736946));
#1294=CARTESIAN_POINT('Ctrl Pts',(45.8793038147051,-11.4294959738964,0.999251734069883));
#1295=CARTESIAN_POINT('',(45.879303816856,-37.649,0.999251730501242));
#1296=CARTESIAN_POINT('',(45.936716529973,-37.649,0.792771826234024));
#1297=CARTESIAN_POINT('Origin',(47.6136519567007,-37.649,2.04455624585403));
#1298=CARTESIAN_POINT('',(45.9626457569223,-11.515447904055,3.21707640699977));
#1299=CARTESIAN_POINT('Ctrl Pts',(45.9626457567888,-11.5154479044294,3.21707640681177));
#1300=CARTESIAN_POINT('Ctrl Pts',(45.9500355012386,-11.5021803994029,3.19932011503174));
#1301=CARTESIAN_POINT('Ctrl Pts',(45.9378119240234,-11.4894414821062,3.1814988884984));
#1302=CARTESIAN_POINT('Ctrl Pts',(45.8308203262526,-11.3788421956461,3.02016906618243));
#1303=CARTESIAN_POINT('Ctrl Pts',(45.7413802500648,-11.2936963441308,2.8424612689055));
#1304=CARTESIAN_POINT('Ctrl Pts',(45.6200355665171,-11.181819677613,2.45388327293917));
#1305=CARTESIAN_POINT('Ctrl Pts',(45.5886519567007,-11.1546285200264,2.24298322791963));
#1306=CARTESIAN_POINT('Ctrl Pts',(45.5886519567007,-11.1546285200264,1.84612926378843));
#1307=CARTESIAN_POINT('Ctrl Pts',(45.6200355665171,-11.181819677613,1.63522921876889));
#1308=CARTESIAN_POINT('Ctrl Pts',(45.7219014282285,-11.2757373731151,1.30902759836072));
#1309=CARTESIAN_POINT('Ctrl Pts',(45.7760661845624,-11.3267786258274,1.18438349392009));
#1310=CARTESIAN_POINT('Ctrl Pts',(45.8367165299756,-11.3868731119368,1.07340976398372));
#1311=CARTESIAN_POINT('Ctrl Pts',(45.8505276435501,-11.4005576469086,1.04813916119497));
#1312=CARTESIAN_POINT('Ctrl Pts',(45.8647369067759,-11.4147697507457,1.02342085361055));
#1313=CARTESIAN_POINT('Ctrl Pts',(45.8793038147051,-11.4294959738964,0.999251734069889));
#1314=CARTESIAN_POINT('',(45.9626457574117,-37.649,3.21707640768889));
#1315=CARTESIAN_POINT('Origin',(45.936716529973,-39.649,0.144556245854028));
#1316=CARTESIAN_POINT('',(45.936716529973,-11.4883374691861,4.66955624585403));
#1317=CARTESIAN_POINT('Origin',(37.6905873834285,-37.649,0.792771826234055));
#1318=CARTESIAN_POINT('',(37.3480000983172,-11.4294959724888,0.999251733440759));
#1319=CARTESIAN_POINT('',(37.2905873834285,-11.4883374691862,0.792771826234055));
#1320=CARTESIAN_POINT('Ctrl Pts',(37.3480000986964,-11.4294959738965,0.999251734069917));
#1321=CARTESIAN_POINT('Ctrl Pts',(37.3369487781994,-11.4406681603714,0.980915606736976));
#1322=CARTESIAN_POINT('Ctrl Pts',(37.3270088001146,-11.4508061108991,0.961054952774001));
#1323=CARTESIAN_POINT('Ctrl Pts',(37.3005779676603,-11.4779010422106,0.894333087827268));
#1324=CARTESIAN_POINT('Ctrl Pts',(37.2905873834285,-11.4883374691862,0.842914544332651));
#1325=CARTESIAN_POINT('Ctrl Pts',(37.2905873834285,-11.4883374691862,0.792771826234055));
#1326=CARTESIAN_POINT('',(37.2905873834285,-37.649,0.792771826234055));
#1327=CARTESIAN_POINT('',(37.3480000965456,-37.649,0.999251730501268));
#1328=CARTESIAN_POINT('Origin',(37.2905873834285,-39.649,0.879169833868736));
#1329=CARTESIAN_POINT('',(37.2905873834285,-11.4883374691862,0.644556245854028));
#1330=CARTESIAN_POINT('',(37.2905873834285,-11.4883374691862,4.66955624585403));
#1331=CARTESIAN_POINT('',(37.2905873834285,-34.649,0.644556245854028));
#1332=CARTESIAN_POINT('Origin',(41.6136519567008,-15.649,4.66955624585403));
#1333=CARTESIAN_POINT('Ctrl Pts',(37.2905873834285,-11.4883374691862,0.644556245854028));
#1334=CARTESIAN_POINT('Ctrl Pts',(37.2905873834285,-11.4883374691862,0.581732854276744));
#1335=CARTESIAN_POINT('Ctrl Pts',(37.3031259333144,-11.4752218270035,0.517336696036897));
#1336=CARTESIAN_POINT('Ctrl Pts',(37.3486495051936,-11.428714116993,0.402700073813725));
#1337=CARTESIAN_POINT('Ctrl Pts',(37.3814980009158,-11.3956171898742,0.352285952359194));
#1338=CARTESIAN_POINT('Ctrl Pts',(37.4643263099548,-11.3145351933095,0.258859608430664));
#1339=CARTESIAN_POINT('Ctrl Pts',(37.5241145809611,-11.2577180602881,0.21556735306998));
#1340=CARTESIAN_POINT('Ctrl Pts',(37.6540494332943,-11.1402062723946,0.158349895377111));
#1341=CARTESIAN_POINT('Ctrl Pts',(37.7242671365875,-11.0795262522207,0.144556245854029));
#1342=CARTESIAN_POINT('Ctrl Pts',(37.7905873834285,-11.0246971045799,0.144556245854028));
#1343=CARTESIAN_POINT('',(37.264658156103,-11.5154479048465,3.21707640752941));
#1344=CARTESIAN_POINT('Ctrl Pts',(37.3480000986964,-11.4294959738965,0.99925173406991));
#1345=CARTESIAN_POINT('Ctrl Pts',(37.3625670066265,-11.4147697507449,1.02342085361204));
#1346=CARTESIAN_POINT('Ctrl Pts',(37.3767762698532,-11.4005576469069,1.04813916119802));
#1347=CARTESIAN_POINT('Ctrl Pts',(37.3905873834285,-11.3868731119343,1.07340976398842));
#1348=CARTESIAN_POINT('Ctrl Pts',(37.4512377288406,-11.326778625826,1.1843834939236));
#1349=CARTESIAN_POINT('Ctrl Pts',(37.5054024851736,-11.2757373731146,1.30902759836259));
#1350=CARTESIAN_POINT('Ctrl Pts',(37.6072683468844,-11.1818196776131,1.63522921876889));
#1351=CARTESIAN_POINT('Ctrl Pts',(37.6386519567008,-11.1546285200264,1.84612926378843));
#1352=CARTESIAN_POINT('Ctrl Pts',(37.6386519567008,-11.1546285200264,2.04455624585403));
#1353=CARTESIAN_POINT('Ctrl Pts',(37.6386519567008,-11.1546285200264,2.24298322791963));
#1354=CARTESIAN_POINT('Ctrl Pts',(37.6072683468844,-11.1818196776131,2.45388327293917));
#1355=CARTESIAN_POINT('Ctrl Pts',(37.4859236633367,-11.2936963441309,2.8424612689055));
#1356=CARTESIAN_POINT('Ctrl Pts',(37.3964835871489,-11.3788421956461,3.02016906618242));
#1357=CARTESIAN_POINT('Ctrl Pts',(37.2894919892291,-11.4894414822603,3.18149888872304));
#1358=CARTESIAN_POINT('Ctrl Pts',(37.2772684118534,-11.5021803997255,3.19932011548297));
#1359=CARTESIAN_POINT('Ctrl Pts',(37.2646581561337,-11.5154479049335,3.21707640748625));
#1360=CARTESIAN_POINT('',(37.2044125068152,-11.5797731110722,3.55221294658615));
#1361=CARTESIAN_POINT('Ctrl Pts',(37.2044125068152,-11.5797731110722,3.55221294658615));
#1362=CARTESIAN_POINT('Ctrl Pts',(37.201920299326,-11.5824735600466,3.54291190161341));
#1363=CARTESIAN_POINT('Ctrl Pts',(37.1997512885274,-11.5848288225881,3.53347299756675));
#1364=CARTESIAN_POINT('Ctrl Pts',(37.1931829298218,-11.5919684715352,3.49917394857566));
#1365=CARTESIAN_POINT('Ctrl Pts',(37.1907828373308,-11.5945914422787,3.4737756448767));
#1366=CARTESIAN_POINT('Ctrl Pts',(37.1907828373308,-11.5945914422787,3.42359501221358));
#1367=CARTESIAN_POINT('Ctrl Pts',(37.1931829298218,-11.5919684715352,3.39819670851462));
#1368=CARTESIAN_POINT('Ctrl Pts',(37.2026694988961,-11.5816567976545,3.34865917379346));
#1369=CARTESIAN_POINT('Ctrl Pts',(37.2097566716849,-11.5739686680817,3.32451995670808));
#1370=CARTESIAN_POINT('Ctrl Pts',(37.2310528777815,-11.5510550823443,3.27058797008516));
#1371=CARTESIAN_POINT('Ctrl Pts',(37.2469932785459,-11.5340334800877,3.24195002869804));
#1372=CARTESIAN_POINT('Ctrl Pts',(37.2646581561337,-11.5154479049335,3.21707640748624));
#1373=CARTESIAN_POINT('',(37.3995419047395,-11.3780192613453,4.28044577369));
#1374=CARTESIAN_POINT('Origin',(41.6136519567008,-15.649,20.0077185962962));
#1375=CARTESIAN_POINT('',(35.854060582677,-13.9675996299896,6.29455624585403));
#1376=CARTESIAN_POINT('Ctrl Pts',(37.3995419047395,-11.3780192613453,4.28044577368999));
#1377=CARTESIAN_POINT('Ctrl Pts',(37.4356839255711,-11.3423584933381,4.41532963172163));
#1378=CARTESIAN_POINT('Ctrl Pts',(37.454060582677,-11.3249047650234,4.5581504995797));
#1379=CARTESIAN_POINT('Ctrl Pts',(37.454060582677,-11.3249047650234,4.69455624585403));
#1380=CARTESIAN_POINT('Ctrl Pts',(37.454060582677,-11.3249047650234,4.8591394627959));
#1381=CARTESIAN_POINT('Ctrl Pts',(37.4267484684787,-11.3507238928517,5.03280504636222));
#1382=CARTESIAN_POINT('Ctrl Pts',(37.3233186048695,-11.4539578181827,5.34956727683198));
#1383=CARTESIAN_POINT('Ctrl Pts',(37.2477232830348,-11.5316388754689,5.4927474560103));
#1384=CARTESIAN_POINT('Ctrl Pts',(37.0841528414543,-11.7120819761092,5.72829753209121));
#1385=CARTESIAN_POINT('Ctrl Pts',(36.9720672087347,-11.843769437765,5.84581896922942));
#1386=CARTESIAN_POINT('Ctrl Pts',(36.6880676481127,-12.2090618646492,6.0818791226765));
#1387=CARTESIAN_POINT('Ctrl Pts',(36.4674631824926,-12.545183376955,6.18165363726371));
#1388=CARTESIAN_POINT('Ctrl Pts',(36.1292697079853,-13.1857174691717,6.28166710847423));
#1389=CARTESIAN_POINT('Ctrl Pts',(35.9707380320334,-13.5679241910863,6.29455624585403));
#1390=CARTESIAN_POINT('Ctrl Pts',(35.854060582677,-13.9675996299896,6.29455624585403));
#1391=CARTESIAN_POINT('',(35.6136519567008,-15.649,6.29455624585403));
#1392=CARTESIAN_POINT('Origin',(41.6136519567008,-15.649,6.29455624585403));
#1393=CARTESIAN_POINT('',(35.6136519567008,-15.649,6.89455624585403));
#1394=CARTESIAN_POINT('',(35.6136519567008,-15.649,4.66955624585403));
#1395=CARTESIAN_POINT('',(47.6136519567008,-15.649,6.89455624585403));
#1396=CARTESIAN_POINT('Origin',(41.6136519567008,-15.649,6.89455624585403));
#1397=CARTESIAN_POINT('',(47.6136519567008,-15.649,6.29455624585403));
#1398=CARTESIAN_POINT('',(47.6136519567008,-15.649,4.66955624585403));
#1399=CARTESIAN_POINT('',(47.3732433307245,-13.9675996299896,6.29455624585403));
#1400=CARTESIAN_POINT('Origin',(41.6136519567008,-15.649,6.29455624585403));
#1401=CARTESIAN_POINT('',(45.827762008662,-11.3780192613453,4.28044577369));
#1402=CARTESIAN_POINT('Ctrl Pts',(47.3732433307245,-13.9675996299896,6.29455624585403));
#1403=CARTESIAN_POINT('Ctrl Pts',(47.2565658813681,-13.5679241910863,6.29455624585403));
#1404=CARTESIAN_POINT('Ctrl Pts',(47.0980342054163,-13.1857174691717,6.28166710847423));
#1405=CARTESIAN_POINT('Ctrl Pts',(46.759840730909,-12.545183376955,6.18165363726371));
#1406=CARTESIAN_POINT('Ctrl Pts',(46.5392362652889,-12.2090618646492,6.0818791226765));
#1407=CARTESIAN_POINT('Ctrl Pts',(46.2552367046669,-11.843769437765,5.84581896922942));
#1408=CARTESIAN_POINT('Ctrl Pts',(46.1431510719472,-11.7120819761092,5.72829753209121));
#1409=CARTESIAN_POINT('Ctrl Pts',(45.9795806303667,-11.5316388754688,5.4927474560103));
#1410=CARTESIAN_POINT('Ctrl Pts',(45.903985308532,-11.4539578181827,5.34956727683197));
#1411=CARTESIAN_POINT('Ctrl Pts',(45.8005554449228,-11.3507238928517,5.03280504636222));
#1412=CARTESIAN_POINT('Ctrl Pts',(45.7732433307245,-11.3249047650234,4.8591394627959));
#1413=CARTESIAN_POINT('Ctrl Pts',(45.7732433307245,-11.3249047650234,4.55815050080824));
#1414=CARTESIAN_POINT('Ctrl Pts',(45.7916199890757,-11.3423584945668,4.41532962707427));
#1415=CARTESIAN_POINT('Ctrl Pts',(45.827762008662,-11.3780192613453,4.28044577368999));
#1416=CARTESIAN_POINT('',(46.0228914065863,-11.5797731110722,3.55221294658617));
#1417=CARTESIAN_POINT('Origin',(41.6136519567008,-15.649,20.0077185962961));
#1418=CARTESIAN_POINT('Ctrl Pts',(45.9626457567899,-11.5154479044305,3.21707640681324));
#1419=CARTESIAN_POINT('Ctrl Pts',(45.9778915227296,-11.5314882832661,3.23854371693337));
#1420=CARTESIAN_POINT('Ctrl Pts',(45.9916633809675,-11.5461606676401,3.26249193240851));
#1421=CARTESIAN_POINT('Ctrl Pts',(46.0136361706468,-11.5697373156023,3.31269629285433));
#1422=CARTESIAN_POINT('Ctrl Pts',(46.0221274791378,-11.5789370708158,3.33880967562684));
#1423=CARTESIAN_POINT('Ctrl Pts',(46.0335687668392,-11.591364059102,3.3928728030995));
#1424=CARTESIAN_POINT('Ctrl Pts',(46.0365210760707,-11.5945914422787,3.42082202017176));
#1425=CARTESIAN_POINT('Ctrl Pts',(46.0365210760707,-11.5945914422787,3.44868532854516));
#1426=CARTESIAN_POINT('Ctrl Pts',(46.0365210760707,-11.5945914422787,3.47377564487672));
#1427=CARTESIAN_POINT('Ctrl Pts',(46.0341209835797,-11.5919684715351,3.49917394857568));
#1428=CARTESIAN_POINT('Ctrl Pts',(46.0275526248741,-11.584828822588,3.53347299756677));
#1429=CARTESIAN_POINT('Ctrl Pts',(46.0253836140755,-11.5824735600466,3.54291190161342));
#1430=CARTESIAN_POINT('Ctrl Pts',(46.0228914065863,-11.5797731110722,3.55221294658616));
#1431=CARTESIAN_POINT('Origin',(37.7905873834285,-34.649,0.644556245854028));
#1432=CARTESIAN_POINT('Origin',(35.6136519567008,-37.649,2.04455624585403));
#1433=CARTESIAN_POINT('',(37.2646581559898,-37.649,3.21707640768887));
#1434=CARTESIAN_POINT('Origin',(45.6365210760707,-37.649,3.44868532854516));
#1435=CARTESIAN_POINT('',(46.0228914065863,-37.649,3.55221294658617));
#1436=CARTESIAN_POINT('Origin',(45.1217815084416,-37.649,6.91520086966558));
#1437=CARTESIAN_POINT('',(45.827762008662,-31.149,4.28044577369));
#1438=CARTESIAN_POINT('Origin',(37.5907828373308,-37.649,3.44868532854514));
#1439=CARTESIAN_POINT('',(37.2044125068152,-37.649,3.55221294658615));
#1440=CARTESIAN_POINT('Origin',(37.3459762356536,-37.649,4.08053597511999));
#1441=CARTESIAN_POINT('',(37.3995419047395,-31.149,4.28044577369));
#1442=CARTESIAN_POINT('Origin',(41.6136519567008,-15.649,7.09455624585403));
#1443=CARTESIAN_POINT('',(43.2636519567008,-15.649,6.89455624585403));
#1444=CARTESIAN_POINT('Origin',(41.6136519567008,-15.649,6.89455624585403));
#1445=CARTESIAN_POINT('',(43.6636519567008,-15.649,7.29455624585403));
#1446=CARTESIAN_POINT('',(43.4636519567008,-15.649,7.09455624585403));
#1447=CARTESIAN_POINT('Origin',(41.6136519567008,-15.649,7.29455624585403));
#1448=CARTESIAN_POINT('Origin',(36.1136519567008,-37.649,7.29455624585403));
#1449=CARTESIAN_POINT('',(36.0136519567008,-33.649,7.29455624585403));
#1450=CARTESIAN_POINT('',(36.0136519567008,-15.649,7.29455624585403));
#1451=CARTESIAN_POINT('',(36.0136519567008,-38.649,7.29455624585403));
#1452=CARTESIAN_POINT('',(47.2136519567008,-33.649,7.29455624585403));
#1453=CARTESIAN_POINT('Origin',(41.6136519567008,-33.649,7.29455624585403));
#1454=CARTESIAN_POINT('',(47.2136519567008,-15.649,7.29455624585403));
#1455=CARTESIAN_POINT('',(47.2136519567008,-23.649,7.29455624585403));
#1456=CARTESIAN_POINT('Origin',(41.6136519567008,-15.649,7.29455624585403));
#1457=CARTESIAN_POINT('',(43.6636519567008,-33.649,7.29455624585403));
#1458=CARTESIAN_POINT('Origin',(41.6136519567008,-33.649,7.29455624585403));
#1459=CARTESIAN_POINT('Origin',(41.6136519567008,-15.649,7.04455624585403));
#1460=CARTESIAN_POINT('',(43.2636519567008,-15.649,4.04455624585403));
#1461=CARTESIAN_POINT('',(43.2636519567008,-15.649,7.04455624585403));
#1462=CARTESIAN_POINT('Origin',(41.6136519567008,-15.649,4.04455624585403));
#1463=CARTESIAN_POINT('Origin',(41.6136519567008,-33.649,7.09455624585403));
#1464=CARTESIAN_POINT('',(43.2636519567008,-33.649,6.89455624585403));
#1465=CARTESIAN_POINT('Origin',(41.6136519567008,-33.649,6.89455624585403));
#1466=CARTESIAN_POINT('',(43.4636519567008,-33.649,7.09455624585403));
#1467=CARTESIAN_POINT('Origin',(41.6136519567008,-33.649,7.04455624585403));
#1468=CARTESIAN_POINT('',(43.2636519567008,-33.649,4.04455624585403));
#1469=CARTESIAN_POINT('',(43.2636519567008,-33.649,7.04455624585403));
#1470=CARTESIAN_POINT('Origin',(41.6136519567008,-33.649,4.04455624585403));
#1471=CARTESIAN_POINT('Origin',(35.8136519567008,-38.649,7.09455624585403));
#1472=CARTESIAN_POINT('',(36.0136519567008,-15.649,7.29455624585403));
#1473=CARTESIAN_POINT('',(35.6136519567008,-38.649,6.89455624585403));
#1474=CARTESIAN_POINT('',(35.6136519567008,-33.649,6.89455624585403));
#1475=CARTESIAN_POINT('Origin',(41.6136519567008,-15.649,7.09455624585403));
#1476=CARTESIAN_POINT('',(47.2136519567008,-15.649,7.29455624585403));
#1477=CARTESIAN_POINT('Origin',(47.4136519567008,-23.649,7.09455624585403));
#1478=CARTESIAN_POINT('',(47.2136519567008,-33.649,7.29455624585403));
#1479=CARTESIAN_POINT('',(47.6136519567008,-23.649,6.89455624585403));
#1480=CARTESIAN_POINT('Origin',(41.6136519567008,-33.649,7.09455624585403));
#1481=CARTESIAN_POINT('Origin',(35.6136519567008,-39.649,6.79455624585403));
#1482=CARTESIAN_POINT('',(35.6136519567008,-39.649,6.29455624585403));
#1483=CARTESIAN_POINT('Origin',(35.854060582677,-31.149,4.69455624585403));
#1484=CARTESIAN_POINT('',(35.854060582677,-31.149,6.29455624585403));
#1485=CARTESIAN_POINT('Origin',(47.3732433307245,-31.149,4.69455624585403));
#1486=CARTESIAN_POINT('',(47.3732433307245,-31.149,6.29455624585403));
#1487=CARTESIAN_POINT('Origin',(46.3838800473319,-24.649,6.29455624585403));
#1488=CARTESIAN_POINT('',(47.6136519567008,-9.649,6.29455624585403));
#1489=CARTESIAN_POINT('Origin',(47.6136519567008,-9.649,6.79455624585403));
#1490=CARTESIAN_POINT('Origin',(36.8434238660696,-24.649,6.29455624585403));
#1491=CARTESIAN_POINT('Origin',(44.4636519567008,-35.2944482671904,0.0445562458540278));
#1492=CARTESIAN_POINT('',(44.4636519567008,-35.2944482671904,4.04455624585403));
#1493=CARTESIAN_POINT('',(44.4636519567008,-35.2944482671904,0.0445562458540278));
#1494=CARTESIAN_POINT('',(44.4636519567008,-32.0035517328096,4.04455624585403));
#1495=CARTESIAN_POINT('',(44.4636519567008,-32.0035517328096,4.04455624585403));
#1496=CARTESIAN_POINT('',(44.4636519567008,-32.0035517328096,0.0445562458540278));
#1497=CARTESIAN_POINT('Origin',(41.6136519567008,-36.9398965343809,0.0445562458540278));
#1498=CARTESIAN_POINT('',(41.6136519567008,-36.9398965343809,4.04455624585403));
#1499=CARTESIAN_POINT('',(41.6136519567008,-36.9398965343809,0.0445562458540278));
#1500=CARTESIAN_POINT('',(44.4636519567008,-35.2944482671904,4.04455624585403));
#1501=CARTESIAN_POINT('Origin',(38.7636519567008,-35.2944482671904,0.0445562458540278));
#1502=CARTESIAN_POINT('',(38.7636519567008,-35.2944482671904,4.04455624585403));
#1503=CARTESIAN_POINT('',(38.7636519567008,-35.2944482671904,0.0445562458540278));
#1504=CARTESIAN_POINT('',(41.6136519567008,-36.9398965343809,4.04455624585403));
#1505=CARTESIAN_POINT('Origin',(38.7636519567008,-32.0035517328096,0.0445562458540278));
#1506=CARTESIAN_POINT('',(38.7636519567008,-32.0035517328096,4.04455624585403));
#1507=CARTESIAN_POINT('',(38.7636519567008,-32.0035517328096,0.0445562458540278));
#1508=CARTESIAN_POINT('',(38.7636519567008,-35.2944482671904,4.04455624585403));
#1509=CARTESIAN_POINT('Origin',(41.6136519567008,-30.3581034656191,0.0445562458540278));
#1510=CARTESIAN_POINT('',(41.6136519567008,-30.3581034656191,4.04455624585403));
#1511=CARTESIAN_POINT('',(41.6136519567008,-30.3581034656191,0.0445562458540278));
#1512=CARTESIAN_POINT('',(38.7636519567008,-32.0035517328096,4.04455624585403));
#1513=CARTESIAN_POINT('Origin',(44.4636519567008,-32.0035517328096,0.0445562458540278));
#1514=CARTESIAN_POINT('',(41.6136519567008,-30.3581034656191,4.04455624585403));
#1515=CARTESIAN_POINT('Origin',(41.6136519567008,-33.649,4.04455624585403));
#1516=CARTESIAN_POINT('Origin',(41.6136519567008,-18.9456700370728,0.0445562458540278));
#1517=CARTESIAN_POINT('',(41.6136519567008,-18.9456700370728,4.04455624585403));
#1518=CARTESIAN_POINT('',(41.6136519567008,-18.9456700370728,0.0445562458540278));
#1519=CARTESIAN_POINT('',(44.4686519567008,-17.2973350185364,4.04455624585403));
#1520=CARTESIAN_POINT('',(44.4686519567008,-17.2973350185364,4.04455624585403));
#1521=CARTESIAN_POINT('',(44.4686519567008,-17.2973350185364,0.0445562458540278));
#1522=CARTESIAN_POINT('Origin',(38.7586519567008,-17.2973350185364,0.0445562458540278));
#1523=CARTESIAN_POINT('',(38.7586519567008,-17.2973350185364,4.04455624585403));
#1524=CARTESIAN_POINT('',(38.7586519567008,-17.2973350185364,0.0445562458540278));
#1525=CARTESIAN_POINT('',(41.6136519567008,-18.9456700370728,4.04455624585403));
#1526=CARTESIAN_POINT('Origin',(38.7586519567008,-14.0006649814636,0.0445562458540278));
#1527=CARTESIAN_POINT('',(38.7586519567008,-14.0006649814636,4.04455624585403));
#1528=CARTESIAN_POINT('',(38.7586519567008,-14.0006649814636,0.0445562458540278));
#1529=CARTESIAN_POINT('',(38.7586519567008,-17.2973350185364,4.04455624585403));
#1530=CARTESIAN_POINT('Origin',(41.6136519567008,-12.3523299629272,0.0445562458540278));
#1531=CARTESIAN_POINT('',(41.6136519567008,-12.3523299629272,4.04455624585403));
#1532=CARTESIAN_POINT('',(41.6136519567008,-12.3523299629272,0.0445562458540278));
#1533=CARTESIAN_POINT('',(38.7586519567008,-14.0006649814636,4.04455624585403));
#1534=CARTESIAN_POINT('Origin',(44.4686519567008,-14.0006649814636,0.0445562458540278));
#1535=CARTESIAN_POINT('',(44.4686519567008,-14.0006649814636,4.04455624585403));
#1536=CARTESIAN_POINT('',(44.4686519567008,-14.0006649814636,0.0445562458540278));
#1537=CARTESIAN_POINT('',(41.6136519567008,-12.3523299629272,4.04455624585403));
#1538=CARTESIAN_POINT('Origin',(44.4686519567008,-17.2973350185364,0.0445562458540278));
#1539=CARTESIAN_POINT('',(44.4686519567008,-14.0006649814636,4.04455624585403));
#1540=CARTESIAN_POINT('Origin',(41.6136519567008,-15.649,4.04455624585403));
#1541=UNCERTAINTY_MEASURE_WITH_UNIT(LENGTH_MEASURE(0.01),#1545,
'DISTANCE_ACCURACY_VALUE',
'Maximum model space distance between geometric entities at asserted c
onnectivities');
#1542=UNCERTAINTY_MEASURE_WITH_UNIT(LENGTH_MEASURE(0.01),#1545,
'DISTANCE_ACCURACY_VALUE',
'Maximum model space distance between geometric entities at asserted c
onnectivities');
#1543=(
GEOMETRIC_REPRESENTATION_CONTEXT(3)
GLOBAL_UNCERTAINTY_ASSIGNED_CONTEXT((#1541))
GLOBAL_UNIT_ASSIGNED_CONTEXT((#1545,#1547,#1548))
REPRESENTATION_CONTEXT('','3D')
);
#1544=(
GEOMETRIC_REPRESENTATION_CONTEXT(3)
GLOBAL_UNCERTAINTY_ASSIGNED_CONTEXT((#1542))
GLOBAL_UNIT_ASSIGNED_CONTEXT((#1545,#1547,#1548))
REPRESENTATION_CONTEXT('','3D')
);
#1545=(
LENGTH_UNIT()
NAMED_UNIT(*)
SI_UNIT(.MILLI.,.METRE.)
);
#1546=(
LENGTH_UNIT()
NAMED_UNIT(*)
SI_UNIT($,.METRE.)
);
#1547=(
NAMED_UNIT(*)
PLANE_ANGLE_UNIT()
SI_UNIT($,.RADIAN.)
);
#1548=(
NAMED_UNIT(*)
SI_UNIT($,.STERADIAN.)
SOLID_ANGLE_UNIT()
);
#1549=SHAPE_DEFINITION_REPRESENTATION(#1550,#1551);
#1550=PRODUCT_DEFINITION_SHAPE('',$,#1553);
#1551=SHAPE_REPRESENTATION('',(#820),#1543);
#1552=PRODUCT_DEFINITION_CONTEXT('part definition',#1557,'design');
#1553=PRODUCT_DEFINITION('PETG_block','PETG_block',#1554,#1552);
#1554=PRODUCT_DEFINITION_FORMATION('',$,#1559);
#1555=PRODUCT_RELATED_PRODUCT_CATEGORY('PETG_block','PETG_block',(#1559));
#1556=APPLICATION_PROTOCOL_DEFINITION('international standard',
'automotive_design',2009,#1557);
#1557=APPLICATION_CONTEXT(
'Core Data for Automotive Mechanical Design Process');
#1558=PRODUCT_CONTEXT('part definition',#1557,'mechanical');
#1559=PRODUCT('PETG_block','PETG_block',$,(#1558));
#1560=PRESENTATION_STYLE_ASSIGNMENT((#1562));
#1561=PRESENTATION_STYLE_ASSIGNMENT((#1563));
#1562=SURFACE_STYLE_USAGE(.BOTH.,#1564);
#1563=SURFACE_STYLE_USAGE(.BOTH.,#1565);
#1564=SURFACE_SIDE_STYLE('',(#1566));
#1565=SURFACE_SIDE_STYLE('',(#1567));
#1566=SURFACE_STYLE_FILL_AREA(#1568);
#1567=SURFACE_STYLE_FILL_AREA(#1569);
#1568=FILL_AREA_STYLE('Steel - Satin',(#1570));
#1569=FILL_AREA_STYLE('Opaque(128,255,128)',(#1571));
#1570=FILL_AREA_STYLE_COLOUR('Steel - Satin',#1572);
#1571=FILL_AREA_STYLE_COLOUR('Opaque(128,255,128)',#1573);
#1572=COLOUR_RGB('Steel - Satin',0.627450980392157,0.627450980392157,0.627450980392157);
#1573=COLOUR_RGB('Opaque(128,255,128)',0.631372549019608,0.631372549019608,
0.631372549019608);
ENDSEC;
END-ISO-10303-21;
