ISO-10303-21;
HEADER;
/* Generated by software containing ST-Developer
 * from STEP Tools, Inc. (www.steptools.com) 
 */

FILE_DESCRIPTION(
/* description */ (''),
/* implementation_level */ '2;1');

FILE_NAME(
/* name */ 'PTFE_rail_support.step',
/* time_stamp */ '2026-08-04T14:50:35+02:00',
/* author */ (''),
/* organization */ (''),
/* preprocessor_version */ 'ST-DEVELOPER v20.1',
/* originating_system */ 'Autodesk Translation Framework v15.8.0.0',
/* authorisation */ '');

FILE_SCHEMA (('AUTOMOTIVE_DESIGN { 1 0 10303 214 3 1 1 }'));
ENDSEC;

DATA;
#10=MECHANICAL_DESIGN_GEOMETRIC_PRESENTATION_REPRESENTATION('',(#13),#2019);
#11=SHAPE_REPRESENTATION_RELATIONSHIP('SRR','None',#2026,#12);
#12=ADVANCED_BREP_SHAPE_REPRESENTATION('',(#14),#2018);
#13=STYLED_ITEM('',(#2036),#14);
#14=MANIFOLD_SOLID_BREP('Body1',#1103);
#15=PLANE('',#1191);
#16=PLANE('',#1198);
#17=PLANE('',#1201);
#18=PLANE('',#1204);
#19=PLANE('',#1209);
#20=PLANE('',#1274);
#21=PLANE('',#1276);
#22=PLANE('',#1278);
#23=PLANE('',#1280);
#24=PLANE('',#1282);
#25=PLANE('',#1284);
#26=PLANE('',#1285);
#27=SPHERICAL_SURFACE('',#1161,0.2);
#28=SPHERICAL_SURFACE('',#1178,0.2);
#29=SPHERICAL_SURFACE('',#1185,0.2);
#30=SPHERICAL_SURFACE('',#1187,0.2);
#31=SPHERICAL_SURFACE('',#1269,0.2);
#32=SPHERICAL_SURFACE('',#1270,0.2);
#33=SPHERICAL_SURFACE('',#1271,0.2);
#34=SPHERICAL_SURFACE('',#1272,0.2);
#35=LINE('',#1707,#99);
#36=LINE('',#1708,#100);
#37=LINE('',#1719,#101);
#38=LINE('',#1720,#102);
#39=LINE('',#1731,#103);
#40=LINE('',#1732,#104);
#41=LINE('',#1743,#105);
#42=LINE('',#1744,#106);
#43=LINE('',#1755,#107);
#44=LINE('',#1756,#108);
#45=LINE('',#1767,#109);
#46=LINE('',#1768,#110);
#47=LINE('',#1773,#111);
#48=LINE('',#1774,#112);
#49=LINE('',#1790,#113);
#50=LINE('',#1792,#114);
#51=LINE('',#1803,#115);
#52=LINE('',#1804,#116);
#53=LINE('',#1815,#117);
#54=LINE('',#1816,#118);
#55=LINE('',#1832,#119);
#56=LINE('',#1835,#120);
#57=LINE('',#1838,#121);
#58=LINE('',#1839,#122);
#59=LINE('',#1842,#123);
#60=LINE('',#1846,#124);
#61=LINE('',#1850,#125);
#62=LINE('',#1854,#126);
#63=LINE('',#1855,#127);
#64=LINE('',#1858,#128);
#65=LINE('',#1862,#129);
#66=LINE('',#1863,#130);
#67=LINE('',#1866,#131);
#68=LINE('',#1870,#132);
#69=LINE('',#1871,#133);
#70=LINE('',#1874,#134);
#71=LINE('',#1878,#135);
#72=LINE('',#1892,#136);
#73=LINE('',#1900,#137);
#74=LINE('',#1907,#138);
#75=LINE('',#1917,#139);
#76=LINE('',#1920,#140);
#77=LINE('',#1931,#141);
#78=LINE('',#1932,#142);
#79=LINE('',#1943,#143);
#80=LINE('',#1944,#144);
#81=LINE('',#1955,#145);
#82=LINE('',#1956,#146);
#83=LINE('',#1967,#147);
#84=LINE('',#1968,#148);
#85=LINE('',#1978,#149);
#86=LINE('',#1979,#150);
#87=LINE('',#1986,#151);
#88=LINE('',#1993,#152);
#89=LINE('',#1995,#153);
#90=LINE('',#1997,#154);
#91=LINE('',#1999,#155);
#92=LINE('',#2001,#156);
#93=LINE('',#2003,#157);
#94=LINE('',#2005,#158);
#95=LINE('',#2007,#159);
#96=LINE('',#2009,#160);
#97=LINE('',#2011,#161);
#98=LINE('',#2013,#162);
#99=VECTOR('',#1303,10.);
#100=VECTOR('',#1304,10.);
#101=VECTOR('',#1317,10.);
#102=VECTOR('',#1318,10.);
#103=VECTOR('',#1331,10.);
#104=VECTOR('',#1332,10.);
#105=VECTOR('',#1345,10.);
#106=VECTOR('',#1346,10.);
#107=VECTOR('',#1359,10.);
#108=VECTOR('',#1360,10.);
#109=VECTOR('',#1373,10.);
#110=VECTOR('',#1374,10.);
#111=VECTOR('',#1379,10.);
#112=VECTOR('',#1380,10.);
#113=VECTOR('',#1399,10.);
#114=VECTOR('',#1402,10.);
#115=VECTOR('',#1415,10.);
#116=VECTOR('',#1416,10.);
#117=VECTOR('',#1429,10.);
#118=VECTOR('',#1430,10.);
#119=VECTOR('',#1455,10.);
#120=VECTOR('',#1458,10.);
#121=VECTOR('',#1461,10.);
#122=VECTOR('',#1462,10.);
#123=VECTOR('',#1465,10.);
#124=VECTOR('',#1470,10.);
#125=VECTOR('',#1475,10.);
#126=VECTOR('',#1480,10.);
#127=VECTOR('',#1481,10.);
#128=VECTOR('',#1484,10.);
#129=VECTOR('',#1489,10.);
#130=VECTOR('',#1490,10.);
#131=VECTOR('',#1493,10.);
#132=VECTOR('',#1498,10.);
#133=VECTOR('',#1499,10.);
#134=VECTOR('',#1502,10.);
#135=VECTOR('',#1507,10.);
#136=VECTOR('',#1526,10.);
#137=VECTOR('',#1537,10.);
#138=VECTOR('',#1548,10.);
#139=VECTOR('',#1561,10.);
#140=VECTOR('',#1564,10.);
#141=VECTOR('',#1577,10.);
#142=VECTOR('',#1578,10.);
#143=VECTOR('',#1591,10.);
#144=VECTOR('',#1592,10.);
#145=VECTOR('',#1605,10.);
#146=VECTOR('',#1606,10.);
#147=VECTOR('',#1619,10.);
#148=VECTOR('',#1620,10.);
#149=VECTOR('',#1633,10.);
#150=VECTOR('',#1634,10.);
#151=VECTOR('',#1645,10.);
#152=VECTOR('',#1658,10.);
#153=VECTOR('',#1661,10.);
#154=VECTOR('',#1664,10.);
#155=VECTOR('',#1667,10.);
#156=VECTOR('',#1670,10.);
#157=VECTOR('',#1673,10.);
#158=VECTOR('',#1676,10.);
#159=VECTOR('',#1679,10.);
#160=VECTOR('',#1682,10.);
#161=VECTOR('',#1685,10.);
#162=VECTOR('',#1688,10.);
#163=CYLINDRICAL_SURFACE('',#1122,0.2);
#164=CYLINDRICAL_SURFACE('',#1128,0.2);
#165=CYLINDRICAL_SURFACE('',#1134,0.2);
#166=CYLINDRICAL_SURFACE('',#1140,0.2);
#167=CYLINDRICAL_SURFACE('',#1146,0.2);
#168=CYLINDRICAL_SURFACE('',#1152,0.2);
#169=CYLINDRICAL_SURFACE('',#1154,0.2);
#170=CYLINDRICAL_SURFACE('',#1163,0.2);
#171=CYLINDRICAL_SURFACE('',#1170,0.2);
#172=CYLINDRICAL_SURFACE('',#1176,0.2);
#173=CYLINDRICAL_SURFACE('',#1189,1.);
#174=CYLINDRICAL_SURFACE('',#1192,0.2);
#175=CYLINDRICAL_SURFACE('',#1194,2.125);
#176=CYLINDRICAL_SURFACE('',#1196,0.2);
#177=CYLINDRICAL_SURFACE('',#1199,0.5);
#178=CYLINDRICAL_SURFACE('',#1202,0.5);
#179=CYLINDRICAL_SURFACE('',#1205,0.2);
#180=CYLINDRICAL_SURFACE('',#1207,2.125);
#181=CYLINDRICAL_SURFACE('',#1214,0.2);
#182=CYLINDRICAL_SURFACE('',#1220,0.2);
#183=CYLINDRICAL_SURFACE('',#1225,0.2);
#184=CYLINDRICAL_SURFACE('',#1231,0.2);
#185=CYLINDRICAL_SURFACE('',#1238,0.2);
#186=CYLINDRICAL_SURFACE('',#1244,0.2);
#187=CYLINDRICAL_SURFACE('',#1250,0.2);
#188=CYLINDRICAL_SURFACE('',#1256,0.2);
#189=CYLINDRICAL_SURFACE('',#1262,0.2);
#190=CYLINDRICAL_SURFACE('',#1267,0.2);
#191=CYLINDRICAL_SURFACE('',#1275,1.);
#192=CYLINDRICAL_SURFACE('',#1277,1.);
#193=CYLINDRICAL_SURFACE('',#1279,1.);
#194=CYLINDRICAL_SURFACE('',#1281,1.);
#195=CYLINDRICAL_SURFACE('',#1283,1.);
#196=CYLINDRICAL_SURFACE('',#1286,0.2);
#197=FACE_OUTER_BOUND('',#271,.T.);
#198=FACE_OUTER_BOUND('',#272,.T.);
#199=FACE_OUTER_BOUND('',#273,.T.);
#200=FACE_OUTER_BOUND('',#274,.T.);
#201=FACE_OUTER_BOUND('',#275,.T.);
#202=FACE_OUTER_BOUND('',#276,.T.);
#203=FACE_OUTER_BOUND('',#277,.T.);
#204=FACE_OUTER_BOUND('',#278,.T.);
#205=FACE_OUTER_BOUND('',#279,.T.);
#206=FACE_OUTER_BOUND('',#280,.T.);
#207=FACE_OUTER_BOUND('',#281,.T.);
#208=FACE_OUTER_BOUND('',#282,.T.);
#209=FACE_OUTER_BOUND('',#283,.T.);
#210=FACE_OUTER_BOUND('',#284,.T.);
#211=FACE_OUTER_BOUND('',#285,.T.);
#212=FACE_OUTER_BOUND('',#286,.T.);
#213=FACE_OUTER_BOUND('',#287,.T.);
#214=FACE_OUTER_BOUND('',#288,.T.);
#215=FACE_OUTER_BOUND('',#289,.T.);
#216=FACE_OUTER_BOUND('',#290,.T.);
#217=FACE_OUTER_BOUND('',#291,.T.);
#218=FACE_OUTER_BOUND('',#292,.T.);
#219=FACE_OUTER_BOUND('',#293,.T.);
#220=FACE_OUTER_BOUND('',#294,.T.);
#221=FACE_OUTER_BOUND('',#295,.T.);
#222=FACE_OUTER_BOUND('',#296,.T.);
#223=FACE_OUTER_BOUND('',#297,.T.);
#224=FACE_OUTER_BOUND('',#298,.T.);
#225=FACE_OUTER_BOUND('',#299,.T.);
#226=FACE_OUTER_BOUND('',#300,.T.);
#227=FACE_OUTER_BOUND('',#301,.T.);
#228=FACE_OUTER_BOUND('',#302,.T.);
#229=FACE_OUTER_BOUND('',#303,.T.);
#230=FACE_OUTER_BOUND('',#304,.T.);
#231=FACE_OUTER_BOUND('',#305,.T.);
#232=FACE_OUTER_BOUND('',#306,.T.);
#233=FACE_OUTER_BOUND('',#307,.T.);
#234=FACE_OUTER_BOUND('',#308,.T.);
#235=FACE_OUTER_BOUND('',#309,.T.);
#236=FACE_OUTER_BOUND('',#310,.T.);
#237=FACE_OUTER_BOUND('',#311,.T.);
#238=FACE_OUTER_BOUND('',#312,.T.);
#239=FACE_OUTER_BOUND('',#313,.T.);
#240=FACE_OUTER_BOUND('',#314,.T.);
#241=FACE_OUTER_BOUND('',#315,.T.);
#242=FACE_OUTER_BOUND('',#316,.T.);
#243=FACE_OUTER_BOUND('',#317,.T.);
#244=FACE_OUTER_BOUND('',#318,.T.);
#245=FACE_OUTER_BOUND('',#319,.T.);
#246=FACE_OUTER_BOUND('',#320,.T.);
#247=FACE_OUTER_BOUND('',#321,.T.);
#248=FACE_OUTER_BOUND('',#322,.T.);
#249=FACE_OUTER_BOUND('',#323,.T.);
#250=FACE_OUTER_BOUND('',#324,.T.);
#251=FACE_OUTER_BOUND('',#325,.T.);
#252=FACE_OUTER_BOUND('',#326,.T.);
#253=FACE_OUTER_BOUND('',#327,.T.);
#254=FACE_OUTER_BOUND('',#328,.T.);
#255=FACE_OUTER_BOUND('',#329,.T.);
#256=FACE_OUTER_BOUND('',#330,.T.);
#257=FACE_OUTER_BOUND('',#331,.T.);
#258=FACE_OUTER_BOUND('',#332,.T.);
#259=FACE_OUTER_BOUND('',#333,.T.);
#260=FACE_OUTER_BOUND('',#334,.T.);
#261=FACE_OUTER_BOUND('',#335,.T.);
#262=FACE_OUTER_BOUND('',#336,.T.);
#263=FACE_OUTER_BOUND('',#337,.T.);
#264=FACE_OUTER_BOUND('',#338,.T.);
#265=FACE_OUTER_BOUND('',#339,.T.);
#266=FACE_OUTER_BOUND('',#340,.T.);
#267=FACE_OUTER_BOUND('',#341,.T.);
#268=FACE_OUTER_BOUND('',#342,.T.);
#269=FACE_OUTER_BOUND('',#343,.T.);
#270=FACE_OUTER_BOUND('',#344,.T.);
#271=EDGE_LOOP('',(#689,#690,#691,#692));
#272=EDGE_LOOP('',(#693,#694,#695,#696));
#273=EDGE_LOOP('',(#697,#698,#699,#700));
#274=EDGE_LOOP('',(#701,#702,#703,#704));
#275=EDGE_LOOP('',(#705,#706,#707,#708));
#276=EDGE_LOOP('',(#709,#710,#711,#712));
#277=EDGE_LOOP('',(#713,#714,#715,#716));
#278=EDGE_LOOP('',(#717,#718,#719,#720));
#279=EDGE_LOOP('',(#721,#722,#723,#724));
#280=EDGE_LOOP('',(#725,#726,#727,#728));
#281=EDGE_LOOP('',(#729,#730,#731,#732));
#282=EDGE_LOOP('',(#733,#734,#735,#736));
#283=EDGE_LOOP('',(#737,#738,#739,#740));
#284=EDGE_LOOP('',(#741,#742,#743,#744));
#285=EDGE_LOOP('',(#745,#746,#747));
#286=EDGE_LOOP('',(#748,#749,#750,#751));
#287=EDGE_LOOP('',(#752,#753,#754,#755));
#288=EDGE_LOOP('',(#756,#757,#758,#759));
#289=EDGE_LOOP('',(#760,#761,#762,#763));
#290=EDGE_LOOP('',(#764,#765,#766,#767));
#291=EDGE_LOOP('',(#768,#769,#770));
#292=EDGE_LOOP('',(#771,#772,#773,#774));
#293=EDGE_LOOP('',(#775,#776,#777));
#294=EDGE_LOOP('',(#778,#779,#780));
#295=EDGE_LOOP('',(#781,#782,#783,#784));
#296=EDGE_LOOP('',(#785,#786,#787,#788));
#297=EDGE_LOOP('',(#789,#790,#791,#792));
#298=EDGE_LOOP('',(#793,#794,#795,#796));
#299=EDGE_LOOP('',(#797,#798,#799,#800));
#300=EDGE_LOOP('',(#801,#802,#803,#804));
#301=EDGE_LOOP('',(#805,#806,#807,#808));
#302=EDGE_LOOP('',(#809,#810,#811,#812));
#303=EDGE_LOOP('',(#813,#814,#815,#816));
#304=EDGE_LOOP('',(#817,#818,#819,#820));
#305=EDGE_LOOP('',(#821,#822,#823,#824));
#306=EDGE_LOOP('',(#825,#826,#827,#828));
#307=EDGE_LOOP('',(#829,#830,#831,#832,#833,#834,#835,#836,#837,#838,#839,
#840,#841,#842,#843,#844,#845,#846,#847,#848));
#308=EDGE_LOOP('',(#849,#850,#851,#852));
#309=EDGE_LOOP('',(#853,#854,#855,#856));
#310=EDGE_LOOP('',(#857,#858,#859,#860));
#311=EDGE_LOOP('',(#861,#862,#863,#864));
#312=EDGE_LOOP('',(#865,#866,#867,#868));
#313=EDGE_LOOP('',(#869,#870,#871,#872));
#314=EDGE_LOOP('',(#873,#874,#875,#876));
#315=EDGE_LOOP('',(#877,#878,#879,#880));
#316=EDGE_LOOP('',(#881,#882,#883,#884));
#317=EDGE_LOOP('',(#885,#886,#887,#888));
#318=EDGE_LOOP('',(#889,#890,#891,#892));
#319=EDGE_LOOP('',(#893,#894,#895,#896));
#320=EDGE_LOOP('',(#897,#898,#899,#900));
#321=EDGE_LOOP('',(#901,#902,#903,#904));
#322=EDGE_LOOP('',(#905,#906,#907,#908));
#323=EDGE_LOOP('',(#909,#910,#911,#912));
#324=EDGE_LOOP('',(#913,#914,#915,#916));
#325=EDGE_LOOP('',(#917,#918,#919,#920));
#326=EDGE_LOOP('',(#921,#922,#923,#924));
#327=EDGE_LOOP('',(#925,#926,#927,#928));
#328=EDGE_LOOP('',(#929,#930,#931));
#329=EDGE_LOOP('',(#932,#933,#934));
#330=EDGE_LOOP('',(#935,#936,#937));
#331=EDGE_LOOP('',(#938,#939,#940));
#332=EDGE_LOOP('',(#941,#942,#943,#944));
#333=EDGE_LOOP('',(#945,#946,#947,#948));
#334=EDGE_LOOP('',(#949,#950,#951,#952));
#335=EDGE_LOOP('',(#953,#954,#955,#956));
#336=EDGE_LOOP('',(#957,#958,#959,#960));
#337=EDGE_LOOP('',(#961,#962,#963,#964));
#338=EDGE_LOOP('',(#965,#966,#967,#968));
#339=EDGE_LOOP('',(#969,#970,#971,#972));
#340=EDGE_LOOP('',(#973,#974,#975,#976));
#341=EDGE_LOOP('',(#977,#978,#979,#980));
#342=EDGE_LOOP('',(#981,#982,#983,#984));
#343=EDGE_LOOP('',(#985,#986,#987,#988,#989,#990,#991,#992,#993,#994,#995,
#996,#997,#998,#999,#1000,#1001,#1002,#1003,#1004));
#344=EDGE_LOOP('',(#1005,#1006,#1007,#1008));
#345=CIRCLE('',#1118,0.199999999999996);
#346=CIRCLE('',#1119,0.8);
#347=CIRCLE('',#1120,0.199999999999996);
#348=CIRCLE('',#1121,1.);
#349=CIRCLE('',#1123,0.199999999999996);
#350=CIRCLE('',#1125,0.199999999999996);
#351=CIRCLE('',#1126,1.);
#352=CIRCLE('',#1127,0.8);
#353=CIRCLE('',#1129,0.199999999999996);
#354=CIRCLE('',#1131,0.199999999999996);
#355=CIRCLE('',#1132,1.);
#356=CIRCLE('',#1133,0.8);
#357=CIRCLE('',#1135,0.199999999999996);
#358=CIRCLE('',#1137,0.199999999999996);
#359=CIRCLE('',#1138,1.);
#360=CIRCLE('',#1139,0.8);
#361=CIRCLE('',#1141,0.199999999999996);
#362=CIRCLE('',#1143,0.199999999999996);
#363=CIRCLE('',#1144,1.);
#364=CIRCLE('',#1145,0.8);
#365=CIRCLE('',#1147,0.199999999999996);
#366=CIRCLE('',#1149,0.199999999999996);
#367=CIRCLE('',#1150,1.);
#368=CIRCLE('',#1151,0.8);
#369=CIRCLE('',#1153,0.199999999999996);
#370=CIRCLE('',#1155,0.2);
#371=CIRCLE('',#1157,0.199999999999996);
#372=CIRCLE('',#1158,2.125);
#373=CIRCLE('',#1159,0.200000000000005);
#374=CIRCLE('',#1160,2.325);
#375=CIRCLE('',#1162,0.199999999999999);
#376=CIRCLE('',#1164,0.199999999999996);
#377=CIRCLE('',#1165,0.199999999999987);
#378=CIRCLE('',#1167,0.199999999999996);
#379=CIRCLE('',#1168,0.5);
#380=CIRCLE('',#1169,0.7);
#381=CIRCLE('',#1171,0.199999999999996);
#382=CIRCLE('',#1173,0.199999999999996);
#383=CIRCLE('',#1174,0.5);
#384=CIRCLE('',#1175,0.7);
#385=CIRCLE('',#1177,0.199999999999996);
#386=CIRCLE('',#1179,0.2);
#387=CIRCLE('',#1181,0.199999999999996);
#388=CIRCLE('',#1182,2.125);
#389=CIRCLE('',#1183,0.2);
#390=CIRCLE('',#1184,2.325);
#391=CIRCLE('',#1186,0.199999999999999);
#392=CIRCLE('',#1188,0.2);
#393=CIRCLE('',#1190,1.);
#394=CIRCLE('',#1193,0.199999999999999);
#395=CIRCLE('',#1195,2.125);
#396=CIRCLE('',#1197,0.2);
#397=CIRCLE('',#1200,0.5);
#398=CIRCLE('',#1203,0.5);
#399=CIRCLE('',#1206,0.199999999999999);
#400=CIRCLE('',#1208,2.125);
#401=CIRCLE('',#1211,0.2);
#402=CIRCLE('',#1212,2.325);
#403=CIRCLE('',#1213,0.2);
#404=CIRCLE('',#1215,0.2);
#405=CIRCLE('',#1216,0.199999999999987);
#406=CIRCLE('',#1218,0.2);
#407=CIRCLE('',#1219,0.7);
#408=CIRCLE('',#1221,0.2);
#409=CIRCLE('',#1223,0.200000000000005);
#410=CIRCLE('',#1224,0.7);
#411=CIRCLE('',#1226,0.199999999999996);
#412=CIRCLE('',#1228,0.2);
#413=CIRCLE('',#1229,0.199999999999998);
#414=CIRCLE('',#1230,2.325);
#415=CIRCLE('',#1232,0.2);
#416=CIRCLE('',#1233,0.2);
#417=CIRCLE('',#1235,0.2);
#418=CIRCLE('',#1236,0.8);
#419=CIRCLE('',#1237,1.);
#420=CIRCLE('',#1239,0.2);
#421=CIRCLE('',#1241,0.199999999999996);
#422=CIRCLE('',#1242,0.8);
#423=CIRCLE('',#1243,1.);
#424=CIRCLE('',#1245,0.199999999999996);
#425=CIRCLE('',#1247,0.2);
#426=CIRCLE('',#1248,0.8);
#427=CIRCLE('',#1249,1.);
#428=CIRCLE('',#1251,0.2);
#429=CIRCLE('',#1253,0.199999999999996);
#430=CIRCLE('',#1254,0.8);
#431=CIRCLE('',#1255,1.);
#432=CIRCLE('',#1257,0.199999999999996);
#433=CIRCLE('',#1259,0.2);
#434=CIRCLE('',#1260,0.8);
#435=CIRCLE('',#1261,1.);
#436=CIRCLE('',#1263,0.2);
#437=CIRCLE('',#1265,0.200000000000005);
#438=CIRCLE('',#1266,0.8);
#439=CIRCLE('',#1268,0.199999999999996);
#440=CIRCLE('',#1273,0.2);
#441=VERTEX_POINT('',#1695);
#442=VERTEX_POINT('',#1696);
#443=VERTEX_POINT('',#1698);
#444=VERTEX_POINT('',#1700);
#445=VERTEX_POINT('',#1704);
#446=VERTEX_POINT('',#1705);
#447=VERTEX_POINT('',#1710);
#448=VERTEX_POINT('',#1711);
#449=VERTEX_POINT('',#1716);
#450=VERTEX_POINT('',#1717);
#451=VERTEX_POINT('',#1722);
#452=VERTEX_POINT('',#1723);
#453=VERTEX_POINT('',#1728);
#454=VERTEX_POINT('',#1729);
#455=VERTEX_POINT('',#1734);
#456=VERTEX_POINT('',#1735);
#457=VERTEX_POINT('',#1740);
#458=VERTEX_POINT('',#1741);
#459=VERTEX_POINT('',#1746);
#460=VERTEX_POINT('',#1747);
#461=VERTEX_POINT('',#1752);
#462=VERTEX_POINT('',#1753);
#463=VERTEX_POINT('',#1758);
#464=VERTEX_POINT('',#1759);
#465=VERTEX_POINT('',#1764);
#466=VERTEX_POINT('',#1765);
#467=VERTEX_POINT('',#1770);
#468=VERTEX_POINT('',#1771);
#469=VERTEX_POINT('',#1776);
#470=VERTEX_POINT('',#1777);
#471=VERTEX_POINT('',#1779);
#472=VERTEX_POINT('',#1786);
#473=VERTEX_POINT('',#1787);
#474=VERTEX_POINT('',#1789);
#475=VERTEX_POINT('',#1794);
#476=VERTEX_POINT('',#1795);
#477=VERTEX_POINT('',#1800);
#478=VERTEX_POINT('',#1801);
#479=VERTEX_POINT('',#1806);
#480=VERTEX_POINT('',#1807);
#481=VERTEX_POINT('',#1812);
#482=VERTEX_POINT('',#1813);
#483=VERTEX_POINT('',#1820);
#484=VERTEX_POINT('',#1822);
#485=VERTEX_POINT('',#1831);
#486=VERTEX_POINT('',#1833);
#487=VERTEX_POINT('',#1837);
#488=VERTEX_POINT('',#1841);
#489=VERTEX_POINT('',#1845);
#490=VERTEX_POINT('',#1849);
#491=VERTEX_POINT('',#1853);
#492=VERTEX_POINT('',#1857);
#493=VERTEX_POINT('',#1861);
#494=VERTEX_POINT('',#1865);
#495=VERTEX_POINT('',#1869);
#496=VERTEX_POINT('',#1873);
#497=VERTEX_POINT('',#1877);
#498=VERTEX_POINT('',#1882);
#499=VERTEX_POINT('',#1884);
#500=VERTEX_POINT('',#1888);
#501=VERTEX_POINT('',#1890);
#502=VERTEX_POINT('',#1894);
#503=VERTEX_POINT('',#1898);
#504=VERTEX_POINT('',#1902);
#505=VERTEX_POINT('',#1909);
#506=VERTEX_POINT('',#1914);
#507=VERTEX_POINT('',#1916);
#508=VERTEX_POINT('',#1918);
#509=VERTEX_POINT('',#1922);
#510=VERTEX_POINT('',#1923);
#511=VERTEX_POINT('',#1928);
#512=VERTEX_POINT('',#1929);
#513=VERTEX_POINT('',#1934);
#514=VERTEX_POINT('',#1935);
#515=VERTEX_POINT('',#1940);
#516=VERTEX_POINT('',#1941);
#517=VERTEX_POINT('',#1946);
#518=VERTEX_POINT('',#1947);
#519=VERTEX_POINT('',#1952);
#520=VERTEX_POINT('',#1953);
#521=VERTEX_POINT('',#1958);
#522=VERTEX_POINT('',#1959);
#523=VERTEX_POINT('',#1964);
#524=VERTEX_POINT('',#1965);
#525=VERTEX_POINT('',#1970);
#526=VERTEX_POINT('',#1971);
#527=VERTEX_POINT('',#1976);
#528=VERTEX_POINT('',#1981);
#529=EDGE_CURVE('',#441,#442,#345,.T.);
#530=EDGE_CURVE('',#442,#443,#346,.T.);
#531=EDGE_CURVE('',#443,#444,#347,.T.);
#532=EDGE_CURVE('',#444,#441,#348,.T.);
#533=EDGE_CURVE('',#445,#446,#349,.T.);
#534=EDGE_CURVE('',#446,#444,#35,.T.);
#535=EDGE_CURVE('',#443,#445,#36,.T.);
#536=EDGE_CURVE('',#447,#448,#350,.T.);
#537=EDGE_CURVE('',#448,#446,#351,.T.);
#538=EDGE_CURVE('',#445,#447,#352,.T.);
#539=EDGE_CURVE('',#449,#450,#353,.T.);
#540=EDGE_CURVE('',#450,#448,#37,.T.);
#541=EDGE_CURVE('',#447,#449,#38,.T.);
#542=EDGE_CURVE('',#451,#452,#354,.T.);
#543=EDGE_CURVE('',#452,#450,#355,.T.);
#544=EDGE_CURVE('',#449,#451,#356,.T.);
#545=EDGE_CURVE('',#453,#454,#357,.T.);
#546=EDGE_CURVE('',#454,#452,#39,.T.);
#547=EDGE_CURVE('',#451,#453,#40,.T.);
#548=EDGE_CURVE('',#455,#456,#358,.T.);
#549=EDGE_CURVE('',#456,#454,#359,.T.);
#550=EDGE_CURVE('',#453,#455,#360,.T.);
#551=EDGE_CURVE('',#457,#458,#361,.T.);
#552=EDGE_CURVE('',#458,#456,#41,.T.);
#553=EDGE_CURVE('',#455,#457,#42,.T.);
#554=EDGE_CURVE('',#459,#460,#362,.T.);
#555=EDGE_CURVE('',#460,#458,#363,.T.);
#556=EDGE_CURVE('',#457,#459,#364,.T.);
#557=EDGE_CURVE('',#461,#462,#365,.T.);
#558=EDGE_CURVE('',#462,#460,#43,.T.);
#559=EDGE_CURVE('',#459,#461,#44,.T.);
#560=EDGE_CURVE('',#463,#464,#366,.T.);
#561=EDGE_CURVE('',#464,#462,#367,.T.);
#562=EDGE_CURVE('',#461,#463,#368,.T.);
#563=EDGE_CURVE('',#465,#466,#369,.T.);
#564=EDGE_CURVE('',#466,#464,#45,.T.);
#565=EDGE_CURVE('',#463,#465,#46,.T.);
#566=EDGE_CURVE('',#467,#468,#370,.T.);
#567=EDGE_CURVE('',#468,#442,#47,.T.);
#568=EDGE_CURVE('',#441,#467,#48,.T.);
#569=EDGE_CURVE('',#469,#470,#371,.T.);
#570=EDGE_CURVE('',#470,#471,#372,.T.);
#571=EDGE_CURVE('',#471,#465,#373,.T.);
#572=EDGE_CURVE('',#465,#469,#374,.T.);
#573=EDGE_CURVE('',#471,#466,#375,.T.);
#574=EDGE_CURVE('',#472,#473,#376,.T.);
#575=EDGE_CURVE('',#473,#474,#49,.T.);
#576=EDGE_CURVE('',#474,#469,#377,.T.);
#577=EDGE_CURVE('',#469,#472,#50,.T.);
#578=EDGE_CURVE('',#475,#476,#378,.T.);
#579=EDGE_CURVE('',#476,#473,#379,.T.);
#580=EDGE_CURVE('',#472,#475,#380,.T.);
#581=EDGE_CURVE('',#477,#478,#381,.T.);
#582=EDGE_CURVE('',#478,#476,#51,.T.);
#583=EDGE_CURVE('',#475,#477,#52,.T.);
#584=EDGE_CURVE('',#479,#480,#382,.T.);
#585=EDGE_CURVE('',#480,#478,#383,.T.);
#586=EDGE_CURVE('',#477,#479,#384,.T.);
#587=EDGE_CURVE('',#481,#482,#385,.T.);
#588=EDGE_CURVE('',#482,#480,#53,.T.);
#589=EDGE_CURVE('',#479,#481,#54,.T.);
#590=EDGE_CURVE('',#474,#470,#386,.T.);
#591=EDGE_CURVE('',#468,#483,#387,.T.);
#592=EDGE_CURVE('',#483,#484,#388,.T.);
#593=EDGE_CURVE('',#484,#481,#389,.T.);
#594=EDGE_CURVE('',#481,#468,#390,.T.);
#595=EDGE_CURVE('',#484,#482,#391,.T.);
#596=EDGE_CURVE('',#467,#483,#392,.T.);
#597=EDGE_CURVE('',#464,#485,#55,.T.);
#598=EDGE_CURVE('',#486,#485,#393,.T.);
#599=EDGE_CURVE('',#486,#462,#56,.T.);
#600=EDGE_CURVE('',#487,#466,#57,.T.);
#601=EDGE_CURVE('',#485,#487,#58,.T.);
#602=EDGE_CURVE('',#471,#488,#59,.T.);
#603=EDGE_CURVE('',#487,#488,#394,.T.);
#604=EDGE_CURVE('',#489,#470,#60,.T.);
#605=EDGE_CURVE('',#488,#489,#395,.T.);
#606=EDGE_CURVE('',#474,#490,#61,.T.);
#607=EDGE_CURVE('',#489,#490,#396,.T.);
#608=EDGE_CURVE('',#491,#473,#62,.T.);
#609=EDGE_CURVE('',#490,#491,#63,.T.);
#610=EDGE_CURVE('',#476,#492,#64,.T.);
#611=EDGE_CURVE('',#491,#492,#397,.T.);
#612=EDGE_CURVE('',#493,#478,#65,.T.);
#613=EDGE_CURVE('',#492,#493,#66,.T.);
#614=EDGE_CURVE('',#480,#494,#67,.T.);
#615=EDGE_CURVE('',#493,#494,#398,.T.);
#616=EDGE_CURVE('',#495,#482,#68,.T.);
#617=EDGE_CURVE('',#494,#495,#69,.T.);
#618=EDGE_CURVE('',#484,#496,#70,.T.);
#619=EDGE_CURVE('',#495,#496,#399,.T.);
#620=EDGE_CURVE('',#497,#483,#71,.T.);
#621=EDGE_CURVE('',#496,#497,#400,.T.);
#622=EDGE_CURVE('',#497,#498,#401,.T.);
#623=EDGE_CURVE('',#498,#499,#402,.T.);
#624=EDGE_CURVE('',#499,#496,#403,.T.);
#625=EDGE_CURVE('',#500,#490,#404,.T.);
#626=EDGE_CURVE('',#491,#501,#405,.T.);
#627=EDGE_CURVE('',#501,#500,#72,.T.);
#628=EDGE_CURVE('',#492,#502,#406,.T.);
#629=EDGE_CURVE('',#502,#501,#407,.T.);
#630=EDGE_CURVE('',#493,#503,#408,.T.);
#631=EDGE_CURVE('',#503,#502,#73,.T.);
#632=EDGE_CURVE('',#494,#504,#409,.T.);
#633=EDGE_CURVE('',#504,#503,#410,.T.);
#634=EDGE_CURVE('',#495,#499,#411,.T.);
#635=EDGE_CURVE('',#499,#504,#74,.T.);
#636=EDGE_CURVE('',#505,#488,#412,.T.);
#637=EDGE_CURVE('',#489,#500,#413,.T.);
#638=EDGE_CURVE('',#500,#505,#414,.T.);
#639=EDGE_CURVE('',#498,#506,#415,.T.);
#640=EDGE_CURVE('',#506,#507,#75,.T.);
#641=EDGE_CURVE('',#507,#508,#416,.T.);
#642=EDGE_CURVE('',#508,#498,#76,.T.);
#643=EDGE_CURVE('',#509,#510,#417,.T.);
#644=EDGE_CURVE('',#510,#508,#418,.T.);
#645=EDGE_CURVE('',#507,#509,#419,.T.);
#646=EDGE_CURVE('',#511,#512,#420,.T.);
#647=EDGE_CURVE('',#512,#510,#77,.T.);
#648=EDGE_CURVE('',#509,#511,#78,.T.);
#649=EDGE_CURVE('',#513,#514,#421,.T.);
#650=EDGE_CURVE('',#514,#512,#422,.T.);
#651=EDGE_CURVE('',#511,#513,#423,.T.);
#652=EDGE_CURVE('',#515,#516,#424,.T.);
#653=EDGE_CURVE('',#516,#514,#79,.T.);
#654=EDGE_CURVE('',#513,#515,#80,.T.);
#655=EDGE_CURVE('',#517,#518,#425,.T.);
#656=EDGE_CURVE('',#518,#516,#426,.T.);
#657=EDGE_CURVE('',#515,#517,#427,.T.);
#658=EDGE_CURVE('',#519,#520,#428,.T.);
#659=EDGE_CURVE('',#520,#518,#81,.T.);
#660=EDGE_CURVE('',#517,#519,#82,.T.);
#661=EDGE_CURVE('',#521,#522,#429,.T.);
#662=EDGE_CURVE('',#522,#520,#430,.T.);
#663=EDGE_CURVE('',#519,#521,#431,.T.);
#664=EDGE_CURVE('',#523,#524,#432,.T.);
#665=EDGE_CURVE('',#524,#522,#83,.T.);
#666=EDGE_CURVE('',#521,#523,#84,.T.);
#667=EDGE_CURVE('',#525,#526,#433,.T.);
#668=EDGE_CURVE('',#526,#524,#434,.T.);
#669=EDGE_CURVE('',#523,#525,#435,.T.);
#670=EDGE_CURVE('',#486,#527,#436,.T.);
#671=EDGE_CURVE('',#527,#526,#85,.T.);
#672=EDGE_CURVE('',#525,#486,#86,.T.);
#673=EDGE_CURVE('',#485,#528,#437,.T.);
#674=EDGE_CURVE('',#528,#527,#438,.T.);
#675=EDGE_CURVE('',#487,#505,#439,.T.);
#676=EDGE_CURVE('',#505,#528,#87,.T.);
#677=EDGE_CURVE('',#497,#506,#440,.T.);
#678=EDGE_CURVE('',#460,#525,#88,.T.);
#679=EDGE_CURVE('',#523,#458,#89,.T.);
#680=EDGE_CURVE('',#456,#521,#90,.T.);
#681=EDGE_CURVE('',#519,#454,#91,.T.);
#682=EDGE_CURVE('',#452,#517,#92,.T.);
#683=EDGE_CURVE('',#515,#450,#93,.T.);
#684=EDGE_CURVE('',#448,#513,#94,.T.);
#685=EDGE_CURVE('',#511,#446,#95,.T.);
#686=EDGE_CURVE('',#444,#509,#96,.T.);
#687=EDGE_CURVE('',#507,#441,#97,.T.);
#688=EDGE_CURVE('',#467,#506,#98,.T.);
#689=ORIENTED_EDGE('',*,*,#529,.T.);
#690=ORIENTED_EDGE('',*,*,#530,.T.);
#691=ORIENTED_EDGE('',*,*,#531,.T.);
#692=ORIENTED_EDGE('',*,*,#532,.T.);
#693=ORIENTED_EDGE('',*,*,#533,.T.);
#694=ORIENTED_EDGE('',*,*,#534,.T.);
#695=ORIENTED_EDGE('',*,*,#531,.F.);
#696=ORIENTED_EDGE('',*,*,#535,.T.);
#697=ORIENTED_EDGE('',*,*,#536,.T.);
#698=ORIENTED_EDGE('',*,*,#537,.T.);
#699=ORIENTED_EDGE('',*,*,#533,.F.);
#700=ORIENTED_EDGE('',*,*,#538,.T.);
#701=ORIENTED_EDGE('',*,*,#539,.T.);
#702=ORIENTED_EDGE('',*,*,#540,.T.);
#703=ORIENTED_EDGE('',*,*,#536,.F.);
#704=ORIENTED_EDGE('',*,*,#541,.T.);
#705=ORIENTED_EDGE('',*,*,#542,.T.);
#706=ORIENTED_EDGE('',*,*,#543,.T.);
#707=ORIENTED_EDGE('',*,*,#539,.F.);
#708=ORIENTED_EDGE('',*,*,#544,.T.);
#709=ORIENTED_EDGE('',*,*,#545,.T.);
#710=ORIENTED_EDGE('',*,*,#546,.T.);
#711=ORIENTED_EDGE('',*,*,#542,.F.);
#712=ORIENTED_EDGE('',*,*,#547,.T.);
#713=ORIENTED_EDGE('',*,*,#548,.T.);
#714=ORIENTED_EDGE('',*,*,#549,.T.);
#715=ORIENTED_EDGE('',*,*,#545,.F.);
#716=ORIENTED_EDGE('',*,*,#550,.T.);
#717=ORIENTED_EDGE('',*,*,#551,.T.);
#718=ORIENTED_EDGE('',*,*,#552,.T.);
#719=ORIENTED_EDGE('',*,*,#548,.F.);
#720=ORIENTED_EDGE('',*,*,#553,.T.);
#721=ORIENTED_EDGE('',*,*,#554,.T.);
#722=ORIENTED_EDGE('',*,*,#555,.T.);
#723=ORIENTED_EDGE('',*,*,#551,.F.);
#724=ORIENTED_EDGE('',*,*,#556,.T.);
#725=ORIENTED_EDGE('',*,*,#557,.T.);
#726=ORIENTED_EDGE('',*,*,#558,.T.);
#727=ORIENTED_EDGE('',*,*,#554,.F.);
#728=ORIENTED_EDGE('',*,*,#559,.T.);
#729=ORIENTED_EDGE('',*,*,#560,.T.);
#730=ORIENTED_EDGE('',*,*,#561,.T.);
#731=ORIENTED_EDGE('',*,*,#557,.F.);
#732=ORIENTED_EDGE('',*,*,#562,.T.);
#733=ORIENTED_EDGE('',*,*,#563,.T.);
#734=ORIENTED_EDGE('',*,*,#564,.T.);
#735=ORIENTED_EDGE('',*,*,#560,.F.);
#736=ORIENTED_EDGE('',*,*,#565,.T.);
#737=ORIENTED_EDGE('',*,*,#566,.T.);
#738=ORIENTED_EDGE('',*,*,#567,.T.);
#739=ORIENTED_EDGE('',*,*,#529,.F.);
#740=ORIENTED_EDGE('',*,*,#568,.T.);
#741=ORIENTED_EDGE('',*,*,#569,.T.);
#742=ORIENTED_EDGE('',*,*,#570,.T.);
#743=ORIENTED_EDGE('',*,*,#571,.T.);
#744=ORIENTED_EDGE('',*,*,#572,.T.);
#745=ORIENTED_EDGE('',*,*,#571,.F.);
#746=ORIENTED_EDGE('',*,*,#573,.T.);
#747=ORIENTED_EDGE('',*,*,#563,.F.);
#748=ORIENTED_EDGE('',*,*,#574,.T.);
#749=ORIENTED_EDGE('',*,*,#575,.T.);
#750=ORIENTED_EDGE('',*,*,#576,.T.);
#751=ORIENTED_EDGE('',*,*,#577,.T.);
#752=ORIENTED_EDGE('',*,*,#578,.T.);
#753=ORIENTED_EDGE('',*,*,#579,.T.);
#754=ORIENTED_EDGE('',*,*,#574,.F.);
#755=ORIENTED_EDGE('',*,*,#580,.T.);
#756=ORIENTED_EDGE('',*,*,#581,.T.);
#757=ORIENTED_EDGE('',*,*,#582,.T.);
#758=ORIENTED_EDGE('',*,*,#578,.F.);
#759=ORIENTED_EDGE('',*,*,#583,.T.);
#760=ORIENTED_EDGE('',*,*,#584,.T.);
#761=ORIENTED_EDGE('',*,*,#585,.T.);
#762=ORIENTED_EDGE('',*,*,#581,.F.);
#763=ORIENTED_EDGE('',*,*,#586,.T.);
#764=ORIENTED_EDGE('',*,*,#587,.T.);
#765=ORIENTED_EDGE('',*,*,#588,.T.);
#766=ORIENTED_EDGE('',*,*,#584,.F.);
#767=ORIENTED_EDGE('',*,*,#589,.T.);
#768=ORIENTED_EDGE('',*,*,#576,.F.);
#769=ORIENTED_EDGE('',*,*,#590,.T.);
#770=ORIENTED_EDGE('',*,*,#569,.F.);
#771=ORIENTED_EDGE('',*,*,#591,.T.);
#772=ORIENTED_EDGE('',*,*,#592,.T.);
#773=ORIENTED_EDGE('',*,*,#593,.T.);
#774=ORIENTED_EDGE('',*,*,#594,.T.);
#775=ORIENTED_EDGE('',*,*,#593,.F.);
#776=ORIENTED_EDGE('',*,*,#595,.T.);
#777=ORIENTED_EDGE('',*,*,#587,.F.);
#778=ORIENTED_EDGE('',*,*,#566,.F.);
#779=ORIENTED_EDGE('',*,*,#596,.T.);
#780=ORIENTED_EDGE('',*,*,#591,.F.);
#781=ORIENTED_EDGE('',*,*,#561,.F.);
#782=ORIENTED_EDGE('',*,*,#597,.T.);
#783=ORIENTED_EDGE('',*,*,#598,.F.);
#784=ORIENTED_EDGE('',*,*,#599,.T.);
#785=ORIENTED_EDGE('',*,*,#564,.F.);
#786=ORIENTED_EDGE('',*,*,#600,.F.);
#787=ORIENTED_EDGE('',*,*,#601,.F.);
#788=ORIENTED_EDGE('',*,*,#597,.F.);
#789=ORIENTED_EDGE('',*,*,#573,.F.);
#790=ORIENTED_EDGE('',*,*,#602,.T.);
#791=ORIENTED_EDGE('',*,*,#603,.F.);
#792=ORIENTED_EDGE('',*,*,#600,.T.);
#793=ORIENTED_EDGE('',*,*,#570,.F.);
#794=ORIENTED_EDGE('',*,*,#604,.F.);
#795=ORIENTED_EDGE('',*,*,#605,.F.);
#796=ORIENTED_EDGE('',*,*,#602,.F.);
#797=ORIENTED_EDGE('',*,*,#590,.F.);
#798=ORIENTED_EDGE('',*,*,#606,.T.);
#799=ORIENTED_EDGE('',*,*,#607,.F.);
#800=ORIENTED_EDGE('',*,*,#604,.T.);
#801=ORIENTED_EDGE('',*,*,#575,.F.);
#802=ORIENTED_EDGE('',*,*,#608,.F.);
#803=ORIENTED_EDGE('',*,*,#609,.F.);
#804=ORIENTED_EDGE('',*,*,#606,.F.);
#805=ORIENTED_EDGE('',*,*,#579,.F.);
#806=ORIENTED_EDGE('',*,*,#610,.T.);
#807=ORIENTED_EDGE('',*,*,#611,.F.);
#808=ORIENTED_EDGE('',*,*,#608,.T.);
#809=ORIENTED_EDGE('',*,*,#582,.F.);
#810=ORIENTED_EDGE('',*,*,#612,.F.);
#811=ORIENTED_EDGE('',*,*,#613,.F.);
#812=ORIENTED_EDGE('',*,*,#610,.F.);
#813=ORIENTED_EDGE('',*,*,#585,.F.);
#814=ORIENTED_EDGE('',*,*,#614,.T.);
#815=ORIENTED_EDGE('',*,*,#615,.F.);
#816=ORIENTED_EDGE('',*,*,#612,.T.);
#817=ORIENTED_EDGE('',*,*,#588,.F.);
#818=ORIENTED_EDGE('',*,*,#616,.F.);
#819=ORIENTED_EDGE('',*,*,#617,.F.);
#820=ORIENTED_EDGE('',*,*,#614,.F.);
#821=ORIENTED_EDGE('',*,*,#595,.F.);
#822=ORIENTED_EDGE('',*,*,#618,.T.);
#823=ORIENTED_EDGE('',*,*,#619,.F.);
#824=ORIENTED_EDGE('',*,*,#616,.T.);
#825=ORIENTED_EDGE('',*,*,#592,.F.);
#826=ORIENTED_EDGE('',*,*,#620,.F.);
#827=ORIENTED_EDGE('',*,*,#621,.F.);
#828=ORIENTED_EDGE('',*,*,#618,.F.);
#829=ORIENTED_EDGE('',*,*,#530,.F.);
#830=ORIENTED_EDGE('',*,*,#567,.F.);
#831=ORIENTED_EDGE('',*,*,#594,.F.);
#832=ORIENTED_EDGE('',*,*,#589,.F.);
#833=ORIENTED_EDGE('',*,*,#586,.F.);
#834=ORIENTED_EDGE('',*,*,#583,.F.);
#835=ORIENTED_EDGE('',*,*,#580,.F.);
#836=ORIENTED_EDGE('',*,*,#577,.F.);
#837=ORIENTED_EDGE('',*,*,#572,.F.);
#838=ORIENTED_EDGE('',*,*,#565,.F.);
#839=ORIENTED_EDGE('',*,*,#562,.F.);
#840=ORIENTED_EDGE('',*,*,#559,.F.);
#841=ORIENTED_EDGE('',*,*,#556,.F.);
#842=ORIENTED_EDGE('',*,*,#553,.F.);
#843=ORIENTED_EDGE('',*,*,#550,.F.);
#844=ORIENTED_EDGE('',*,*,#547,.F.);
#845=ORIENTED_EDGE('',*,*,#544,.F.);
#846=ORIENTED_EDGE('',*,*,#541,.F.);
#847=ORIENTED_EDGE('',*,*,#538,.F.);
#848=ORIENTED_EDGE('',*,*,#535,.F.);
#849=ORIENTED_EDGE('',*,*,#622,.T.);
#850=ORIENTED_EDGE('',*,*,#623,.T.);
#851=ORIENTED_EDGE('',*,*,#624,.T.);
#852=ORIENTED_EDGE('',*,*,#621,.T.);
#853=ORIENTED_EDGE('',*,*,#625,.T.);
#854=ORIENTED_EDGE('',*,*,#609,.T.);
#855=ORIENTED_EDGE('',*,*,#626,.T.);
#856=ORIENTED_EDGE('',*,*,#627,.T.);
#857=ORIENTED_EDGE('',*,*,#628,.T.);
#858=ORIENTED_EDGE('',*,*,#629,.T.);
#859=ORIENTED_EDGE('',*,*,#626,.F.);
#860=ORIENTED_EDGE('',*,*,#611,.T.);
#861=ORIENTED_EDGE('',*,*,#630,.T.);
#862=ORIENTED_EDGE('',*,*,#631,.T.);
#863=ORIENTED_EDGE('',*,*,#628,.F.);
#864=ORIENTED_EDGE('',*,*,#613,.T.);
#865=ORIENTED_EDGE('',*,*,#632,.T.);
#866=ORIENTED_EDGE('',*,*,#633,.T.);
#867=ORIENTED_EDGE('',*,*,#630,.F.);
#868=ORIENTED_EDGE('',*,*,#615,.T.);
#869=ORIENTED_EDGE('',*,*,#634,.T.);
#870=ORIENTED_EDGE('',*,*,#635,.T.);
#871=ORIENTED_EDGE('',*,*,#632,.F.);
#872=ORIENTED_EDGE('',*,*,#617,.T.);
#873=ORIENTED_EDGE('',*,*,#636,.T.);
#874=ORIENTED_EDGE('',*,*,#605,.T.);
#875=ORIENTED_EDGE('',*,*,#637,.T.);
#876=ORIENTED_EDGE('',*,*,#638,.T.);
#877=ORIENTED_EDGE('',*,*,#639,.T.);
#878=ORIENTED_EDGE('',*,*,#640,.T.);
#879=ORIENTED_EDGE('',*,*,#641,.T.);
#880=ORIENTED_EDGE('',*,*,#642,.T.);
#881=ORIENTED_EDGE('',*,*,#643,.T.);
#882=ORIENTED_EDGE('',*,*,#644,.T.);
#883=ORIENTED_EDGE('',*,*,#641,.F.);
#884=ORIENTED_EDGE('',*,*,#645,.T.);
#885=ORIENTED_EDGE('',*,*,#646,.T.);
#886=ORIENTED_EDGE('',*,*,#647,.T.);
#887=ORIENTED_EDGE('',*,*,#643,.F.);
#888=ORIENTED_EDGE('',*,*,#648,.T.);
#889=ORIENTED_EDGE('',*,*,#649,.T.);
#890=ORIENTED_EDGE('',*,*,#650,.T.);
#891=ORIENTED_EDGE('',*,*,#646,.F.);
#892=ORIENTED_EDGE('',*,*,#651,.T.);
#893=ORIENTED_EDGE('',*,*,#652,.T.);
#894=ORIENTED_EDGE('',*,*,#653,.T.);
#895=ORIENTED_EDGE('',*,*,#649,.F.);
#896=ORIENTED_EDGE('',*,*,#654,.T.);
#897=ORIENTED_EDGE('',*,*,#655,.T.);
#898=ORIENTED_EDGE('',*,*,#656,.T.);
#899=ORIENTED_EDGE('',*,*,#652,.F.);
#900=ORIENTED_EDGE('',*,*,#657,.T.);
#901=ORIENTED_EDGE('',*,*,#658,.T.);
#902=ORIENTED_EDGE('',*,*,#659,.T.);
#903=ORIENTED_EDGE('',*,*,#655,.F.);
#904=ORIENTED_EDGE('',*,*,#660,.T.);
#905=ORIENTED_EDGE('',*,*,#661,.T.);
#906=ORIENTED_EDGE('',*,*,#662,.T.);
#907=ORIENTED_EDGE('',*,*,#658,.F.);
#908=ORIENTED_EDGE('',*,*,#663,.T.);
#909=ORIENTED_EDGE('',*,*,#664,.T.);
#910=ORIENTED_EDGE('',*,*,#665,.T.);
#911=ORIENTED_EDGE('',*,*,#661,.F.);
#912=ORIENTED_EDGE('',*,*,#666,.T.);
#913=ORIENTED_EDGE('',*,*,#667,.T.);
#914=ORIENTED_EDGE('',*,*,#668,.T.);
#915=ORIENTED_EDGE('',*,*,#664,.F.);
#916=ORIENTED_EDGE('',*,*,#669,.T.);
#917=ORIENTED_EDGE('',*,*,#670,.T.);
#918=ORIENTED_EDGE('',*,*,#671,.T.);
#919=ORIENTED_EDGE('',*,*,#667,.F.);
#920=ORIENTED_EDGE('',*,*,#672,.T.);
#921=ORIENTED_EDGE('',*,*,#673,.T.);
#922=ORIENTED_EDGE('',*,*,#674,.T.);
#923=ORIENTED_EDGE('',*,*,#670,.F.);
#924=ORIENTED_EDGE('',*,*,#598,.T.);
#925=ORIENTED_EDGE('',*,*,#675,.T.);
#926=ORIENTED_EDGE('',*,*,#676,.T.);
#927=ORIENTED_EDGE('',*,*,#673,.F.);
#928=ORIENTED_EDGE('',*,*,#601,.T.);
#929=ORIENTED_EDGE('',*,*,#675,.F.);
#930=ORIENTED_EDGE('',*,*,#603,.T.);
#931=ORIENTED_EDGE('',*,*,#636,.F.);
#932=ORIENTED_EDGE('',*,*,#637,.F.);
#933=ORIENTED_EDGE('',*,*,#607,.T.);
#934=ORIENTED_EDGE('',*,*,#625,.F.);
#935=ORIENTED_EDGE('',*,*,#634,.F.);
#936=ORIENTED_EDGE('',*,*,#619,.T.);
#937=ORIENTED_EDGE('',*,*,#624,.F.);
#938=ORIENTED_EDGE('',*,*,#622,.F.);
#939=ORIENTED_EDGE('',*,*,#677,.T.);
#940=ORIENTED_EDGE('',*,*,#639,.F.);
#941=ORIENTED_EDGE('',*,*,#558,.F.);
#942=ORIENTED_EDGE('',*,*,#599,.F.);
#943=ORIENTED_EDGE('',*,*,#672,.F.);
#944=ORIENTED_EDGE('',*,*,#678,.F.);
#945=ORIENTED_EDGE('',*,*,#555,.F.);
#946=ORIENTED_EDGE('',*,*,#678,.T.);
#947=ORIENTED_EDGE('',*,*,#669,.F.);
#948=ORIENTED_EDGE('',*,*,#679,.T.);
#949=ORIENTED_EDGE('',*,*,#552,.F.);
#950=ORIENTED_EDGE('',*,*,#679,.F.);
#951=ORIENTED_EDGE('',*,*,#666,.F.);
#952=ORIENTED_EDGE('',*,*,#680,.F.);
#953=ORIENTED_EDGE('',*,*,#549,.F.);
#954=ORIENTED_EDGE('',*,*,#680,.T.);
#955=ORIENTED_EDGE('',*,*,#663,.F.);
#956=ORIENTED_EDGE('',*,*,#681,.T.);
#957=ORIENTED_EDGE('',*,*,#546,.F.);
#958=ORIENTED_EDGE('',*,*,#681,.F.);
#959=ORIENTED_EDGE('',*,*,#660,.F.);
#960=ORIENTED_EDGE('',*,*,#682,.F.);
#961=ORIENTED_EDGE('',*,*,#543,.F.);
#962=ORIENTED_EDGE('',*,*,#682,.T.);
#963=ORIENTED_EDGE('',*,*,#657,.F.);
#964=ORIENTED_EDGE('',*,*,#683,.T.);
#965=ORIENTED_EDGE('',*,*,#540,.F.);
#966=ORIENTED_EDGE('',*,*,#683,.F.);
#967=ORIENTED_EDGE('',*,*,#654,.F.);
#968=ORIENTED_EDGE('',*,*,#684,.F.);
#969=ORIENTED_EDGE('',*,*,#537,.F.);
#970=ORIENTED_EDGE('',*,*,#684,.T.);
#971=ORIENTED_EDGE('',*,*,#651,.F.);
#972=ORIENTED_EDGE('',*,*,#685,.T.);
#973=ORIENTED_EDGE('',*,*,#534,.F.);
#974=ORIENTED_EDGE('',*,*,#685,.F.);
#975=ORIENTED_EDGE('',*,*,#648,.F.);
#976=ORIENTED_EDGE('',*,*,#686,.F.);
#977=ORIENTED_EDGE('',*,*,#532,.F.);
#978=ORIENTED_EDGE('',*,*,#686,.T.);
#979=ORIENTED_EDGE('',*,*,#645,.F.);
#980=ORIENTED_EDGE('',*,*,#687,.T.);
#981=ORIENTED_EDGE('',*,*,#568,.F.);
#982=ORIENTED_EDGE('',*,*,#687,.F.);
#983=ORIENTED_EDGE('',*,*,#640,.F.);
#984=ORIENTED_EDGE('',*,*,#688,.F.);
#985=ORIENTED_EDGE('',*,*,#627,.F.);
#986=ORIENTED_EDGE('',*,*,#629,.F.);
#987=ORIENTED_EDGE('',*,*,#631,.F.);
#988=ORIENTED_EDGE('',*,*,#633,.F.);
#989=ORIENTED_EDGE('',*,*,#635,.F.);
#990=ORIENTED_EDGE('',*,*,#623,.F.);
#991=ORIENTED_EDGE('',*,*,#642,.F.);
#992=ORIENTED_EDGE('',*,*,#644,.F.);
#993=ORIENTED_EDGE('',*,*,#647,.F.);
#994=ORIENTED_EDGE('',*,*,#650,.F.);
#995=ORIENTED_EDGE('',*,*,#653,.F.);
#996=ORIENTED_EDGE('',*,*,#656,.F.);
#997=ORIENTED_EDGE('',*,*,#659,.F.);
#998=ORIENTED_EDGE('',*,*,#662,.F.);
#999=ORIENTED_EDGE('',*,*,#665,.F.);
#1000=ORIENTED_EDGE('',*,*,#668,.F.);
#1001=ORIENTED_EDGE('',*,*,#671,.F.);
#1002=ORIENTED_EDGE('',*,*,#674,.F.);
#1003=ORIENTED_EDGE('',*,*,#676,.F.);
#1004=ORIENTED_EDGE('',*,*,#638,.F.);
#1005=ORIENTED_EDGE('',*,*,#596,.F.);
#1006=ORIENTED_EDGE('',*,*,#688,.T.);
#1007=ORIENTED_EDGE('',*,*,#677,.F.);
#1008=ORIENTED_EDGE('',*,*,#620,.T.);
#1009=TOROIDAL_SURFACE('',#1117,0.8,0.2);
#1010=TOROIDAL_SURFACE('',#1124,0.8,0.2);
#1011=TOROIDAL_SURFACE('',#1130,0.8,0.2);
#1012=TOROIDAL_SURFACE('',#1136,0.8,0.2);
#1013=TOROIDAL_SURFACE('',#1142,0.8,0.2);
#1014=TOROIDAL_SURFACE('',#1148,0.8,0.2);
#1015=TOROIDAL_SURFACE('',#1156,2.325,0.2);
#1016=TOROIDAL_SURFACE('',#1166,0.7,0.2);
#1017=TOROIDAL_SURFACE('',#1172,0.7,0.2);
#1018=TOROIDAL_SURFACE('',#1180,2.325,0.2);
#1019=TOROIDAL_SURFACE('',#1210,2.325,0.2);
#1020=TOROIDAL_SURFACE('',#1217,0.7,0.2);
#1021=TOROIDAL_SURFACE('',#1222,0.7,0.2);
#1022=TOROIDAL_SURFACE('',#1227,2.325,0.2);
#1023=TOROIDAL_SURFACE('',#1234,0.8,0.2);
#1024=TOROIDAL_SURFACE('',#1240,0.8,0.2);
#1025=TOROIDAL_SURFACE('',#1246,0.8,0.2);
#1026=TOROIDAL_SURFACE('',#1252,0.8,0.2);
#1027=TOROIDAL_SURFACE('',#1258,0.8,0.2);
#1028=TOROIDAL_SURFACE('',#1264,0.8,0.2);
#1029=ADVANCED_FACE('',(#197),#1009,.T.);
#1030=ADVANCED_FACE('',(#198),#163,.T.);
#1031=ADVANCED_FACE('',(#199),#1010,.T.);
#1032=ADVANCED_FACE('',(#200),#164,.T.);
#1033=ADVANCED_FACE('',(#201),#1011,.T.);
#1034=ADVANCED_FACE('',(#202),#165,.T.);
#1035=ADVANCED_FACE('',(#203),#1012,.T.);
#1036=ADVANCED_FACE('',(#204),#166,.T.);
#1037=ADVANCED_FACE('',(#205),#1013,.T.);
#1038=ADVANCED_FACE('',(#206),#167,.T.);
#1039=ADVANCED_FACE('',(#207),#1014,.T.);
#1040=ADVANCED_FACE('',(#208),#168,.T.);
#1041=ADVANCED_FACE('',(#209),#169,.T.);
#1042=ADVANCED_FACE('',(#210),#1015,.T.);
#1043=ADVANCED_FACE('',(#211),#27,.T.);
#1044=ADVANCED_FACE('',(#212),#170,.T.);
#1045=ADVANCED_FACE('',(#213),#1016,.T.);
#1046=ADVANCED_FACE('',(#214),#171,.T.);
#1047=ADVANCED_FACE('',(#215),#1017,.T.);
#1048=ADVANCED_FACE('',(#216),#172,.T.);
#1049=ADVANCED_FACE('',(#217),#28,.T.);
#1050=ADVANCED_FACE('',(#218),#1018,.T.);
#1051=ADVANCED_FACE('',(#219),#29,.T.);
#1052=ADVANCED_FACE('',(#220),#30,.T.);
#1053=ADVANCED_FACE('',(#221),#173,.T.);
#1054=ADVANCED_FACE('',(#222),#15,.T.);
#1055=ADVANCED_FACE('',(#223),#174,.T.);
#1056=ADVANCED_FACE('',(#224),#175,.F.);
#1057=ADVANCED_FACE('',(#225),#176,.T.);
#1058=ADVANCED_FACE('',(#226),#16,.T.);
#1059=ADVANCED_FACE('',(#227),#177,.F.);
#1060=ADVANCED_FACE('',(#228),#17,.T.);
#1061=ADVANCED_FACE('',(#229),#178,.F.);
#1062=ADVANCED_FACE('',(#230),#18,.T.);
#1063=ADVANCED_FACE('',(#231),#179,.T.);
#1064=ADVANCED_FACE('',(#232),#180,.F.);
#1065=ADVANCED_FACE('',(#233),#19,.T.);
#1066=ADVANCED_FACE('',(#234),#1019,.T.);
#1067=ADVANCED_FACE('',(#235),#181,.T.);
#1068=ADVANCED_FACE('',(#236),#1020,.T.);
#1069=ADVANCED_FACE('',(#237),#182,.T.);
#1070=ADVANCED_FACE('',(#238),#1021,.T.);
#1071=ADVANCED_FACE('',(#239),#183,.T.);
#1072=ADVANCED_FACE('',(#240),#1022,.T.);
#1073=ADVANCED_FACE('',(#241),#184,.T.);
#1074=ADVANCED_FACE('',(#242),#1023,.T.);
#1075=ADVANCED_FACE('',(#243),#185,.T.);
#1076=ADVANCED_FACE('',(#244),#1024,.T.);
#1077=ADVANCED_FACE('',(#245),#186,.T.);
#1078=ADVANCED_FACE('',(#246),#1025,.T.);
#1079=ADVANCED_FACE('',(#247),#187,.T.);
#1080=ADVANCED_FACE('',(#248),#1026,.T.);
#1081=ADVANCED_FACE('',(#249),#188,.T.);
#1082=ADVANCED_FACE('',(#250),#1027,.T.);
#1083=ADVANCED_FACE('',(#251),#189,.T.);
#1084=ADVANCED_FACE('',(#252),#1028,.T.);
#1085=ADVANCED_FACE('',(#253),#190,.T.);
#1086=ADVANCED_FACE('',(#254),#31,.T.);
#1087=ADVANCED_FACE('',(#255),#32,.T.);
#1088=ADVANCED_FACE('',(#256),#33,.T.);
#1089=ADVANCED_FACE('',(#257),#34,.T.);
#1090=ADVANCED_FACE('',(#258),#20,.T.);
#1091=ADVANCED_FACE('',(#259),#191,.T.);
#1092=ADVANCED_FACE('',(#260),#21,.T.);
#1093=ADVANCED_FACE('',(#261),#192,.T.);
#1094=ADVANCED_FACE('',(#262),#22,.T.);
#1095=ADVANCED_FACE('',(#263),#193,.T.);
#1096=ADVANCED_FACE('',(#264),#23,.T.);
#1097=ADVANCED_FACE('',(#265),#194,.T.);
#1098=ADVANCED_FACE('',(#266),#24,.T.);
#1099=ADVANCED_FACE('',(#267),#195,.T.);
#1100=ADVANCED_FACE('',(#268),#25,.T.);
#1101=ADVANCED_FACE('',(#269),#26,.F.);
#1102=ADVANCED_FACE('',(#270),#196,.T.);
#1103=CLOSED_SHELL('',(#1029,#1030,#1031,#1032,#1033,#1034,#1035,#1036,
#1037,#1038,#1039,#1040,#1041,#1042,#1043,#1044,#1045,#1046,#1047,#1048,
#1049,#1050,#1051,#1052,#1053,#1054,#1055,#1056,#1057,#1058,#1059,#1060,
#1061,#1062,#1063,#1064,#1065,#1066,#1067,#1068,#1069,#1070,#1071,#1072,
#1073,#1074,#1075,#1076,#1077,#1078,#1079,#1080,#1081,#1082,#1083,#1084,
#1085,#1086,#1087,#1088,#1089,#1090,#1091,#1092,#1093,#1094,#1095,#1096,
#1097,#1098,#1099,#1100,#1101,#1102));
#1104=DERIVED_UNIT_ELEMENT(#1106,1.);
#1105=DERIVED_UNIT_ELEMENT(#2021,-3.);
#1106=(
MASS_UNIT()
NAMED_UNIT(*)
SI_UNIT(.KILO.,.GRAM.)
);
#1107=DERIVED_UNIT((#1104,#1105));
#1108=MEASURE_REPRESENTATION_ITEM('density measure',
POSITIVE_RATIO_MEASURE(7850.),#1107);
#1109=PROPERTY_DEFINITION_REPRESENTATION(#1114,#1111);
#1110=PROPERTY_DEFINITION_REPRESENTATION(#1115,#1112);
#1111=REPRESENTATION('material name',(#1113),#2018);
#1112=REPRESENTATION('density',(#1108),#2018);
#1113=DESCRIPTIVE_REPRESENTATION_ITEM('Steel','Steel');
#1114=PROPERTY_DEFINITION('material property','material name',#2028);
#1115=PROPERTY_DEFINITION('material property','density of part',#2028);
#1116=AXIS2_PLACEMENT_3D('',#1693,#1287,#1288);
#1117=AXIS2_PLACEMENT_3D('',#1694,#1289,#1290);
#1118=AXIS2_PLACEMENT_3D('',#1697,#1291,#1292);
#1119=AXIS2_PLACEMENT_3D('',#1699,#1293,#1294);
#1120=AXIS2_PLACEMENT_3D('',#1701,#1295,#1296);
#1121=AXIS2_PLACEMENT_3D('',#1702,#1297,#1298);
#1122=AXIS2_PLACEMENT_3D('',#1703,#1299,#1300);
#1123=AXIS2_PLACEMENT_3D('',#1706,#1301,#1302);
#1124=AXIS2_PLACEMENT_3D('',#1709,#1305,#1306);
#1125=AXIS2_PLACEMENT_3D('',#1712,#1307,#1308);
#1126=AXIS2_PLACEMENT_3D('',#1713,#1309,#1310);
#1127=AXIS2_PLACEMENT_3D('',#1714,#1311,#1312);
#1128=AXIS2_PLACEMENT_3D('',#1715,#1313,#1314);
#1129=AXIS2_PLACEMENT_3D('',#1718,#1315,#1316);
#1130=AXIS2_PLACEMENT_3D('',#1721,#1319,#1320);
#1131=AXIS2_PLACEMENT_3D('',#1724,#1321,#1322);
#1132=AXIS2_PLACEMENT_3D('',#1725,#1323,#1324);
#1133=AXIS2_PLACEMENT_3D('',#1726,#1325,#1326);
#1134=AXIS2_PLACEMENT_3D('',#1727,#1327,#1328);
#1135=AXIS2_PLACEMENT_3D('',#1730,#1329,#1330);
#1136=AXIS2_PLACEMENT_3D('',#1733,#1333,#1334);
#1137=AXIS2_PLACEMENT_3D('',#1736,#1335,#1336);
#1138=AXIS2_PLACEMENT_3D('',#1737,#1337,#1338);
#1139=AXIS2_PLACEMENT_3D('',#1738,#1339,#1340);
#1140=AXIS2_PLACEMENT_3D('',#1739,#1341,#1342);
#1141=AXIS2_PLACEMENT_3D('',#1742,#1343,#1344);
#1142=AXIS2_PLACEMENT_3D('',#1745,#1347,#1348);
#1143=AXIS2_PLACEMENT_3D('',#1748,#1349,#1350);
#1144=AXIS2_PLACEMENT_3D('',#1749,#1351,#1352);
#1145=AXIS2_PLACEMENT_3D('',#1750,#1353,#1354);
#1146=AXIS2_PLACEMENT_3D('',#1751,#1355,#1356);
#1147=AXIS2_PLACEMENT_3D('',#1754,#1357,#1358);
#1148=AXIS2_PLACEMENT_3D('',#1757,#1361,#1362);
#1149=AXIS2_PLACEMENT_3D('',#1760,#1363,#1364);
#1150=AXIS2_PLACEMENT_3D('',#1761,#1365,#1366);
#1151=AXIS2_PLACEMENT_3D('',#1762,#1367,#1368);
#1152=AXIS2_PLACEMENT_3D('',#1763,#1369,#1370);
#1153=AXIS2_PLACEMENT_3D('',#1766,#1371,#1372);
#1154=AXIS2_PLACEMENT_3D('',#1769,#1375,#1376);
#1155=AXIS2_PLACEMENT_3D('',#1772,#1377,#1378);
#1156=AXIS2_PLACEMENT_3D('',#1775,#1381,#1382);
#1157=AXIS2_PLACEMENT_3D('',#1778,#1383,#1384);
#1158=AXIS2_PLACEMENT_3D('',#1780,#1385,#1386);
#1159=AXIS2_PLACEMENT_3D('',#1781,#1387,#1388);
#1160=AXIS2_PLACEMENT_3D('',#1782,#1389,#1390);
#1161=AXIS2_PLACEMENT_3D('',#1783,#1391,#1392);
#1162=AXIS2_PLACEMENT_3D('',#1784,#1393,#1394);
#1163=AXIS2_PLACEMENT_3D('',#1785,#1395,#1396);
#1164=AXIS2_PLACEMENT_3D('',#1788,#1397,#1398);
#1165=AXIS2_PLACEMENT_3D('',#1791,#1400,#1401);
#1166=AXIS2_PLACEMENT_3D('',#1793,#1403,#1404);
#1167=AXIS2_PLACEMENT_3D('',#1796,#1405,#1406);
#1168=AXIS2_PLACEMENT_3D('',#1797,#1407,#1408);
#1169=AXIS2_PLACEMENT_3D('',#1798,#1409,#1410);
#1170=AXIS2_PLACEMENT_3D('',#1799,#1411,#1412);
#1171=AXIS2_PLACEMENT_3D('',#1802,#1413,#1414);
#1172=AXIS2_PLACEMENT_3D('',#1805,#1417,#1418);
#1173=AXIS2_PLACEMENT_3D('',#1808,#1419,#1420);
#1174=AXIS2_PLACEMENT_3D('',#1809,#1421,#1422);
#1175=AXIS2_PLACEMENT_3D('',#1810,#1423,#1424);
#1176=AXIS2_PLACEMENT_3D('',#1811,#1425,#1426);
#1177=AXIS2_PLACEMENT_3D('',#1814,#1427,#1428);
#1178=AXIS2_PLACEMENT_3D('',#1817,#1431,#1432);
#1179=AXIS2_PLACEMENT_3D('',#1818,#1433,#1434);
#1180=AXIS2_PLACEMENT_3D('',#1819,#1435,#1436);
#1181=AXIS2_PLACEMENT_3D('',#1821,#1437,#1438);
#1182=AXIS2_PLACEMENT_3D('',#1823,#1439,#1440);
#1183=AXIS2_PLACEMENT_3D('',#1824,#1441,#1442);
#1184=AXIS2_PLACEMENT_3D('',#1825,#1443,#1444);
#1185=AXIS2_PLACEMENT_3D('',#1826,#1445,#1446);
#1186=AXIS2_PLACEMENT_3D('',#1827,#1447,#1448);
#1187=AXIS2_PLACEMENT_3D('',#1828,#1449,#1450);
#1188=AXIS2_PLACEMENT_3D('',#1829,#1451,#1452);
#1189=AXIS2_PLACEMENT_3D('',#1830,#1453,#1454);
#1190=AXIS2_PLACEMENT_3D('',#1834,#1456,#1457);
#1191=AXIS2_PLACEMENT_3D('',#1836,#1459,#1460);
#1192=AXIS2_PLACEMENT_3D('',#1840,#1463,#1464);
#1193=AXIS2_PLACEMENT_3D('',#1843,#1466,#1467);
#1194=AXIS2_PLACEMENT_3D('',#1844,#1468,#1469);
#1195=AXIS2_PLACEMENT_3D('',#1847,#1471,#1472);
#1196=AXIS2_PLACEMENT_3D('',#1848,#1473,#1474);
#1197=AXIS2_PLACEMENT_3D('',#1851,#1476,#1477);
#1198=AXIS2_PLACEMENT_3D('',#1852,#1478,#1479);
#1199=AXIS2_PLACEMENT_3D('',#1856,#1482,#1483);
#1200=AXIS2_PLACEMENT_3D('',#1859,#1485,#1486);
#1201=AXIS2_PLACEMENT_3D('',#1860,#1487,#1488);
#1202=AXIS2_PLACEMENT_3D('',#1864,#1491,#1492);
#1203=AXIS2_PLACEMENT_3D('',#1867,#1494,#1495);
#1204=AXIS2_PLACEMENT_3D('',#1868,#1496,#1497);
#1205=AXIS2_PLACEMENT_3D('',#1872,#1500,#1501);
#1206=AXIS2_PLACEMENT_3D('',#1875,#1503,#1504);
#1207=AXIS2_PLACEMENT_3D('',#1876,#1505,#1506);
#1208=AXIS2_PLACEMENT_3D('',#1879,#1508,#1509);
#1209=AXIS2_PLACEMENT_3D('',#1880,#1510,#1511);
#1210=AXIS2_PLACEMENT_3D('',#1881,#1512,#1513);
#1211=AXIS2_PLACEMENT_3D('',#1883,#1514,#1515);
#1212=AXIS2_PLACEMENT_3D('',#1885,#1516,#1517);
#1213=AXIS2_PLACEMENT_3D('',#1886,#1518,#1519);
#1214=AXIS2_PLACEMENT_3D('',#1887,#1520,#1521);
#1215=AXIS2_PLACEMENT_3D('',#1889,#1522,#1523);
#1216=AXIS2_PLACEMENT_3D('',#1891,#1524,#1525);
#1217=AXIS2_PLACEMENT_3D('',#1893,#1527,#1528);
#1218=AXIS2_PLACEMENT_3D('',#1895,#1529,#1530);
#1219=AXIS2_PLACEMENT_3D('',#1896,#1531,#1532);
#1220=AXIS2_PLACEMENT_3D('',#1897,#1533,#1534);
#1221=AXIS2_PLACEMENT_3D('',#1899,#1535,#1536);
#1222=AXIS2_PLACEMENT_3D('',#1901,#1538,#1539);
#1223=AXIS2_PLACEMENT_3D('',#1903,#1540,#1541);
#1224=AXIS2_PLACEMENT_3D('',#1904,#1542,#1543);
#1225=AXIS2_PLACEMENT_3D('',#1905,#1544,#1545);
#1226=AXIS2_PLACEMENT_3D('',#1906,#1546,#1547);
#1227=AXIS2_PLACEMENT_3D('',#1908,#1549,#1550);
#1228=AXIS2_PLACEMENT_3D('',#1910,#1551,#1552);
#1229=AXIS2_PLACEMENT_3D('',#1911,#1553,#1554);
#1230=AXIS2_PLACEMENT_3D('',#1912,#1555,#1556);
#1231=AXIS2_PLACEMENT_3D('',#1913,#1557,#1558);
#1232=AXIS2_PLACEMENT_3D('',#1915,#1559,#1560);
#1233=AXIS2_PLACEMENT_3D('',#1919,#1562,#1563);
#1234=AXIS2_PLACEMENT_3D('',#1921,#1565,#1566);
#1235=AXIS2_PLACEMENT_3D('',#1924,#1567,#1568);
#1236=AXIS2_PLACEMENT_3D('',#1925,#1569,#1570);
#1237=AXIS2_PLACEMENT_3D('',#1926,#1571,#1572);
#1238=AXIS2_PLACEMENT_3D('',#1927,#1573,#1574);
#1239=AXIS2_PLACEMENT_3D('',#1930,#1575,#1576);
#1240=AXIS2_PLACEMENT_3D('',#1933,#1579,#1580);
#1241=AXIS2_PLACEMENT_3D('',#1936,#1581,#1582);
#1242=AXIS2_PLACEMENT_3D('',#1937,#1583,#1584);
#1243=AXIS2_PLACEMENT_3D('',#1938,#1585,#1586);
#1244=AXIS2_PLACEMENT_3D('',#1939,#1587,#1588);
#1245=AXIS2_PLACEMENT_3D('',#1942,#1589,#1590);
#1246=AXIS2_PLACEMENT_3D('',#1945,#1593,#1594);
#1247=AXIS2_PLACEMENT_3D('',#1948,#1595,#1596);
#1248=AXIS2_PLACEMENT_3D('',#1949,#1597,#1598);
#1249=AXIS2_PLACEMENT_3D('',#1950,#1599,#1600);
#1250=AXIS2_PLACEMENT_3D('',#1951,#1601,#1602);
#1251=AXIS2_PLACEMENT_3D('',#1954,#1603,#1604);
#1252=AXIS2_PLACEMENT_3D('',#1957,#1607,#1608);
#1253=AXIS2_PLACEMENT_3D('',#1960,#1609,#1610);
#1254=AXIS2_PLACEMENT_3D('',#1961,#1611,#1612);
#1255=AXIS2_PLACEMENT_3D('',#1962,#1613,#1614);
#1256=AXIS2_PLACEMENT_3D('',#1963,#1615,#1616);
#1257=AXIS2_PLACEMENT_3D('',#1966,#1617,#1618);
#1258=AXIS2_PLACEMENT_3D('',#1969,#1621,#1622);
#1259=AXIS2_PLACEMENT_3D('',#1972,#1623,#1624);
#1260=AXIS2_PLACEMENT_3D('',#1973,#1625,#1626);
#1261=AXIS2_PLACEMENT_3D('',#1974,#1627,#1628);
#1262=AXIS2_PLACEMENT_3D('',#1975,#1629,#1630);
#1263=AXIS2_PLACEMENT_3D('',#1977,#1631,#1632);
#1264=AXIS2_PLACEMENT_3D('',#1980,#1635,#1636);
#1265=AXIS2_PLACEMENT_3D('',#1982,#1637,#1638);
#1266=AXIS2_PLACEMENT_3D('',#1983,#1639,#1640);
#1267=AXIS2_PLACEMENT_3D('',#1984,#1641,#1642);
#1268=AXIS2_PLACEMENT_3D('',#1985,#1643,#1644);
#1269=AXIS2_PLACEMENT_3D('',#1987,#1646,#1647);
#1270=AXIS2_PLACEMENT_3D('',#1988,#1648,#1649);
#1271=AXIS2_PLACEMENT_3D('',#1989,#1650,#1651);
#1272=AXIS2_PLACEMENT_3D('',#1990,#1652,#1653);
#1273=AXIS2_PLACEMENT_3D('',#1991,#1654,#1655);
#1274=AXIS2_PLACEMENT_3D('',#1992,#1656,#1657);
#1275=AXIS2_PLACEMENT_3D('',#1994,#1659,#1660);
#1276=AXIS2_PLACEMENT_3D('',#1996,#1662,#1663);
#1277=AXIS2_PLACEMENT_3D('',#1998,#1665,#1666);
#1278=AXIS2_PLACEMENT_3D('',#2000,#1668,#1669);
#1279=AXIS2_PLACEMENT_3D('',#2002,#1671,#1672);
#1280=AXIS2_PLACEMENT_3D('',#2004,#1674,#1675);
#1281=AXIS2_PLACEMENT_3D('',#2006,#1677,#1678);
#1282=AXIS2_PLACEMENT_3D('',#2008,#1680,#1681);
#1283=AXIS2_PLACEMENT_3D('',#2010,#1683,#1684);
#1284=AXIS2_PLACEMENT_3D('',#2012,#1686,#1687);
#1285=AXIS2_PLACEMENT_3D('',#2014,#1689,#1690);
#1286=AXIS2_PLACEMENT_3D('',#2015,#1691,#1692);
#1287=DIRECTION('axis',(0.,0.,1.));
#1288=DIRECTION('refdir',(1.,0.,0.));
#1289=DIRECTION('center_axis',(0.,-1.,0.));
#1290=DIRECTION('ref_axis',(0.,0.,-1.));
#1291=DIRECTION('center_axis',(2.77555756156295E-15,0.,1.));
#1292=DIRECTION('ref_axis',(1.,0.,-2.77555756156295E-15));
#1293=DIRECTION('center_axis',(0.,-1.,0.));
#1294=DIRECTION('ref_axis',(0.707106781186547,0.,0.707106781186548));
#1295=DIRECTION('center_axis',(1.,0.,0.));
#1296=DIRECTION('ref_axis',(0.,1.,0.));
#1297=DIRECTION('center_axis',(0.,1.,0.));
#1298=DIRECTION('ref_axis',(0.707106781186547,0.,0.707106781186548));
#1299=DIRECTION('center_axis',(1.,0.,0.));
#1300=DIRECTION('ref_axis',(0.,0.707106781186602,0.707106781186493));
#1301=DIRECTION('center_axis',(1.,0.,0.));
#1302=DIRECTION('ref_axis',(0.,1.,0.));
#1303=DIRECTION('',(1.,0.,0.));
#1304=DIRECTION('',(-1.,0.,0.));
#1305=DIRECTION('center_axis',(0.,-1.,0.));
#1306=DIRECTION('ref_axis',(0.,0.,-1.));
#1307=DIRECTION('center_axis',(-2.77555756156295E-15,0.,1.));
#1308=DIRECTION('ref_axis',(0.,1.,0.));
#1309=DIRECTION('center_axis',(0.,1.,0.));
#1310=DIRECTION('ref_axis',(-0.707106781186547,0.,0.707106781186548));
#1311=DIRECTION('center_axis',(0.,-1.,0.));
#1312=DIRECTION('ref_axis',(-0.707106781186547,0.,0.707106781186548));
#1313=DIRECTION('center_axis',(0.,0.,1.));
#1314=DIRECTION('ref_axis',(-0.7071067811865,0.707106781186595,0.));
#1315=DIRECTION('center_axis',(0.,0.,1.));
#1316=DIRECTION('ref_axis',(0.,1.,0.));
#1317=DIRECTION('',(0.,0.,1.));
#1318=DIRECTION('',(0.,0.,-1.));
#1319=DIRECTION('center_axis',(0.,-1.,0.));
#1320=DIRECTION('ref_axis',(0.,0.,-1.));
#1321=DIRECTION('center_axis',(-1.,0.,0.));
#1322=DIRECTION('ref_axis',(0.,1.,0.));
#1323=DIRECTION('center_axis',(0.,1.,0.));
#1324=DIRECTION('ref_axis',(-0.707106781186549,0.,-0.707106781186546));
#1325=DIRECTION('center_axis',(0.,-1.,0.));
#1326=DIRECTION('ref_axis',(-0.707106781186549,0.,-0.707106781186546));
#1327=DIRECTION('center_axis',(-1.,0.,0.));
#1328=DIRECTION('ref_axis',(0.,0.707106781186602,-0.707106781186493));
#1329=DIRECTION('center_axis',(-1.,0.,0.));
#1330=DIRECTION('ref_axis',(0.,1.,0.));
#1331=DIRECTION('',(-1.,0.,0.));
#1332=DIRECTION('',(1.,0.,0.));
#1333=DIRECTION('center_axis',(0.,-1.,0.));
#1334=DIRECTION('ref_axis',(0.,0.,-1.));
#1335=DIRECTION('center_axis',(0.,0.,-1.));
#1336=DIRECTION('ref_axis',(0.,1.,0.));
#1337=DIRECTION('center_axis',(0.,1.,0.));
#1338=DIRECTION('ref_axis',(0.707106781186547,0.,-0.707106781186548));
#1339=DIRECTION('center_axis',(0.,-1.,0.));
#1340=DIRECTION('ref_axis',(0.707106781186547,0.,-0.707106781186548));
#1341=DIRECTION('center_axis',(0.,0.,-1.));
#1342=DIRECTION('ref_axis',(0.707106781186485,0.70710678118661,0.));
#1343=DIRECTION('center_axis',(0.,0.,-1.));
#1344=DIRECTION('ref_axis',(0.,1.,0.));
#1345=DIRECTION('',(0.,0.,-1.));
#1346=DIRECTION('',(0.,0.,1.));
#1347=DIRECTION('center_axis',(0.,-1.,0.));
#1348=DIRECTION('ref_axis',(0.,0.,-1.));
#1349=DIRECTION('center_axis',(1.,0.,0.));
#1350=DIRECTION('ref_axis',(0.,1.,0.));
#1351=DIRECTION('center_axis',(0.,1.,0.));
#1352=DIRECTION('ref_axis',(0.707106781186547,0.,0.707106781186548));
#1353=DIRECTION('center_axis',(0.,-1.,0.));
#1354=DIRECTION('ref_axis',(0.707106781186547,0.,0.707106781186548));
#1355=DIRECTION('center_axis',(1.,0.,0.));
#1356=DIRECTION('ref_axis',(0.,0.707106781186602,0.707106781186493));
#1357=DIRECTION('center_axis',(1.,0.,0.));
#1358=DIRECTION('ref_axis',(0.,1.,0.));
#1359=DIRECTION('',(1.,0.,0.));
#1360=DIRECTION('',(-1.,0.,0.));
#1361=DIRECTION('center_axis',(0.,-1.,0.));
#1362=DIRECTION('ref_axis',(0.,0.,-1.));
#1363=DIRECTION('center_axis',(0.,0.,1.));
#1364=DIRECTION('ref_axis',(0.,1.,0.));
#1365=DIRECTION('center_axis',(0.,1.,0.));
#1366=DIRECTION('ref_axis',(-0.707106781186547,0.,0.707106781186548));
#1367=DIRECTION('center_axis',(0.,-1.,0.));
#1368=DIRECTION('ref_axis',(-0.707106781186547,0.,0.707106781186548));
#1369=DIRECTION('center_axis',(0.,0.,1.));
#1370=DIRECTION('ref_axis',(-0.707106781186485,0.70710678118661,0.));
#1371=DIRECTION('center_axis',(0.,0.,1.));
#1372=DIRECTION('ref_axis',(0.,1.,0.));
#1373=DIRECTION('',(0.,0.,1.));
#1374=DIRECTION('',(0.,0.,-1.));
#1375=DIRECTION('center_axis',(0.,0.,-1.));
#1376=DIRECTION('ref_axis',(0.7071067811865,0.707106781186595,0.));
#1377=DIRECTION('center_axis',(0.,0.,1.));
#1378=DIRECTION('ref_axis',(1.,0.,0.));
#1379=DIRECTION('',(0.,0.,1.));
#1380=DIRECTION('',(0.,0.,-1.));
#1381=DIRECTION('center_axis',(0.,-1.,0.));
#1382=DIRECTION('ref_axis',(1.,0.,4.39692286980259E-15));
#1383=DIRECTION('center_axis',(0.829073398976406,0.,-0.559139784946223));
#1384=DIRECTION('ref_axis',(0.,1.,0.));
#1385=DIRECTION('center_axis',(0.,-1.,0.));
#1386=DIRECTION('ref_axis',(1.,0.,2.61228946970625E-15));
#1387=DIRECTION('center_axis',(0.82907339897639,0.,0.559139784946247));
#1388=DIRECTION('ref_axis',(0.559139784946247,0.,-0.82907339897639));
#1389=DIRECTION('center_axis',(0.,1.,0.));
#1390=DIRECTION('ref_axis',(1.,0.,2.61228946970625E-15));
#1391=DIRECTION('center_axis',(-0.946949180059845,-0.247411074658572,0.205121940611623));
#1392=DIRECTION('ref_axis',(-0.321383338684522,0.728991475552749,-0.604387440461344));
#1393=DIRECTION('center_axis',(0.,1.,0.));
#1394=DIRECTION('ref_axis',(-0.469499848271363,0.,-0.882932552618357));
#1395=DIRECTION('center_axis',(-4.49084212120835E-15,0.,1.));
#1396=DIRECTION('ref_axis',(-0.707106781186485,0.70710678118661,-2.94392336003188E-15));
#1397=DIRECTION('center_axis',(-4.64038529823826E-15,0.,1.));
#1398=DIRECTION('ref_axis',(0.,1.,0.));
#1399=DIRECTION('',(-4.49084212120835E-15,0.,1.));
#1400=DIRECTION('center_axis',(4.51028103754E-15,0.,-1.));
#1401=DIRECTION('ref_axis',(-1.,0.,-4.51028103754E-15));
#1402=DIRECTION('',(4.49084212120835E-15,0.,-1.));
#1403=DIRECTION('center_axis',(0.,1.,0.));
#1404=DIRECTION('ref_axis',(0.,0.,1.));
#1405=DIRECTION('center_axis',(1.,0.,0.));
#1406=DIRECTION('ref_axis',(0.,1.,0.));
#1407=DIRECTION('center_axis',(0.,-1.,0.));
#1408=DIRECTION('ref_axis',(0.707106781186548,0.,-0.707106781186548));
#1409=DIRECTION('center_axis',(0.,1.,0.));
#1410=DIRECTION('ref_axis',(0.707106781186548,0.,-0.707106781186548));
#1411=DIRECTION('center_axis',(1.,0.,-7.96266513563125E-17));
#1412=DIRECTION('ref_axis',(0.,0.707106781186602,0.707106781186493));
#1413=DIRECTION('center_axis',(1.,0.,0.));
#1414=DIRECTION('ref_axis',(0.,1.,0.));
#1415=DIRECTION('',(1.,0.,-7.96266513563125E-17));
#1416=DIRECTION('',(-1.,0.,7.96266513563125E-17));
#1417=DIRECTION('center_axis',(0.,1.,0.));
#1418=DIRECTION('ref_axis',(0.,0.,1.));
#1419=DIRECTION('center_axis',(-6.93889390390707E-16,0.,-1.));
#1420=DIRECTION('ref_axis',(0.,1.,0.));
#1421=DIRECTION('center_axis',(0.,-1.,0.));
#1422=DIRECTION('ref_axis',(-0.707106781186547,0.,-0.707106781186548));
#1423=DIRECTION('center_axis',(0.,1.,0.));
#1424=DIRECTION('ref_axis',(-0.707106781186547,0.,-0.707106781186548));
#1425=DIRECTION('center_axis',(-7.3701443806033E-16,0.,-1.));
#1426=DIRECTION('ref_axis',(0.7071067811865,0.707106781186595,0.));
#1427=DIRECTION('center_axis',(-6.93889390390722E-16,0.,-1.));
#1428=DIRECTION('ref_axis',(0.,1.,0.));
#1429=DIRECTION('',(-7.37014438060331E-16,0.,-1.));
#1430=DIRECTION('',(7.37014438060331E-16,0.,1.));
#1431=DIRECTION('center_axis',(-0.946949180059837,-0.247411074658579,-0.205121940611648));
#1432=DIRECTION('ref_axis',(-0.321383338684555,0.728991475552743,0.604387440461334));
#1433=DIRECTION('center_axis',(0.,1.,0.));
#1434=DIRECTION('ref_axis',(-0.469499848271449,0.,0.882932552618311));
#1435=DIRECTION('center_axis',(0.,-1.,0.));
#1436=DIRECTION('ref_axis',(-1.,0.,-1.58289223312894E-15));
#1437=DIRECTION('center_axis',(-0.829073398976397,0.,0.559139784946237));
#1438=DIRECTION('ref_axis',(0.,1.,0.));
#1439=DIRECTION('center_axis',(0.,-1.,0.));
#1440=DIRECTION('ref_axis',(-1.,0.,-1.17553026136781E-15));
#1441=DIRECTION('center_axis',(-0.829073398976395,0.,-0.559139784946239));
#1442=DIRECTION('ref_axis',(-0.559139784946239,0.,0.829073398976395));
#1443=DIRECTION('center_axis',(0.,1.,0.));
#1444=DIRECTION('ref_axis',(-1.,0.,-1.17553026136781E-15));
#1445=DIRECTION('center_axis',(-0.946949180059838,0.247411074658579,0.205121940611648));
#1446=DIRECTION('ref_axis',(0.321383338684556,0.728991475552746,0.604387440461331));
#1447=DIRECTION('center_axis',(0.,1.,0.));
#1448=DIRECTION('ref_axis',(0.469499848271406,0.,0.882932552618334));
#1449=DIRECTION('center_axis',(-0.946949180059803,0.247411074658712,-0.205121940611648));
#1450=DIRECTION('ref_axis',(0.321383338684557,0.728991475552749,-0.604387440461326));
#1451=DIRECTION('center_axis',(0.,1.,0.));
#1452=DIRECTION('ref_axis',(0.469499848271449,0.,-0.882932552618311));
#1453=DIRECTION('center_axis',(0.,1.,0.));
#1454=DIRECTION('ref_axis',(-0.707106781186553,0.,0.707106781186542));
#1455=DIRECTION('',(0.,-1.,0.));
#1456=DIRECTION('center_axis',(0.,-1.,0.));
#1457=DIRECTION('ref_axis',(-0.707106781186547,0.,0.707106781186548));
#1458=DIRECTION('',(0.,1.,0.));
#1459=DIRECTION('center_axis',(-1.,0.,0.));
#1460=DIRECTION('ref_axis',(0.,0.,1.));
#1461=DIRECTION('',(0.,1.,0.));
#1462=DIRECTION('',(0.,0.,-1.));
#1463=DIRECTION('center_axis',(0.,-1.,0.));
#1464=DIRECTION('ref_axis',(-0.469499848271371,0.,-0.882932552618352));
#1465=DIRECTION('',(0.,-1.,0.));
#1466=DIRECTION('center_axis',(0.,-1.,0.));
#1467=DIRECTION('ref_axis',(-0.469499848271363,0.,-0.882932552618357));
#1468=DIRECTION('center_axis',(0.,1.,0.));
#1469=DIRECTION('ref_axis',(1.,0.,0.));
#1470=DIRECTION('',(0.,1.,0.));
#1471=DIRECTION('center_axis',(0.,1.,0.));
#1472=DIRECTION('ref_axis',(1.,0.,2.61228946970625E-15));
#1473=DIRECTION('center_axis',(0.,1.,0.));
#1474=DIRECTION('ref_axis',(-0.469499848271449,0.,0.882932552618311));
#1475=DIRECTION('',(0.,-1.,0.));
#1476=DIRECTION('center_axis',(0.,-1.,0.));
#1477=DIRECTION('ref_axis',(-0.469499848271449,0.,0.882932552618311));
#1478=DIRECTION('center_axis',(-1.,0.,-4.49084212120835E-15));
#1479=DIRECTION('ref_axis',(-4.49084212120835E-15,0.,1.));
#1480=DIRECTION('',(0.,1.,0.));
#1481=DIRECTION('',(4.49084212120835E-15,0.,-1.));
#1482=DIRECTION('center_axis',(0.,1.,0.));
#1483=DIRECTION('ref_axis',(0.707106781186554,0.,-0.707106781186541));
#1484=DIRECTION('',(0.,-1.,0.));
#1485=DIRECTION('center_axis',(0.,1.,0.));
#1486=DIRECTION('ref_axis',(0.707106781186548,0.,-0.707106781186548));
#1487=DIRECTION('center_axis',(7.96266513563125E-17,0.,1.));
#1488=DIRECTION('ref_axis',(1.,0.,-7.96266513563125E-17));
#1489=DIRECTION('',(0.,1.,0.));
#1490=DIRECTION('',(-1.,0.,7.96266513563125E-17));
#1491=DIRECTION('center_axis',(0.,-1.,0.));
#1492=DIRECTION('ref_axis',(-0.707106781186547,0.,-0.707106781186548));
#1493=DIRECTION('',(0.,-1.,0.));
#1494=DIRECTION('center_axis',(0.,1.,0.));
#1495=DIRECTION('ref_axis',(-0.707106781186547,0.,-0.707106781186548));
#1496=DIRECTION('center_axis',(1.,0.,-7.3701443806033E-16));
#1497=DIRECTION('ref_axis',(-7.37014438060331E-16,0.,-1.));
#1498=DIRECTION('',(0.,1.,0.));
#1499=DIRECTION('',(7.37014438060331E-16,0.,1.));
#1500=DIRECTION('center_axis',(0.,1.,0.));
#1501=DIRECTION('ref_axis',(0.469499848271414,0.,0.88293255261833));
#1502=DIRECTION('',(0.,-1.,0.));
#1503=DIRECTION('center_axis',(0.,-1.,0.));
#1504=DIRECTION('ref_axis',(0.469499848271406,0.,0.882932552618334));
#1505=DIRECTION('center_axis',(0.,1.,0.));
#1506=DIRECTION('ref_axis',(-1.,0.,-5.66553889764798E-16));
#1507=DIRECTION('',(0.,1.,0.));
#1508=DIRECTION('center_axis',(0.,1.,0.));
#1509=DIRECTION('ref_axis',(-1.,0.,-9.14301314397188E-16));
#1510=DIRECTION('center_axis',(0.,1.,0.));
#1511=DIRECTION('ref_axis',(1.,0.,0.));
#1512=DIRECTION('center_axis',(0.,-1.,0.));
#1513=DIRECTION('ref_axis',(-1.,0.,1.75876914792104E-16));
#1514=DIRECTION('center_axis',(-0.829073398976397,0.,0.559139784946237));
#1515=DIRECTION('ref_axis',(-0.559139784946237,0.,-0.829073398976397));
#1516=DIRECTION('center_axis',(0.,-1.,0.));
#1517=DIRECTION('ref_axis',(-1.,0.,-9.14301314397188E-16));
#1518=DIRECTION('center_axis',(-0.829073398976395,0.,-0.559139784946239));
#1519=DIRECTION('ref_axis',(0.,-1.,0.));
#1520=DIRECTION('center_axis',(4.49084212120835E-15,0.,-1.));
#1521=DIRECTION('ref_axis',(-0.707106781186532,-0.707106781186563,-2.94392336003208E-15));
#1522=DIRECTION('center_axis',(4.51028103754E-15,0.,-1.));
#1523=DIRECTION('ref_axis',(0.,-1.,0.));
#1524=DIRECTION('center_axis',(-4.64038529823826E-15,0.,1.));
#1525=DIRECTION('ref_axis',(-1.,0.,-4.64038529823826E-15));
#1526=DIRECTION('',(-4.49084212120835E-15,0.,1.));
#1527=DIRECTION('center_axis',(0.,-1.,0.));
#1528=DIRECTION('ref_axis',(0.,0.,-1.));
#1529=DIRECTION('center_axis',(1.,0.,0.));
#1530=DIRECTION('ref_axis',(0.,0.,1.));
#1531=DIRECTION('center_axis',(0.,-1.,0.));
#1532=DIRECTION('ref_axis',(0.707106781186548,0.,-0.707106781186548));
#1533=DIRECTION('center_axis',(-1.,0.,7.96266513563125E-17));
#1534=DIRECTION('ref_axis',(0.,-0.707106781186555,0.70710678118654));
#1535=DIRECTION('center_axis',(1.,0.,0.));
#1536=DIRECTION('ref_axis',(0.,0.,1.));
#1537=DIRECTION('',(1.,0.,-7.96266513563125E-17));
#1538=DIRECTION('center_axis',(0.,-1.,0.));
#1539=DIRECTION('ref_axis',(0.,0.,-1.));
#1540=DIRECTION('center_axis',(-6.93889390390707E-16,0.,-1.));
#1541=DIRECTION('ref_axis',(1.,0.,-6.93889390390707E-16));
#1542=DIRECTION('center_axis',(0.,-1.,0.));
#1543=DIRECTION('ref_axis',(-0.707106781186547,0.,-0.707106781186548));
#1544=DIRECTION('center_axis',(-7.3701443806033E-16,0.,-1.));
#1545=DIRECTION('ref_axis',(0.707106781186532,-0.707106781186563,0.));
#1546=DIRECTION('center_axis',(-6.93889390390738E-16,0.,-1.));
#1547=DIRECTION('ref_axis',(1.,0.,-6.93889390390738E-16));
#1548=DIRECTION('',(-7.37014438060331E-16,0.,-1.));
#1549=DIRECTION('center_axis',(0.,1.,0.));
#1550=DIRECTION('ref_axis',(1.,0.,2.46227680708945E-15));
#1551=DIRECTION('center_axis',(0.82907339897639,0.,0.559139784946247));
#1552=DIRECTION('ref_axis',(0.,-1.,0.));
#1553=DIRECTION('center_axis',(0.829073398976406,0.,-0.559139784946224));
#1554=DIRECTION('ref_axis',(0.559139784946223,0.,0.829073398976406));
#1555=DIRECTION('center_axis',(0.,-1.,0.));
#1556=DIRECTION('ref_axis',(1.,0.,2.61228946970625E-15));
#1557=DIRECTION('center_axis',(0.,0.,1.));
#1558=DIRECTION('ref_axis',(0.707106781186548,-0.707106781186548,0.));
#1559=DIRECTION('center_axis',(0.,0.,1.));
#1560=DIRECTION('ref_axis',(0.,-1.,0.));
#1561=DIRECTION('',(0.,0.,1.));
#1562=DIRECTION('center_axis',(0.,0.,-1.));
#1563=DIRECTION('ref_axis',(1.,0.,0.));
#1564=DIRECTION('',(0.,0.,-1.));
#1565=DIRECTION('center_axis',(0.,1.,0.));
#1566=DIRECTION('ref_axis',(0.,0.,1.));
#1567=DIRECTION('center_axis',(1.,0.,0.));
#1568=DIRECTION('ref_axis',(0.,0.,1.));
#1569=DIRECTION('center_axis',(0.,1.,0.));
#1570=DIRECTION('ref_axis',(0.707106781186547,0.,0.707106781186548));
#1571=DIRECTION('center_axis',(0.,-1.,0.));
#1572=DIRECTION('ref_axis',(0.707106781186547,0.,0.707106781186548));
#1573=DIRECTION('center_axis',(1.,0.,0.));
#1574=DIRECTION('ref_axis',(0.,-0.707106781186555,0.70710678118654));
#1575=DIRECTION('center_axis',(1.,0.,0.));
#1576=DIRECTION('ref_axis',(0.,0.,1.));
#1577=DIRECTION('',(1.,0.,0.));
#1578=DIRECTION('',(-1.,0.,0.));
#1579=DIRECTION('center_axis',(0.,1.,0.));
#1580=DIRECTION('ref_axis',(0.,0.,1.));
#1581=DIRECTION('center_axis',(-2.77555756156295E-15,0.,1.));
#1582=DIRECTION('ref_axis',(-1.,0.,-2.77555756156295E-15));
#1583=DIRECTION('center_axis',(0.,1.,0.));
#1584=DIRECTION('ref_axis',(-0.707106781186547,0.,0.707106781186548));
#1585=DIRECTION('center_axis',(0.,-1.,0.));
#1586=DIRECTION('ref_axis',(-0.707106781186547,0.,0.707106781186548));
#1587=DIRECTION('center_axis',(0.,0.,1.));
#1588=DIRECTION('ref_axis',(-0.707106781186532,-0.707106781186563,0.));
#1589=DIRECTION('center_axis',(0.,0.,1.));
#1590=DIRECTION('ref_axis',(-1.,0.,0.));
#1591=DIRECTION('',(0.,0.,1.));
#1592=DIRECTION('',(0.,0.,-1.));
#1593=DIRECTION('center_axis',(0.,1.,0.));
#1594=DIRECTION('ref_axis',(0.,0.,1.));
#1595=DIRECTION('center_axis',(-1.,0.,0.));
#1596=DIRECTION('ref_axis',(0.,0.,-1.));
#1597=DIRECTION('center_axis',(0.,1.,0.));
#1598=DIRECTION('ref_axis',(-0.707106781186549,0.,-0.707106781186546));
#1599=DIRECTION('center_axis',(0.,-1.,0.));
#1600=DIRECTION('ref_axis',(-0.707106781186549,0.,-0.707106781186546));
#1601=DIRECTION('center_axis',(-1.,0.,0.));
#1602=DIRECTION('ref_axis',(0.,-0.707106781186555,-0.70710678118654));
#1603=DIRECTION('center_axis',(-1.,0.,0.));
#1604=DIRECTION('ref_axis',(0.,0.,-1.));
#1605=DIRECTION('',(-1.,0.,0.));
#1606=DIRECTION('',(1.,0.,0.));
#1607=DIRECTION('center_axis',(0.,1.,0.));
#1608=DIRECTION('ref_axis',(0.,0.,1.));
#1609=DIRECTION('center_axis',(0.,0.,-1.));
#1610=DIRECTION('ref_axis',(1.,0.,0.));
#1611=DIRECTION('center_axis',(0.,1.,0.));
#1612=DIRECTION('ref_axis',(0.707106781186547,0.,-0.707106781186548));
#1613=DIRECTION('center_axis',(0.,-1.,0.));
#1614=DIRECTION('ref_axis',(0.707106781186547,0.,-0.707106781186548));
#1615=DIRECTION('center_axis',(0.,0.,-1.));
#1616=DIRECTION('ref_axis',(0.707106781186532,-0.707106781186563,0.));
#1617=DIRECTION('center_axis',(0.,0.,-1.));
#1618=DIRECTION('ref_axis',(1.,0.,0.));
#1619=DIRECTION('',(0.,0.,-1.));
#1620=DIRECTION('',(0.,0.,1.));
#1621=DIRECTION('center_axis',(0.,1.,0.));
#1622=DIRECTION('ref_axis',(0.,0.,1.));
#1623=DIRECTION('center_axis',(1.,0.,0.));
#1624=DIRECTION('ref_axis',(0.,0.,1.));
#1625=DIRECTION('center_axis',(0.,1.,0.));
#1626=DIRECTION('ref_axis',(0.707106781186547,0.,0.707106781186548));
#1627=DIRECTION('center_axis',(0.,-1.,0.));
#1628=DIRECTION('ref_axis',(0.707106781186547,0.,0.707106781186548));
#1629=DIRECTION('center_axis',(1.,0.,0.));
#1630=DIRECTION('ref_axis',(0.,-0.707106781186555,0.70710678118654));
#1631=DIRECTION('center_axis',(1.,0.,0.));
#1632=DIRECTION('ref_axis',(0.,0.,1.));
#1633=DIRECTION('',(1.,0.,0.));
#1634=DIRECTION('',(-1.,0.,0.));
#1635=DIRECTION('center_axis',(0.,1.,0.));
#1636=DIRECTION('ref_axis',(0.,0.,1.));
#1637=DIRECTION('center_axis',(0.,0.,1.));
#1638=DIRECTION('ref_axis',(-1.,0.,0.));
#1639=DIRECTION('center_axis',(0.,1.,0.));
#1640=DIRECTION('ref_axis',(-0.707106781186547,0.,0.707106781186548));
#1641=DIRECTION('center_axis',(0.,0.,-1.));
#1642=DIRECTION('ref_axis',(-0.707106781186532,-0.707106781186563,0.));
#1643=DIRECTION('center_axis',(0.,0.,1.));
#1644=DIRECTION('ref_axis',(-1.,0.,0.));
#1645=DIRECTION('',(0.,0.,1.));
#1646=DIRECTION('center_axis',(-0.946949180059837,0.247411074658606,0.205121940611617));
#1647=DIRECTION('ref_axis',(-0.321383338684527,-0.728991475552744,-0.604387440461348));
#1648=DIRECTION('center_axis',(-0.946949180059814,0.247411074658662,-0.205121940611656));
#1649=DIRECTION('ref_axis',(-0.321383338684562,-0.728991475552743,0.604387440461331));
#1650=DIRECTION('center_axis',(-0.946949180059826,-0.24741107465863,0.20512194061164));
#1651=DIRECTION('ref_axis',(0.321383338684529,-0.728991475552748,0.604387440461342));
#1652=DIRECTION('center_axis',(-0.946949180059814,-0.247411074658662,-0.205121940611655));
#1653=DIRECTION('ref_axis',(0.321383338684563,-0.728991475552745,-0.604387440461329));
#1654=DIRECTION('center_axis',(0.,-1.,0.));
#1655=DIRECTION('ref_axis',(0.469499848271449,0.,-0.882932552618311));
#1656=DIRECTION('center_axis',(0.,0.,1.));
#1657=DIRECTION('ref_axis',(1.,0.,0.));
#1658=DIRECTION('',(0.,-1.,0.));
#1659=DIRECTION('center_axis',(0.,1.,0.));
#1660=DIRECTION('ref_axis',(0.707106781186546,0.,0.707106781186549));
#1661=DIRECTION('',(0.,1.,0.));
#1662=DIRECTION('center_axis',(1.,0.,0.));
#1663=DIRECTION('ref_axis',(0.,0.,-1.));
#1664=DIRECTION('',(0.,-1.,0.));
#1665=DIRECTION('center_axis',(0.,1.,0.));
#1666=DIRECTION('ref_axis',(0.707106781186546,0.,-0.707106781186549));
#1667=DIRECTION('',(0.,1.,0.));
#1668=DIRECTION('center_axis',(0.,0.,-1.));
#1669=DIRECTION('ref_axis',(-1.,0.,0.));
#1670=DIRECTION('',(0.,-1.,0.));
#1671=DIRECTION('center_axis',(0.,1.,0.));
#1672=DIRECTION('ref_axis',(-0.707106781186549,0.,-0.707106781186546));
#1673=DIRECTION('',(0.,1.,0.));
#1674=DIRECTION('center_axis',(-1.,0.,0.));
#1675=DIRECTION('ref_axis',(0.,0.,1.));
#1676=DIRECTION('',(0.,-1.,0.));
#1677=DIRECTION('center_axis',(0.,1.,0.));
#1678=DIRECTION('ref_axis',(-0.707106781186547,0.,0.707106781186548));
#1679=DIRECTION('',(0.,1.,0.));
#1680=DIRECTION('center_axis',(0.,0.,1.));
#1681=DIRECTION('ref_axis',(1.,0.,0.));
#1682=DIRECTION('',(0.,-1.,0.));
#1683=DIRECTION('center_axis',(0.,-1.,0.));
#1684=DIRECTION('ref_axis',(0.707106781186547,0.,0.707106781186548));
#1685=DIRECTION('',(0.,1.,0.));
#1686=DIRECTION('center_axis',(1.,0.,0.));
#1687=DIRECTION('ref_axis',(0.,0.,-1.));
#1688=DIRECTION('',(0.,-1.,0.));
#1689=DIRECTION('center_axis',(0.,1.,0.));
#1690=DIRECTION('ref_axis',(1.,0.,0.));
#1691=DIRECTION('center_axis',(0.,1.,0.));
#1692=DIRECTION('ref_axis',(0.469499848271453,0.,-0.882932552618309));
#1693=CARTESIAN_POINT('',(0.,0.,0.));
#1694=CARTESIAN_POINT('Origin',(36.1136519567008,199.8,4.79455624585403));
#1695=CARTESIAN_POINT('',(37.1136519567008,199.8,4.79455624585403));
#1696=CARTESIAN_POINT('',(36.9136519567008,200.,4.79455624585403));
#1697=CARTESIAN_POINT('Origin',(36.9136519567008,199.8,4.79455624585403));
#1698=CARTESIAN_POINT('',(36.1136519567008,200.,5.59455624585403));
#1699=CARTESIAN_POINT('Origin',(36.1136519567008,200.,4.79455624585403));
#1700=CARTESIAN_POINT('',(36.1136519567008,199.8,5.79455624585403));
#1701=CARTESIAN_POINT('Origin',(36.1136519567008,199.8,5.59455624585403));
#1702=CARTESIAN_POINT('Origin',(36.1136519567008,199.8,4.79455624585403));
#1703=CARTESIAN_POINT('Origin',(36.6136519567008,199.8,5.59455624585403));
#1704=CARTESIAN_POINT('',(32.6136519567007,200.,5.59455624585403));
#1705=CARTESIAN_POINT('',(32.6136519567007,199.8,5.79455624585403));
#1706=CARTESIAN_POINT('Origin',(32.6136519567007,199.8,5.59455624585403));
#1707=CARTESIAN_POINT('',(36.6136519567008,199.8,5.79455624585403));
#1708=CARTESIAN_POINT('',(36.6136519567008,200.,5.59455624585403));
#1709=CARTESIAN_POINT('Origin',(32.6136519567007,199.8,4.79455624585403));
#1710=CARTESIAN_POINT('',(31.8136519567008,200.,4.79455624585403));
#1711=CARTESIAN_POINT('',(31.6136519567008,199.8,4.79455624585403));
#1712=CARTESIAN_POINT('Origin',(31.8136519567008,199.8,4.79455624585403));
#1713=CARTESIAN_POINT('Origin',(32.6136519567007,199.8,4.79455624585403));
#1714=CARTESIAN_POINT('Origin',(32.6136519567007,200.,4.79455624585403));
#1715=CARTESIAN_POINT('Origin',(31.8136519567008,199.8,-0.767943754145972));
#1716=CARTESIAN_POINT('',(31.8136519567008,200.,-3.20544375414597));
#1717=CARTESIAN_POINT('',(31.6136519567008,199.8,-3.20544375414597));
#1718=CARTESIAN_POINT('Origin',(31.8136519567008,199.8,-3.20544375414597));
#1719=CARTESIAN_POINT('',(31.6136519567008,199.8,-0.767943754145972));
#1720=CARTESIAN_POINT('',(31.8136519567008,200.,-0.767943754145972));
#1721=CARTESIAN_POINT('Origin',(32.6136519567008,199.8,-3.20544375414597));
#1722=CARTESIAN_POINT('',(32.6136519567008,200.,-4.00544375414597));
#1723=CARTESIAN_POINT('',(32.6136519567008,199.8,-4.20544375414597));
#1724=CARTESIAN_POINT('Origin',(32.6136519567008,199.8,-4.00544375414597));
#1725=CARTESIAN_POINT('Origin',(32.6136519567008,199.8,-3.20544375414597));
#1726=CARTESIAN_POINT('Origin',(32.6136519567008,200.,-3.20544375414597));
#1727=CARTESIAN_POINT('Origin',(46.6136519567008,199.8,-4.00544375414597));
#1728=CARTESIAN_POINT('',(50.6136519567008,200.,-4.00544375414597));
#1729=CARTESIAN_POINT('',(50.6136519567008,199.8,-4.20544375414597));
#1730=CARTESIAN_POINT('Origin',(50.6136519567008,199.8,-4.00544375414597));
#1731=CARTESIAN_POINT('',(46.6136519567008,199.8,-4.20544375414597));
#1732=CARTESIAN_POINT('',(46.6136519567008,200.,-4.00544375414597));
#1733=CARTESIAN_POINT('Origin',(50.6136519567008,199.8,-3.20544375414597));
#1734=CARTESIAN_POINT('',(51.4136519567008,200.,-3.20544375414597));
#1735=CARTESIAN_POINT('',(51.6136519567008,199.8,-3.20544375414597));
#1736=CARTESIAN_POINT('Origin',(51.4136519567008,199.8,-3.20544375414597));
#1737=CARTESIAN_POINT('Origin',(50.6136519567008,199.8,-3.20544375414597));
#1738=CARTESIAN_POINT('Origin',(50.6136519567008,200.,-3.20544375414597));
#1739=CARTESIAN_POINT('Origin',(51.4136519567008,199.8,3.60705624585403));
#1740=CARTESIAN_POINT('',(51.4136519567008,200.,4.79455624585403));
#1741=CARTESIAN_POINT('',(51.6136519567008,199.8,4.79455624585403));
#1742=CARTESIAN_POINT('Origin',(51.4136519567008,199.8,4.79455624585403));
#1743=CARTESIAN_POINT('',(51.6136519567008,199.8,3.60705624585403));
#1744=CARTESIAN_POINT('',(51.4136519567008,200.,3.60705624585403));
#1745=CARTESIAN_POINT('Origin',(50.6136519567008,199.8,4.79455624585403));
#1746=CARTESIAN_POINT('',(50.6136519567008,200.,5.59455624585403));
#1747=CARTESIAN_POINT('',(50.6136519567008,199.8,5.79455624585403));
#1748=CARTESIAN_POINT('Origin',(50.6136519567008,199.8,5.59455624585403));
#1749=CARTESIAN_POINT('Origin',(50.6136519567008,199.8,4.79455624585403));
#1750=CARTESIAN_POINT('Origin',(50.6136519567008,200.,4.79455624585403));
#1751=CARTESIAN_POINT('Origin',(44.6636519567008,199.8,5.59455624585403));
#1752=CARTESIAN_POINT('',(47.1136519567008,200.,5.59455624585403));
#1753=CARTESIAN_POINT('',(47.1136519567008,199.8,5.79455624585403));
#1754=CARTESIAN_POINT('Origin',(47.1136519567008,199.8,5.59455624585403));
#1755=CARTESIAN_POINT('',(44.6636519567008,199.8,5.79455624585403));
#1756=CARTESIAN_POINT('',(44.6636519567008,200.,5.59455624585403));
#1757=CARTESIAN_POINT('Origin',(47.1136519567008,199.8,4.79455624585403));
#1758=CARTESIAN_POINT('',(46.3136519567008,200.,4.79455624585403));
#1759=CARTESIAN_POINT('',(46.1136519567008,199.8,4.79455624585403));
#1760=CARTESIAN_POINT('Origin',(46.3136519567008,199.8,4.79455624585403));
#1761=CARTESIAN_POINT('Origin',(47.1136519567008,199.8,4.79455624585403));
#1762=CARTESIAN_POINT('Origin',(47.1136519567008,200.,4.79455624585403));
#1763=CARTESIAN_POINT('Origin',(46.3136519567008,199.8,2.7933791232104));
#1764=CARTESIAN_POINT('',(46.3136519567008,200.,3.97215189847416));
#1765=CARTESIAN_POINT('',(46.1136519567008,199.8,3.97215189847416));
#1766=CARTESIAN_POINT('Origin',(46.3136519567008,199.8,3.97215189847416));
#1767=CARTESIAN_POINT('',(46.1136519567008,199.8,2.7933791232104));
#1768=CARTESIAN_POINT('',(46.3136519567008,200.,2.7933791232104));
#1769=CARTESIAN_POINT('Origin',(36.9136519567008,199.8,3.60705624585403));
#1770=CARTESIAN_POINT('',(37.1136519567008,199.8,3.97215189847415));
#1771=CARTESIAN_POINT('',(36.9136519567008,200.,3.97215189847415));
#1772=CARTESIAN_POINT('Origin',(36.9136519567008,199.8,3.97215189847415));
#1773=CARTESIAN_POINT('',(36.9136519567008,200.,3.60705624585403));
#1774=CARTESIAN_POINT('',(37.1136519567008,199.8,3.60705624585403));
#1775=CARTESIAN_POINT('Origin',(47.6136519567007,199.8,2.04455624585403));
#1776=CARTESIAN_POINT('',(46.3136519567008,200.,0.116960593233889));
#1777=CARTESIAN_POINT('',(46.42547991369,199.8,0.282775273029168));
#1778=CARTESIAN_POINT('Origin',(46.3136519567008,199.8,0.116960593233889));
#1779=CARTESIAN_POINT('',(46.42547991369,199.8,3.80633721867888));
#1780=CARTESIAN_POINT('Origin',(47.6136519567007,199.8,2.04455624585403));
#1781=CARTESIAN_POINT('Origin',(46.3136519567008,199.8,3.97215189847416));
#1782=CARTESIAN_POINT('Origin',(47.6136519567007,200.,2.04455624585403));
#1783=CARTESIAN_POINT('Origin',(46.3136519567008,199.8,3.97215189847416));
#1784=CARTESIAN_POINT('Origin',(46.3136519567008,199.8,3.97215189847416));
#1785=CARTESIAN_POINT('Origin',(46.3136519567008,199.8,0.432056245854038));
#1786=CARTESIAN_POINT('',(46.3136519567008,200.,-0.0554437541459697));
#1787=CARTESIAN_POINT('',(46.1136519567008,199.8,-0.0554437541459706));
#1788=CARTESIAN_POINT('Origin',(46.3136519567008,199.8,-0.0554437541459697));
#1789=CARTESIAN_POINT('',(46.1136519567008,199.8,0.116960593233886));
#1790=CARTESIAN_POINT('',(46.1136519567008,199.8,0.432056245854037));
#1791=CARTESIAN_POINT('Origin',(46.3136519567008,199.8,0.116960593233887));
#1792=CARTESIAN_POINT('',(46.3136519567008,200.,0.432056245854038));
#1793=CARTESIAN_POINT('Origin',(45.6136519567008,199.8,-0.0554437541459728));
#1794=CARTESIAN_POINT('',(45.6136519567008,200.,-0.755443754145973));
#1795=CARTESIAN_POINT('',(45.6136519567008,199.8,-0.555443754145973));
#1796=CARTESIAN_POINT('Origin',(45.6136519567008,199.8,-0.755443754145973));
#1797=CARTESIAN_POINT('Origin',(45.6136519567008,199.8,-0.0554437541459728));
#1798=CARTESIAN_POINT('Origin',(45.6136519567008,200.,-0.0554437541459728));
#1799=CARTESIAN_POINT('Origin',(38.5636519567008,199.8,-0.755443754145972));
#1800=CARTESIAN_POINT('',(37.6136519567008,200.,-0.755443754145972));
#1801=CARTESIAN_POINT('',(37.6136519567008,199.8,-0.555443754145972));
#1802=CARTESIAN_POINT('Origin',(37.6136519567008,199.8,-0.755443754145972));
#1803=CARTESIAN_POINT('',(38.5636519567008,199.8,-0.555443754145972));
#1804=CARTESIAN_POINT('',(38.5636519567008,200.,-0.755443754145972));
#1805=CARTESIAN_POINT('Origin',(37.6136519567008,199.8,-0.0554437541459722));
#1806=CARTESIAN_POINT('',(36.9136519567008,200.,-0.0554437541459717));
#1807=CARTESIAN_POINT('',(37.1136519567008,199.8,-0.0554437541459718));
#1808=CARTESIAN_POINT('Origin',(36.9136519567008,199.8,-0.0554437541459717));
#1809=CARTESIAN_POINT('Origin',(37.6136519567008,199.8,-0.0554437541459722));
#1810=CARTESIAN_POINT('Origin',(37.6136519567008,200.,-0.0554437541459722));
#1811=CARTESIAN_POINT('Origin',(36.9136519567008,199.8,0.891576472153321));
#1812=CARTESIAN_POINT('',(36.9136519567008,200.,0.11696059323391));
#1813=CARTESIAN_POINT('',(37.1136519567008,199.8,0.116960593233909));
#1814=CARTESIAN_POINT('Origin',(36.9136519567008,199.8,0.11696059323391));
#1815=CARTESIAN_POINT('',(37.1136519567008,199.8,0.891576472153321));
#1816=CARTESIAN_POINT('',(36.9136519567008,200.,0.891576472153321));
#1817=CARTESIAN_POINT('Origin',(46.3136519567008,199.8,0.116960593233887));
#1818=CARTESIAN_POINT('Origin',(46.3136519567008,199.8,0.116960593233887));
#1819=CARTESIAN_POINT('Origin',(35.6136519567008,199.8,2.04455624585403));
#1820=CARTESIAN_POINT('',(36.8018239997115,199.8,3.80633721867887));
#1821=CARTESIAN_POINT('Origin',(36.9136519567008,199.8,3.97215189847415));
#1822=CARTESIAN_POINT('',(36.8018239997115,199.8,0.282775273029189));
#1823=CARTESIAN_POINT('Origin',(35.6136519567008,199.8,2.04455624585403));
#1824=CARTESIAN_POINT('Origin',(36.9136519567008,199.8,0.11696059323391));
#1825=CARTESIAN_POINT('Origin',(35.6136519567008,200.,2.04455624585403));
#1826=CARTESIAN_POINT('Origin',(36.9136519567008,199.8,0.11696059323391));
#1827=CARTESIAN_POINT('Origin',(36.9136519567008,199.8,0.11696059323391));
#1828=CARTESIAN_POINT('Origin',(36.9136519567008,199.8,3.97215189847415));
#1829=CARTESIAN_POINT('Origin',(36.9136519567008,199.8,3.97215189847415));
#1830=CARTESIAN_POINT('Origin',(47.1136519567008,0.,4.79455624585403));
#1831=CARTESIAN_POINT('',(46.1136519567008,30.2,4.79455624585403));
#1832=CARTESIAN_POINT('',(46.1136519567008,0.,4.79455624585403));
#1833=CARTESIAN_POINT('',(47.1136519567008,30.2,5.79455624585403));
#1834=CARTESIAN_POINT('Origin',(47.1136519567008,30.2,4.79455624585403));
#1835=CARTESIAN_POINT('',(47.1136519567008,0.,5.79455624585403));
#1836=CARTESIAN_POINT('Origin',(46.1136519567008,0.,4.16720200056677));
#1837=CARTESIAN_POINT('',(46.1136519567008,30.2,3.97215189847416));
#1838=CARTESIAN_POINT('',(46.1136519567008,0.,3.97215189847416));
#1839=CARTESIAN_POINT('',(46.1136519567008,30.2,2.7933791232104));
#1840=CARTESIAN_POINT('Origin',(46.3136519567008,0.,3.97215189847416));
#1841=CARTESIAN_POINT('',(46.42547991369,30.2,3.80633721867888));
#1842=CARTESIAN_POINT('',(46.42547991369,0.,3.80633721867888));
#1843=CARTESIAN_POINT('Origin',(46.3136519567008,30.2,3.97215189847416));
#1844=CARTESIAN_POINT('Origin',(47.6136519567007,0.,2.04455624585403));
#1845=CARTESIAN_POINT('',(46.42547991369,30.2,0.282775273029168));
#1846=CARTESIAN_POINT('',(46.42547991369,0.,0.282775273029168));
#1847=CARTESIAN_POINT('Origin',(47.6136519567007,30.2,2.04455624585403));
#1848=CARTESIAN_POINT('Origin',(46.3136519567008,0.,0.116960593233887));
#1849=CARTESIAN_POINT('',(46.1136519567008,30.2,0.116960593233886));
#1850=CARTESIAN_POINT('',(46.1136519567008,0.,0.116960593233886));
#1851=CARTESIAN_POINT('Origin',(46.3136519567008,30.2,0.116960593233887));
#1852=CARTESIAN_POINT('Origin',(46.1136519567008,0.,-0.555443754145974));
#1853=CARTESIAN_POINT('',(46.1136519567008,30.2,-0.0554437541459706));
#1854=CARTESIAN_POINT('',(46.1136519567008,0.,-0.0554437541459706));
#1855=CARTESIAN_POINT('',(46.1136519567008,30.2,0.432056245854037));
#1856=CARTESIAN_POINT('Origin',(45.6136519567008,0.,-0.0554437541459728));
#1857=CARTESIAN_POINT('',(45.6136519567008,30.2,-0.555443754145973));
#1858=CARTESIAN_POINT('',(45.6136519567008,0.,-0.555443754145973));
#1859=CARTESIAN_POINT('Origin',(45.6136519567008,30.2,-0.0554437541459728));
#1860=CARTESIAN_POINT('Origin',(35.5136519567008,0.,-0.555443754145972));
#1861=CARTESIAN_POINT('',(37.6136519567008,30.2,-0.555443754145972));
#1862=CARTESIAN_POINT('',(37.6136519567008,0.,-0.555443754145972));
#1863=CARTESIAN_POINT('',(38.5636519567008,30.2,-0.555443754145972));
#1864=CARTESIAN_POINT('Origin',(37.6136519567008,0.,-0.0554437541459722));
#1865=CARTESIAN_POINT('',(37.1136519567008,30.2,-0.0554437541459718));
#1866=CARTESIAN_POINT('',(37.1136519567008,0.,-0.0554437541459718));
#1867=CARTESIAN_POINT('Origin',(37.6136519567008,30.2,-0.0554437541459722));
#1868=CARTESIAN_POINT('Origin',(37.1136519567008,0.,0.363596698452612));
#1869=CARTESIAN_POINT('',(37.1136519567008,30.2,0.116960593233909));
#1870=CARTESIAN_POINT('',(37.1136519567008,0.,0.116960593233909));
#1871=CARTESIAN_POINT('',(37.1136519567008,30.2,0.891576472153321));
#1872=CARTESIAN_POINT('Origin',(36.9136519567008,0.,0.11696059323391));
#1873=CARTESIAN_POINT('',(36.8018239997115,30.2,0.282775273029189));
#1874=CARTESIAN_POINT('',(36.8018239997115,0.,0.282775273029189));
#1875=CARTESIAN_POINT('Origin',(36.9136519567008,30.2,0.11696059323391));
#1876=CARTESIAN_POINT('Origin',(35.6136519567008,0.,2.04455624585403));
#1877=CARTESIAN_POINT('',(36.8018239997115,30.2,3.80633721867887));
#1878=CARTESIAN_POINT('',(36.8018239997115,0.,3.80633721867887));
#1879=CARTESIAN_POINT('Origin',(35.6136519567008,30.2,2.04455624585403));
#1880=CARTESIAN_POINT('Origin',(41.6136519567008,200.,1.41955624585403));
#1881=CARTESIAN_POINT('Origin',(35.6136519567008,30.2,2.04455624585403));
#1882=CARTESIAN_POINT('',(36.9136519567008,30.,3.97215189847415));
#1883=CARTESIAN_POINT('Origin',(36.9136519567008,30.2,3.97215189847415));
#1884=CARTESIAN_POINT('',(36.9136519567008,30.,0.11696059323391));
#1885=CARTESIAN_POINT('Origin',(35.6136519567008,30.,2.04455624585403));
#1886=CARTESIAN_POINT('Origin',(36.9136519567008,30.2,0.11696059323391));
#1887=CARTESIAN_POINT('Origin',(46.3136519567008,30.2,0.432056245854038));
#1888=CARTESIAN_POINT('',(46.3136519567008,30.,0.116960593233887));
#1889=CARTESIAN_POINT('Origin',(46.3136519567008,30.2,0.116960593233887));
#1890=CARTESIAN_POINT('',(46.3136519567008,30.,-0.0554437541459697));
#1891=CARTESIAN_POINT('Origin',(46.3136519567008,30.2,-0.0554437541459697));
#1892=CARTESIAN_POINT('',(46.3136519567008,30.,0.432056245854038));
#1893=CARTESIAN_POINT('Origin',(45.6136519567008,30.2,-0.0554437541459728));
#1894=CARTESIAN_POINT('',(45.6136519567008,30.,-0.755443754145973));
#1895=CARTESIAN_POINT('Origin',(45.6136519567008,30.2,-0.755443754145973));
#1896=CARTESIAN_POINT('Origin',(45.6136519567008,30.,-0.0554437541459728));
#1897=CARTESIAN_POINT('Origin',(38.5636519567008,30.2,-0.755443754145972));
#1898=CARTESIAN_POINT('',(37.6136519567008,30.,-0.755443754145972));
#1899=CARTESIAN_POINT('Origin',(37.6136519567008,30.2,-0.755443754145972));
#1900=CARTESIAN_POINT('',(38.5636519567008,30.,-0.755443754145972));
#1901=CARTESIAN_POINT('Origin',(37.6136519567008,30.2,-0.0554437541459722));
#1902=CARTESIAN_POINT('',(36.9136519567008,30.,-0.0554437541459717));
#1903=CARTESIAN_POINT('Origin',(36.9136519567008,30.2,-0.0554437541459717));
#1904=CARTESIAN_POINT('Origin',(37.6136519567008,30.,-0.0554437541459722));
#1905=CARTESIAN_POINT('Origin',(36.9136519567008,30.2,0.891576472153321));
#1906=CARTESIAN_POINT('Origin',(36.9136519567008,30.2,0.11696059323391));
#1907=CARTESIAN_POINT('',(36.9136519567008,30.,0.891576472153321));
#1908=CARTESIAN_POINT('Origin',(47.6136519567007,30.2,2.04455624585403));
#1909=CARTESIAN_POINT('',(46.3136519567008,30.,3.97215189847416));
#1910=CARTESIAN_POINT('Origin',(46.3136519567008,30.2,3.97215189847416));
#1911=CARTESIAN_POINT('Origin',(46.3136519567008,30.2,0.116960593233889));
#1912=CARTESIAN_POINT('Origin',(47.6136519567007,30.,2.04455624585403));
#1913=CARTESIAN_POINT('Origin',(36.9136519567008,30.2,3.60705624585403));
#1914=CARTESIAN_POINT('',(37.1136519567008,30.2,3.97215189847415));
#1915=CARTESIAN_POINT('Origin',(36.9136519567008,30.2,3.97215189847415));
#1916=CARTESIAN_POINT('',(37.1136519567008,30.2,4.79455624585403));
#1917=CARTESIAN_POINT('',(37.1136519567008,30.2,3.60705624585403));
#1918=CARTESIAN_POINT('',(36.9136519567008,30.,4.79455624585403));
#1919=CARTESIAN_POINT('Origin',(36.9136519567008,30.2,4.79455624585403));
#1920=CARTESIAN_POINT('',(36.9136519567008,30.,3.60705624585403));
#1921=CARTESIAN_POINT('Origin',(36.1136519567008,30.2,4.79455624585403));
#1922=CARTESIAN_POINT('',(36.1136519567008,30.2,5.79455624585403));
#1923=CARTESIAN_POINT('',(36.1136519567008,30.,5.59455624585403));
#1924=CARTESIAN_POINT('Origin',(36.1136519567008,30.2,5.59455624585403));
#1925=CARTESIAN_POINT('Origin',(36.1136519567008,30.,4.79455624585403));
#1926=CARTESIAN_POINT('Origin',(36.1136519567008,30.2,4.79455624585403));
#1927=CARTESIAN_POINT('Origin',(36.6136519567008,30.2,5.59455624585403));
#1928=CARTESIAN_POINT('',(32.6136519567007,30.2,5.79455624585403));
#1929=CARTESIAN_POINT('',(32.6136519567007,30.,5.59455624585403));
#1930=CARTESIAN_POINT('Origin',(32.6136519567007,30.2,5.59455624585403));
#1931=CARTESIAN_POINT('',(36.6136519567008,30.,5.59455624585403));
#1932=CARTESIAN_POINT('',(36.6136519567008,30.2,5.79455624585403));
#1933=CARTESIAN_POINT('Origin',(32.6136519567007,30.2,4.79455624585403));
#1934=CARTESIAN_POINT('',(31.6136519567008,30.2,4.79455624585403));
#1935=CARTESIAN_POINT('',(31.8136519567008,30.,4.79455624585403));
#1936=CARTESIAN_POINT('Origin',(31.8136519567008,30.2,4.79455624585403));
#1937=CARTESIAN_POINT('Origin',(32.6136519567007,30.,4.79455624585403));
#1938=CARTESIAN_POINT('Origin',(32.6136519567007,30.2,4.79455624585403));
#1939=CARTESIAN_POINT('Origin',(31.8136519567008,30.2,-0.767943754145972));
#1940=CARTESIAN_POINT('',(31.6136519567008,30.2,-3.20544375414597));
#1941=CARTESIAN_POINT('',(31.8136519567008,30.,-3.20544375414597));
#1942=CARTESIAN_POINT('Origin',(31.8136519567008,30.2,-3.20544375414597));
#1943=CARTESIAN_POINT('',(31.8136519567008,30.,-0.767943754145972));
#1944=CARTESIAN_POINT('',(31.6136519567008,30.2,-0.767943754145972));
#1945=CARTESIAN_POINT('Origin',(32.6136519567008,30.2,-3.20544375414597));
#1946=CARTESIAN_POINT('',(32.6136519567008,30.2,-4.20544375414597));
#1947=CARTESIAN_POINT('',(32.6136519567008,30.,-4.00544375414597));
#1948=CARTESIAN_POINT('Origin',(32.6136519567008,30.2,-4.00544375414597));
#1949=CARTESIAN_POINT('Origin',(32.6136519567008,30.,-3.20544375414597));
#1950=CARTESIAN_POINT('Origin',(32.6136519567008,30.2,-3.20544375414597));
#1951=CARTESIAN_POINT('Origin',(46.6136519567008,30.2,-4.00544375414597));
#1952=CARTESIAN_POINT('',(50.6136519567008,30.2,-4.20544375414597));
#1953=CARTESIAN_POINT('',(50.6136519567008,30.,-4.00544375414597));
#1954=CARTESIAN_POINT('Origin',(50.6136519567008,30.2,-4.00544375414597));
#1955=CARTESIAN_POINT('',(46.6136519567008,30.,-4.00544375414597));
#1956=CARTESIAN_POINT('',(46.6136519567008,30.2,-4.20544375414597));
#1957=CARTESIAN_POINT('Origin',(50.6136519567008,30.2,-3.20544375414597));
#1958=CARTESIAN_POINT('',(51.6136519567008,30.2,-3.20544375414597));
#1959=CARTESIAN_POINT('',(51.4136519567008,30.,-3.20544375414597));
#1960=CARTESIAN_POINT('Origin',(51.4136519567008,30.2,-3.20544375414597));
#1961=CARTESIAN_POINT('Origin',(50.6136519567008,30.,-3.20544375414597));
#1962=CARTESIAN_POINT('Origin',(50.6136519567008,30.2,-3.20544375414597));
#1963=CARTESIAN_POINT('Origin',(51.4136519567008,30.2,3.60705624585403));
#1964=CARTESIAN_POINT('',(51.6136519567008,30.2,4.79455624585403));
#1965=CARTESIAN_POINT('',(51.4136519567008,30.,4.79455624585403));
#1966=CARTESIAN_POINT('Origin',(51.4136519567008,30.2,4.79455624585403));
#1967=CARTESIAN_POINT('',(51.4136519567008,30.,3.60705624585403));
#1968=CARTESIAN_POINT('',(51.6136519567008,30.2,3.60705624585403));
#1969=CARTESIAN_POINT('Origin',(50.6136519567008,30.2,4.79455624585403));
#1970=CARTESIAN_POINT('',(50.6136519567008,30.2,5.79455624585403));
#1971=CARTESIAN_POINT('',(50.6136519567008,30.,5.59455624585403));
#1972=CARTESIAN_POINT('Origin',(50.6136519567008,30.2,5.59455624585403));
#1973=CARTESIAN_POINT('Origin',(50.6136519567008,30.,4.79455624585403));
#1974=CARTESIAN_POINT('Origin',(50.6136519567008,30.2,4.79455624585403));
#1975=CARTESIAN_POINT('Origin',(44.6636519567008,30.2,5.59455624585403));
#1976=CARTESIAN_POINT('',(47.1136519567008,30.,5.59455624585403));
#1977=CARTESIAN_POINT('Origin',(47.1136519567008,30.2,5.59455624585403));
#1978=CARTESIAN_POINT('',(44.6636519567008,30.,5.59455624585403));
#1979=CARTESIAN_POINT('',(44.6636519567008,30.2,5.79455624585403));
#1980=CARTESIAN_POINT('Origin',(47.1136519567008,30.2,4.79455624585403));
#1981=CARTESIAN_POINT('',(46.3136519567008,30.,4.79455624585403));
#1982=CARTESIAN_POINT('Origin',(46.3136519567008,30.2,4.79455624585403));
#1983=CARTESIAN_POINT('Origin',(47.1136519567008,30.,4.79455624585403));
#1984=CARTESIAN_POINT('Origin',(46.3136519567008,30.2,2.7933791232104));
#1985=CARTESIAN_POINT('Origin',(46.3136519567008,30.2,3.97215189847416));
#1986=CARTESIAN_POINT('',(46.3136519567008,30.,2.7933791232104));
#1987=CARTESIAN_POINT('Origin',(46.3136519567008,30.2,3.97215189847416));
#1988=CARTESIAN_POINT('Origin',(46.3136519567008,30.2,0.116960593233887));
#1989=CARTESIAN_POINT('Origin',(36.9136519567008,30.2,0.11696059323391));
#1990=CARTESIAN_POINT('Origin',(36.9136519567008,30.2,3.97215189847415));
#1991=CARTESIAN_POINT('Origin',(36.9136519567008,30.2,3.97215189847415));
#1992=CARTESIAN_POINT('Origin',(47.7136519567008,0.,5.79455624585403));
#1993=CARTESIAN_POINT('',(50.6136519567008,0.,5.79455624585403));
#1994=CARTESIAN_POINT('Origin',(50.6136519567008,0.,4.79455624585403));
#1995=CARTESIAN_POINT('',(51.6136519567008,0.,4.79455624585403));
#1996=CARTESIAN_POINT('Origin',(51.6136519567008,0.,5.79455624585403));
#1997=CARTESIAN_POINT('',(51.6136519567008,0.,-3.20544375414597));
#1998=CARTESIAN_POINT('Origin',(50.6136519567008,0.,-3.20544375414597));
#1999=CARTESIAN_POINT('',(50.6136519567008,0.,-4.20544375414597));
#2000=CARTESIAN_POINT('Origin',(51.6136519567008,0.,-4.20544375414597));
#2001=CARTESIAN_POINT('',(32.6136519567008,0.,-4.20544375414597));
#2002=CARTESIAN_POINT('Origin',(32.6136519567008,0.,-3.20544375414597));
#2003=CARTESIAN_POINT('',(31.6136519567008,0.,-3.20544375414597));
#2004=CARTESIAN_POINT('Origin',(31.6136519567008,0.,-2.95544375414597));
#2005=CARTESIAN_POINT('',(31.6136519567008,0.,4.79455624585403));
#2006=CARTESIAN_POINT('Origin',(32.6136519567007,0.,4.79455624585403));
#2007=CARTESIAN_POINT('',(32.6136519567007,0.,5.79455624585403));
#2008=CARTESIAN_POINT('Origin',(31.6136519567008,0.,5.79455624585403));
#2009=CARTESIAN_POINT('',(36.1136519567008,0.,5.79455624585403));
#2010=CARTESIAN_POINT('Origin',(36.1136519567008,0.,4.79455624585403));
#2011=CARTESIAN_POINT('',(37.1136519567008,0.,4.79455624585403));
#2012=CARTESIAN_POINT('Origin',(37.1136519567008,0.,5.79455624585403));
#2013=CARTESIAN_POINT('',(37.1136519567008,0.,3.97215189847415));
#2014=CARTESIAN_POINT('Origin',(41.6136519567008,30.,1.41955624585403));
#2015=CARTESIAN_POINT('Origin',(36.9136519567008,0.,3.97215189847415));
#2016=UNCERTAINTY_MEASURE_WITH_UNIT(LENGTH_MEASURE(0.01),#2020,
'DISTANCE_ACCURACY_VALUE',
'Maximum model space distance between geometric entities at asserted c
onnectivities');
#2017=UNCERTAINTY_MEASURE_WITH_UNIT(LENGTH_MEASURE(0.01),#2020,
'DISTANCE_ACCURACY_VALUE',
'Maximum model space distance between geometric entities at asserted c
onnectivities');
#2018=(
GEOMETRIC_REPRESENTATION_CONTEXT(3)
GLOBAL_UNCERTAINTY_ASSIGNED_CONTEXT((#2016))
GLOBAL_UNIT_ASSIGNED_CONTEXT((#2020,#2022,#2023))
REPRESENTATION_CONTEXT('','3D')
);
#2019=(
GEOMETRIC_REPRESENTATION_CONTEXT(3)
GLOBAL_UNCERTAINTY_ASSIGNED_CONTEXT((#2017))
GLOBAL_UNIT_ASSIGNED_CONTEXT((#2020,#2022,#2023))
REPRESENTATION_CONTEXT('','3D')
);
#2020=(
LENGTH_UNIT()
NAMED_UNIT(*)
SI_UNIT(.MILLI.,.METRE.)
);
#2021=(
LENGTH_UNIT()
NAMED_UNIT(*)
SI_UNIT($,.METRE.)
);
#2022=(
NAMED_UNIT(*)
PLANE_ANGLE_UNIT()
SI_UNIT($,.RADIAN.)
);
#2023=(
NAMED_UNIT(*)
SI_UNIT($,.STERADIAN.)
SOLID_ANGLE_UNIT()
);
#2024=SHAPE_DEFINITION_REPRESENTATION(#2025,#2026);
#2025=PRODUCT_DEFINITION_SHAPE('',$,#2028);
#2026=SHAPE_REPRESENTATION('',(#1116),#2018);
#2027=PRODUCT_DEFINITION_CONTEXT('part definition',#2032,'design');
#2028=PRODUCT_DEFINITION('PTFE_rail_support','PTFE_rail_support',#2029,
#2027);
#2029=PRODUCT_DEFINITION_FORMATION('',$,#2034);
#2030=PRODUCT_RELATED_PRODUCT_CATEGORY('PTFE_rail_support',
'PTFE_rail_support',(#2034));
#2031=APPLICATION_PROTOCOL_DEFINITION('international standard',
'automotive_design',2009,#2032);
#2032=APPLICATION_CONTEXT(
'Core Data for Automotive Mechanical Design Process');
#2033=PRODUCT_CONTEXT('part definition',#2032,'mechanical');
#2034=PRODUCT('PTFE_rail_support','PTFE_rail_support',$,(#2033));
#2035=PRESENTATION_STYLE_ASSIGNMENT((#2037));
#2036=PRESENTATION_STYLE_ASSIGNMENT((#2038));
#2037=SURFACE_STYLE_USAGE(.BOTH.,#2039);
#2038=SURFACE_STYLE_USAGE(.BOTH.,#2040);
#2039=SURFACE_SIDE_STYLE('',(#2041));
#2040=SURFACE_SIDE_STYLE('',(#2042));
#2041=SURFACE_STYLE_FILL_AREA(#2043);
#2042=SURFACE_STYLE_FILL_AREA(#2044);
#2043=FILL_AREA_STYLE('Steel - Satin',(#2045));
#2044=FILL_AREA_STYLE('Opaque(153,204,51) (1) (1)',(#2046));
#2045=FILL_AREA_STYLE_COLOUR('Steel - Satin',#2047);
#2046=FILL_AREA_STYLE_COLOUR('Opaque(153,204,51) (1) (1)',#2048);
#2047=COLOUR_RGB('Steel - Satin',0.627450980392157,0.627450980392157,0.627450980392157);
#2048=COLOUR_RGB('Opaque(153,204,51) (1) (1)',0.211764705882353,0.564705882352941,
1.);
ENDSEC;
END-ISO-10303-21;
